font.ufo
<glyph name="exclam" format="1">
  <advance width="166"/>
  <unicode hex="0021"/>
  <outline>
    <contour>
      <point x="47" y="20" type="curve" smooth="yes"/>
      <point x="47" y="40"/>
      <point x="63" y="56"/>
      <point x="83" y="56" type="curve" smooth="yes"/>
      <point x="102" y="56"/>
      <point x="119" y="40"/>
      <point x="119" y="20" type="curve" smooth="yes"/>
      <point x="119" y="1"/>
      <point x="102" y="-16"/>
      <point x="83" y="-16" type="curve" smooth="yes"/>
      <point x="63" y="-16"/>
      <point x="47" y="1"/>
    </contour>
    <contour>
      <point x="54" y="96" type="line"/>
      <point x="54" y="700" type="line"/>
      <point x="112" y="700" type="line"/>
      <point x="112" y="96" type="line"/>
    </contour>
  </outline>
</glyph>
<glyph name="numbersign" format="1">
  <advance width="861"/>
  <unicode hex="0023"/>
  <outline>
    <contour>
      <point x="94" y="210" type="line"/>
      <point x="104" y="264" type="line"/>
      <point x="275" y="264" type="line"/>
      <point x="305" y="438" type="line"/>
      <point x="127" y="438" type="line"/>
      <point x="136" y="492" type="line"/>
      <point x="314" y="492" type="line"/>
      <point x="347" y="682" type="line"/>
      <point x="404" y="682" type="line"/>
      <point x="370" y="492" type="line"/>
      <point x="541" y="492" type="line"/>
      <point x="573" y="682" type="line"/>
      <point x="630" y="682" type="line"/>
      <point x="597" y="492" type="line"/>
      <point x="767" y="492" type="line"/>
      <point x="758" y="437" type="line"/>
      <point x="587" y="438" type="line"/>
      <point x="557" y="263" type="line"/>
      <point x="732" y="263" type="line"/>
      <point x="724" y="209" type="line"/>
      <point x="547" y="210" type="line"/>
      <point x="514" y="22" type="line"/>
      <point x="458" y="22" type="line"/>
      <point x="491" y="210" type="line"/>
      <point x="321" y="210" type="line"/>
      <point x="288" y="22" type="line"/>
      <point x="231" y="22" type="line"/>
      <point x="265" y="210" type="line"/>
    </contour>
    <contour>
      <point x="331" y="264" type="line"/>
      <point x="501" y="263" type="line"/>
      <point x="531" y="438" type="line"/>
      <point x="361" y="438" type="line"/>
    </contour>
  </outline>
</glyph>
<glyph name="dollar" format="1">
  <advance width="481"/>
  <unicode hex="0024"/>
  <outline>
    <contour>
      <point x="20" y="158" type="curve"/>
      <point x="75" y="177" type="line"/>
      <point x="96" y="63"/>
      <point x="207" y="53"/>
      <point x="207" y="53" type="curve"/>
      <point x="207" y="-47" type="line"/>
      <point x="169" y="-47" type="line"/>
      <point x="169" y="2" type="line"/>
      <point x="77" y="21"/>
      <point x="21" y="110"/>
    </contour>
    <contour>
      <point x="28" y="513" type="curve" smooth="yes"/>
      <point x="28" y="622"/>
      <point x="111" y="676"/>
      <point x="169" y="693" type="curve"/>
      <point x="169" y="750" type="line"/>
      <point x="207" y="750" type="line"/>
      <point x="207" y="643" type="line"/>
      <point x="177" y="642"/>
      <point x="87" y="605"/>
      <point x="87" y="509" type="curve" smooth="yes"/>
      <point x="87" y="444"/>
      <point x="145" y="418"/>
      <point x="207" y="402" type="curve"/>
      <point x="207" y="339" type="line"/>
      <point x="185" y="343"/>
      <point x="165" y="347"/>
      <point x="151" y="353" type="curve" smooth="yes"/>
      <point x="78" y="382"/>
      <point x="28" y="417"/>
    </contour>
    <contour>
      <point x="254" y="-47" type="line"/>
      <point x="254" y="53" type="line"/>
      <point x="301" y="54"/>
      <point x="401" y="110"/>
      <point x="401" y="208" type="curve" smooth="yes"/>
      <point x="401" y="288"/>
      <point x="324" y="313"/>
      <point x="254" y="328" type="curve"/>
      <point x="254" y="390" type="line"/>
      <point x="283" y="384"/>
      <point x="312" y="378"/>
      <point x="333" y="371" type="curve" smooth="yes"/>
      <point x="400" y="348"/>
      <point x="461" y="311"/>
      <point x="461" y="204" type="curve" smooth="yes"/>
      <point x="461" y="111"/>
      <point x="388" y="21"/>
      <point x="292" y="2" type="curve"/>
      <point x="292" y="-47" type="line"/>
    </contour>
    <contour>
      <point x="254" y="643" type="curve"/>
      <point x="254" y="750" type="line"/>
      <point x="292" y="750" type="line"/>
      <point x="292" y="694" type="line"/>
      <point x="378" y="674"/>
      <point x="426" y="589"/>
      <point x="433" y="553" type="curve"/>
      <point x="377" y="535" type="line"/>
      <point x="350" y="638"/>
      <point x="254" y="643"/>
    </contour>
  </outline>
</glyph>
<glyph name="percent" format="1">
  <advance width="339"/>
  <unicode hex="0025"/>
  <outline>
    <contour>
      <point x="62" y="576" type="curve" smooth="yes"/>
      <point x="62" y="599"/>
      <point x="81" y="618"/>
      <point x="104" y="618" type="curve" smooth="yes"/>
      <point x="128" y="618"/>
      <point x="147" y="599"/>
      <point x="147" y="576" type="curve" smooth="yes"/>
      <point x="147" y="553"/>
      <point x="128" y="533"/>
      <point x="104" y="533" type="curve" smooth="yes"/>
      <point x="81" y="533"/>
      <point x="62" y="553"/>
    </contour>
    <contour>
      <point x="53" y="-23" type="line"/>
      <point x="228" y="716" type="line"/>
      <point x="285" y="716" type="line"/>
      <point x="111" y="-23" type="line"/>
    </contour>
    <contour>
      <point x="191" y="115" type="curve" smooth="yes"/>
      <point x="191" y="139"/>
      <point x="210" y="158"/>
      <point x="233" y="158" type="curve" smooth="yes"/>
      <point x="257" y="158"/>
      <point x="276" y="139"/>
      <point x="276" y="115" type="curve" smooth="yes"/>
      <point x="276" y="92"/>
      <point x="257" y="73"/>
      <point x="233" y="73" type="curve" smooth="yes"/>
      <point x="210" y="73"/>
      <point x="191" y="92"/>
    </contour>
  </outline>
</glyph>
<glyph name="parenright" format="1">
  <advance width="205"/>
  <unicode hex="0029"/>
  <outline>
    <contour>
      <point x="36" y="-15" type="curve"/>
      <point x="36" y="21" type="line"/>
      <point x="74" y="45"/>
      <point x="128" y="75"/>
      <point x="128" y="207" type="curve" smooth="yes"/>
      <point x="128" y="521" type="line" smooth="yes"/>
      <point x="128" y="624"/>
      <point x="75" y="655"/>
      <point x="36" y="678" type="curve"/>
      <point x="36" y="714" type="line"/>
      <point x="142" y="674"/>
      <point x="181" y="611"/>
      <point x="181" y="510" type="curve" smooth="yes"/>
      <point x="181" y="195" type="line" smooth="yes"/>
      <point x="181" y="153"/>
      <point x="174" y="42"/>
    </contour>
  </outline>
</glyph>
<glyph name="asterisk" format="1">
  <advance width="309"/>
  <unicode hex="002A"/>
  <outline>
    <contour>
      <point x="17" y="702" type="line"/>
      <point x="43" y="739" type="line"/>
      <point x="131" y="684" type="line"/>
      <point x="131" y="785" type="line"/>
      <point x="177" y="785" type="line"/>
      <point x="177" y="680" type="line"/>
      <point x="268" y="739" type="line"/>
      <point x="294" y="702" type="line"/>
      <point x="190" y="633" type="line"/>
      <point x="294" y="562" type="line"/>
      <point x="267" y="525" type="line"/>
      <point x="177" y="589" type="line"/>
      <point x="177" y="478" type="line"/>
      <point x="131" y="478" type="line"/>
      <point x="131" y="589" type="line"/>
      <point x="41" y="528" type="line"/>
      <point x="15" y="565" type="line"/>
      <point x="120" y="634" type="line"/>
    </contour>
  </outline>
</glyph>
<glyph name="plus" format="1">
  <advance width="405"/>
  <unicode hex="002B"/>
  <outline>
    <contour>
      <point x="15" y="266" type="line"/>
      <point x="15" y="322" type="line"/>
      <point x="172" y="322" type="line"/>
      <point x="172" y="498" type="line"/>
      <point x="230" y="498" type="line"/>
      <point x="230" y="322" type="line"/>
      <point x="390" y="322" type="line"/>
      <point x="390" y="266" type="line"/>
      <point x="230" y="266" type="line"/>
      <point x="230" y="87" type="line"/>
      <point x="172" y="87" type="line"/>
      <point x="172" y="266" type="line"/>
    </contour>
  </outline>
</glyph>
<glyph name="comma" format="1">
  <advance width="195"/>
  <unicode hex="002C"/>
  <outline>
    <contour>
      <point x="51" y="-23" type="line"/>
      <point x="88" y="129" type="line"/>
      <point x="145" y="129" type="line"/>
      <point x="108" y="-23" type="line"/>
    </contour>
  </outline>
</glyph>
<glyph name="hyphen" format="1">
  <advance width="416"/>
  <unicode hex="002D"/>
  <outline>
    <contour>
      <point x="50" y="266" type="line"/>
      <point x="50" y="322" type="line"/>
      <point x="366" y="322" type="line"/>
      <point x="366" y="266" type="line"/>
    </contour>
  </outline>
</glyph>
<glyph name="period" format="1">
  <advance width="102"/>
  <unicode hex="002E"/>
  <outline>
    <contour>
      <point x="15" y="14" type="curve" smooth="yes"/>
      <point x="15" y="33"/>
      <point x="31" y="50"/>
      <point x="51" y="50" type="curve" smooth="yes"/>
      <point x="70" y="50"/>
      <point x="87" y="33"/>
      <point x="87" y="14" type="curve" smooth="yes"/>
      <point x="87" y="-6"/>
      <point x="70" y="-22"/>
      <point x="51" y="-22" type="curve" smooth="yes"/>
      <point x="31" y="-22"/>
      <point x="15" y="-6"/>
    </contour>
  </outline>
</glyph>
<glyph name="slash" format="1">
  <advance width="332"/>
  <unicode hex="002F"/>
  <outline>
    <contour>
      <point x="50" y="-23" type="line"/>
      <point x="225" y="716" type="line"/>
      <point x="282" y="716" type="line"/>
      <point x="108" y="-23" type="line"/>
    </contour>
  </outline>
</glyph>
<glyph name="two" format="1">
  <advance width="485"/>
  <unicode hex="0032"/>
  <outline>
    <contour>
      <point x="30" y="520" type="line"/>
      <point x="39" y="604"/>
      <point x="100" y="690"/>
      <point x="204" y="700" type="curve"/>
      <point x="204" y="644" type="line" smooth="yes"/>
      <point x="204" y="644"/>
      <point x="102" y="639"/>
      <point x="83" y="509" type="curve"/>
    </contour>
    <contour>
      <point x="49" y="0" type="line"/>
      <point x="49" y="56" type="line"/>
      <point x="453" y="56" type="line"/>
      <point x="453" y="0" type="line"/>
    </contour>
    <contour>
      <point x="49" y="100" type="line"/>
      <point x="61" y="266"/>
      <point x="248" y="334"/>
      <point x="283" y="354" type="curve" smooth="yes"/>
      <point x="337" y="383"/>
      <point x="402" y="413"/>
      <point x="402" y="495" type="curve" smooth="yes"/>
      <point x="402" y="573"/>
      <point x="371" y="644"/>
      <point x="251" y="644" type="curve"/>
      <point x="251" y="700" type="line"/>
      <point x="409" y="700"/>
      <point x="460" y="595"/>
      <point x="459" y="495" type="curve" smooth="yes"/>
      <point x="457" y="406"/>
      <point x="412" y="363"/>
      <point x="345" y="326" type="curve" smooth="yes"/>
      <point x="271" y="286"/>
      <point x="119" y="231"/>
      <point x="112" y="100" type="curve"/>
    </contour>
  </outline>
</glyph>
<glyph name="three" format="1">
  <advance width="484"/>
  <unicode hex="0033"/>
  <outline>
    <contour>
      <point x="26" y="97" type="curve"/>
      <point x="74" y="125" type="line"/>
      <point x="109" y="67"/>
      <point x="136" y="57"/>
      <point x="195" y="54" type="curve"/>
      <point x="195" y="-1" type="line"/>
      <point x="117" y="-1"/>
      <point x="60" y="30"/>
    </contour>
    <contour>
      <point x="26" y="600" type="line"/>
      <point x="59" y="656"/>
      <point x="117" y="698"/>
      <point x="195" y="698" type="curve"/>
      <point x="195" y="642" type="line"/>
      <point x="160" y="642"/>
      <point x="107" y="625"/>
      <point x="74" y="571" type="curve"/>
    </contour>
    <contour>
      <point x="255" y="0" type="curve"/>
      <point x="255" y="55" type="line"/>
      <point x="298" y="55"/>
      <point x="399" y="101"/>
      <point x="399" y="201" type="curve" smooth="yes"/>
      <point x="399" y="275"/>
      <point x="368" y="320"/>
      <point x="268" y="320" type="curve"/>
      <point x="268" y="376" type="line"/>
      <point x="372" y="376"/>
      <point x="395" y="423"/>
      <point x="395" y="499" type="curve" smooth="yes"/>
      <point x="395" y="597"/>
      <point x="310" y="643"/>
      <point x="252" y="643" type="curve"/>
      <point x="252" y="698" type="line"/>
      <point x="386" y="695"/>
      <point x="453" y="582"/>
      <point x="453" y="508" type="curve" smooth="yes"/>
      <point x="453" y="411"/>
      <point x="422" y="366"/>
      <point x="391" y="350" type="curve"/>
      <point x="419" y="331"/>
      <point x="458" y="284"/>
      <point x="458" y="199" type="curve" smooth="yes"/>
      <point x="458" y="74"/>
      <point x="336" y="0"/>
    </contour>
  </outline>
</glyph>
<glyph name="four" format="1">
  <advance width="497"/>
  <unicode hex="0034"/>
  <outline>
    <contour>
      <point x="26" y="145" type="line"/>
      <point x="26" y="201" type="line"/>
      <point x="297" y="661" type="line"/>
      <point x="297" y="557" type="line"/>
      <point x="89" y="201" type="line"/>
      <point x="297" y="201" type="line"/>
      <point x="297" y="145" type="line"/>
    </contour>
    <contour>
      <point x="344" y="0" type="line"/>
      <point x="344" y="701" type="line"/>
      <point x="402" y="701" type="line"/>
      <point x="402" y="201" type="line"/>
      <point x="457" y="201" type="line"/>
      <point x="457" y="145" type="line"/>
      <point x="402" y="145" type="line"/>
      <point x="402" y="0" type="line"/>
    </contour>
  </outline>
</glyph>
<glyph name="five" format="1">
  <advance width="475"/>
  <unicode hex="0035"/>
  <outline>
    <contour>
      <point x="20" y="354" type="line"/>
      <point x="49" y="700" type="line"/>
      <point x="403" y="700" type="line"/>
      <point x="403" y="644" type="line"/>
      <point x="101" y="643" type="line"/>
      <point x="82" y="407" type="line"/>
      <point x="107" y="425"/>
      <point x="146" y="447"/>
      <point x="201" y="447" type="curve"/>
      <point x="201" y="392" type="line"/>
      <point x="153" y="391"/>
      <point x="109" y="369"/>
      <point x="73" y="321" type="curve"/>
    </contour>
    <contour>
      <point x="22" y="107" type="curve"/>
      <point x="69" y="138" type="line"/>
      <point x="100" y="83"/>
      <point x="137" y="61"/>
      <point x="201" y="56" type="curve"/>
      <point x="201" y="0" type="line"/>
      <point x="117" y="0"/>
      <point x="54" y="46"/>
    </contour>
    <contour>
      <point x="248" y="0" type="curve"/>
      <point x="248" y="56" type="line"/>
      <point x="309" y="57"/>
      <point x="403" y="112"/>
      <point x="403" y="224" type="curve" smooth="yes"/>
      <point x="403" y="349"/>
      <point x="307" y="391"/>
      <point x="248" y="392" type="curve"/>
      <point x="248" y="447" type="line"/>
      <point x="395" y="446"/>
      <point x="460" y="333"/>
      <point x="460" y="223" type="curve" smooth="yes"/>
      <point x="460" y="79"/>
      <point x="353" y="2"/>
    </contour>
  </outline>
</glyph>
<glyph name="six" format="1">
  <advance width="509"/>
  <unicode hex="0036"/>
  <outline>
    <contour>
      <point x="75" y="371" type="curve" smooth="yes"/>
      <point x="75" y="456"/>
      <point x="99" y="605"/>
      <point x="241" y="619" type="curve"/>
      <point x="237" y="619"/>
      <point x="227" y="583"/>
      <point x="227" y="571" type="curve"/>
      <point x="107" y="543"/>
      <point x="100" y="381"/>
      <point x="107" y="281" type="curve"/>
      <point x="136" y="341"/>
      <point x="192" y="340"/>
      <point x="241" y="340" type="curve"/>
      <point x="206" y="340"/>
      <point x="201" y="347"/>
      <point x="201" y="381" type="curve"/>
      <point x="121" y="405"/>
      <point x="86" y="370"/>
      <point x="120" y="308" type="curve" smooth="yes"/>
      <point x="120" y="271"/>
      <point x="148" y="144"/>
      <point x="241" y="144" type="curve"/>
      <point x="228" y="143"/>
      <point x="225" y="89"/>
      <point x="225" y="79" type="curve"/>
      <point x="89" y="82"/>
      <point x="72" y="223"/>
    </contour>
    <contour>
      <point x="288" y="-1" type="curve"/>
      <point x="288" y="54" type="line"/>
      <point x="373" y="55"/>
      <point x="425" y="141"/>
      <point x="425" y="210" type="curve" smooth="yes"/>
      <point x="425" y="326"/>
      <point x="349" y="373"/>
      <point x="288" y="373" type="curve"/>
      <point x="288" y="425" type="line"/>
      <point x="412" y="425"/>
      <point x="479" y="329"/>
      <point x="479" y="211" type="curve" smooth="yes"/>
      <point x="479" y="86"/>
      <point x="389" y="0"/>
    </contour>
    <contour>
      <point x="288" y="643" type="curve"/>
      <point x="288" y="698" type="line"/>
      <point x="366" y="698"/>
      <point x="424" y="659"/>
      <point x="459" y="600" type="curve"/>
      <point x="414" y="570" type="line"/>
      <point x="395" y="601"/>
      <point x="357" y="643"/>
    </contour>
  </outline>
</glyph>
<glyph name="seven" format="1">
  <advance width="435"/>
  <unicode hex="0037"/>
  <outline>
    <contour>
      <point x="20" y="642" type="line"/>
      <point x="20" y="698" type="line"/>
      <point x="409" y="698" type="line"/>
      <point x="409" y="643" type="line"/>
      <point x="407" y="641"/>
      <point x="370" y="507"/>
      <point x="369" y="504" type="curve"/>
      <point x="309" y="504" type="line"/>
      <point x="343" y="642" type="line"/>
    </contour>
    <contour>
      <point x="211" y="0" type="line"/>
      <point x="228" y="158"/>
      <point x="258" y="301"/>
      <point x="300" y="456" type="curve"/>
      <point x="358" y="456" type="line"/>
      <point x="319" y="306"/>
      <point x="289" y="154"/>
      <point x="273" y="0" type="curve"/>
    </contour>
  </outline>
</glyph>
<glyph name="eight" format="1">
  <advance width="477"/>
  <unicode hex="0038"/>
  <outline>
    <contour>
      <point x="17" y="199" type="curve" smooth="yes"/>
      <point x="17" y="287"/>
      <point x="65" y="330"/>
      <point x="93" y="349" type="curve"/>
      <point x="79" y="352"/>
      <point x="24" y="406"/>
      <point x="24" y="499" type="curve" smooth="yes"/>
      <point x="24" y="616"/>
      <point x="129" y="698"/>
      <point x="211" y="698" type="curve"/>
      <point x="211" y="642" type="line"/>
      <point x="133" y="638"/>
      <point x="80" y="566"/>
      <point x="80" y="499" type="curve" smooth="yes"/>
      <point x="80" y="425"/>
      <point x="118" y="379"/>
      <point x="210" y="377" type="curve"/>
      <point x="210" y="321" type="line"/>
      <point x="151" y="319"/>
      <point x="74" y="299"/>
      <point x="74" y="199" type="curve" smooth="yes"/>
      <point x="74" y="105"/>
      <point x="174" y="60"/>
      <point x="208" y="55" type="curve"/>
      <point x="208" y="0" type="line"/>
      <point x="207" y="0" type="line" smooth="yes"/>
      <point x="156" y="0"/>
      <point x="17" y="53"/>
    </contour>
    <contour>
      <point x="258" y="642" type="curve"/>
      <point x="258" y="698" type="line"/>
      <point x="341" y="698"/>
      <point x="443" y="614"/>
      <point x="443" y="499" type="curve" smooth="yes"/>
      <point x="443" y="402"/>
      <point x="390" y="352"/>
      <point x="376" y="349" type="curve"/>
      <point x="404" y="330"/>
      <point x="451" y="294"/>
      <point x="451" y="197" type="curve" smooth="yes"/>
      <point x="451" y="57"/>
      <point x="317" y="0"/>
      <point x="262" y="0" type="curve" smooth="yes"/>
      <point x="261" y="0" type="line"/>
      <point x="260" y="55" type="line"/>
      <point x="299" y="57"/>
      <point x="394" y="106"/>
      <point x="394" y="197" type="curve" smooth="yes"/>
      <point x="394" y="314"/>
      <point x="301" y="319"/>
      <point x="259" y="321" type="curve"/>
      <point x="259" y="377" type="line"/>
      <point x="358" y="379"/>
      <point x="387" y="420"/>
      <point x="387" y="499" type="curve" smooth="yes"/>
      <point x="387" y="569"/>
      <point x="336" y="638"/>
    </contour>
  </outline>
</glyph>
<glyph name="colon" format="1">
  <advance width="172"/>
  <unicode hex="003A"/>
  <outline>
    <contour>
      <point x="50" y="31" type="curve" smooth="yes"/>
      <point x="50" y="50"/>
      <point x="66" y="67"/>
      <point x="86" y="67" type="curve" smooth="yes"/>
      <point x="105" y="67"/>
      <point x="122" y="50"/>
      <point x="122" y="31" type="curve" smooth="yes"/>
      <point x="122" y="11"/>
      <point x="105" y="-5"/>
      <point x="86" y="-5" type="curve" smooth="yes"/>
      <point x="66" y="-5"/>
      <point x="50" y="11"/>
    </contour>
    <contour>
      <point x="51" y="321" type="curve" smooth="yes"/>
      <point x="51" y="340"/>
      <point x="67" y="357"/>
      <point x="87" y="357" type="curve" smooth="yes"/>
      <point x="106" y="357"/>
      <point x="122" y="340"/>
      <point x="122" y="321" type="curve" smooth="yes"/>
      <point x="122" y="301"/>
      <point x="106" y="285"/>
      <point x="87" y="285" type="curve" smooth="yes"/>
      <point x="67" y="285"/>
      <point x="51" y="301"/>
    </contour>
  </outline>
</glyph>
<glyph name="semicolon" format="1">
  <advance width="217"/>
  <unicode hex="003B"/>
  <outline>
    <contour>
      <point x="50" y="-23" type="line"/>
      <point x="87" y="129" type="line"/>
      <point x="144" y="129" type="line"/>
      <point x="107" y="-23" type="line"/>
    </contour>
    <contour>
      <point x="96" y="321" type="curve" smooth="yes"/>
      <point x="96" y="340"/>
      <point x="112" y="357"/>
      <point x="132" y="357" type="curve" smooth="yes"/>
      <point x="151" y="357"/>
      <point x="167" y="340"/>
      <point x="167" y="321" type="curve" smooth="yes"/>
      <point x="167" y="301"/>
      <point x="151" y="285"/>
      <point x="132" y="285" type="curve" smooth="yes"/>
      <point x="112" y="285"/>
      <point x="96" y="301"/>
    </contour>
  </outline>
</glyph>
<glyph name="less" format="1">
  <advance width="414"/>
  <unicode hex="003C"/>
  <outline>
    <contour>
      <point x="30" y="272" type="line"/>
      <point x="30" y="311" type="line"/>
      <point x="384" y="500" type="line"/>
      <point x="384" y="442" type="line"/>
      <point x="102" y="292" type="line"/>
      <point x="384" y="136" type="line"/>
      <point x="384" y="79" type="line"/>
    </contour>
  </outline>
</glyph>
<glyph name="greater" format="1">
  <advance width="414"/>
  <unicode hex="003E"/>
  <outline>
    <contour>
      <point x="30" y="79" type="line"/>
      <point x="30" y="136" type="line"/>
      <point x="312" y="292" type="line"/>
      <point x="30" y="442" type="line"/>
      <point x="30" y="500" type="line"/>
      <point x="384" y="311" type="line"/>
      <point x="384" y="272" type="line"/>
    </contour>
  </outline>
</glyph>
<glyph name="question" format="1">
  <advance width="460"/>
  <unicode hex="003F"/>
  <outline>
    <contour>
      <point x="30" y="611" type="line"/>
      <point x="60" y="649"/>
      <point x="110" y="703"/>
      <point x="218" y="703" type="curve" smooth="yes"/>
      <point x="346" y="703"/>
      <point x="426" y="620"/>
      <point x="430" y="491" type="curve"/>
      <point x="430" y="293"/>
      <point x="225" y="276"/>
      <point x="225" y="276" type="curve"/>
      <point x="225" y="90" type="line"/>
      <point x="168" y="90" type="line"/>
      <point x="168" y="330" type="line"/>
      <point x="285" y="332"/>
      <point x="374" y="376"/>
      <point x="374" y="491" type="curve" smooth="yes"/>
      <point x="374" y="579"/>
      <point x="313" y="645"/>
      <point x="216" y="645" type="curve" smooth="yes"/>
      <point x="137" y="645"/>
      <point x="89" y="600"/>
      <point x="68" y="572" type="curve"/>
    </contour>
    <contour>
      <point x="161" y="14" type="curve" smooth="yes"/>
      <point x="161" y="33"/>
      <point x="177" y="50"/>
      <point x="197" y="50" type="curve" smooth="yes"/>
      <point x="217" y="50"/>
      <point x="233" y="33"/>
      <point x="233" y="14" type="curve" smooth="yes"/>
      <point x="233" y="-6"/>
      <point x="217" y="-22"/>
      <point x="197" y="-22" type="curve" smooth="yes"/>
      <point x="177" y="-22"/>
      <point x="161" y="-6"/>
    </contour>
  </outline>
</glyph>
<glyph name="at" format="1">
  <advance width="738"/>
  <unicode hex="0040"/>
  <outline>
    <contour>
      <point x="16" y="309" type="curve" smooth="yes"/>
      <point x="16" y="522"/>
      <point x="189" y="685"/>
      <point x="416" y="685" type="curve" smooth="yes"/>
      <point x="557" y="685"/>
      <point x="721" y="594"/>
      <point x="721" y="413" type="curve" smooth="yes"/>
      <point x="721" y="186"/>
      <point x="564" y="152"/>
      <point x="510" y="152" type="curve" smooth="yes"/>
      <point x="474" y="152"/>
      <point x="437" y="187"/>
      <point x="430" y="207" type="curve"/>
      <point x="418" y="189"/>
      <point x="384" y="158"/>
      <point x="332" y="158" type="curve" smooth="yes"/>
      <point x="270" y="158"/>
      <point x="218" y="222"/>
      <point x="218" y="301" type="curve" smooth="yes"/>
      <point x="218" y="429"/>
      <point x="318" y="490"/>
      <point x="386" y="490" type="curve" smooth="yes"/>
      <point x="439" y="490"/>
      <point x="457" y="468"/>
      <point x="469" y="455" type="curve"/>
      <point x="476" y="478" type="line"/>
      <point x="524" y="478" type="line"/>
      <point x="481" y="308" type="line" smooth="yes"/>
      <point x="478" y="297"/>
      <point x="474" y="280"/>
      <point x="471" y="266" type="curve" smooth="yes"/>
      <point x="468" y="249"/>
      <point x="486" y="206"/>
      <point x="521" y="206" type="curve" smooth="yes"/>
      <point x="561" y="206"/>
      <point x="667" y="237"/>
      <point x="667" y="412" type="curve" smooth="yes"/>
      <point x="667" y="549"/>
      <point x="533" y="632"/>
      <point x="417" y="632" type="curve" smooth="yes"/>
      <point x="230" y="632"/>
      <point x="72" y="495"/>
      <point x="72" y="310" type="curve" smooth="yes"/>
      <point x="72" y="120"/>
      <point x="210" y="-7"/>
      <point x="388" y="-7" type="curve" smooth="yes"/>
      <point x="487" y="-7"/>
      <point x="568" y="25"/>
      <point x="648" y="81" type="curve"/>
      <point x="672" y="35" type="line"/>
      <point x="604" y="-18"/>
      <point x="504" y="-59"/>
      <point x="389" y="-59" type="curve" smooth="yes"/>
      <point x="161" y="-59"/>
      <point x="16" y="99"/>
    </contour>
  </outline>
</glyph>
<glyph name="A" format="1">
  <advance width="452"/>
  <unicode hex="0041"/>
  <outline>
    <contour>
      <point x="32" y="0" type="line"/>
      <point x="167" y="596" type="line"/>
      <point x="184" y="596" type="line"/>
      <point x="204" y="504" type="line"/>
      <point x="92" y="0" type="line"/>
    </contour>
    <contour>
      <point x="166" y="125" type="line"/>
      <point x="178" y="183" type="line"/>
      <point x="321" y="183" type="line"/>
      <point x="208" y="699" type="line"/>
      <point x="268" y="699" type="line"/>
      <point x="420" y="0" type="line"/>
      <point x="361" y="0" type="line"/>
      <point x="334" y="125" type="line"/>
    </contour>
  </outline>
</glyph>
<glyph name="B" format="1">
  <advance width="496"/>
  <unicode hex="0042"/>
  <outline>
    <contour>
      <point x="42" y="0" type="line"/>
      <point x="42" y="700" type="line"/>
      <point x="102" y="700" type="line"/>
      <point x="102" y="0" type="line"/>
    </contour>
    <contour>
      <point x="149" y="-1" type="curve"/>
      <point x="149" y="54" type="line"/>
      <point x="168" y="54"/>
      <point x="226" y="54"/>
      <point x="227" y="54" type="curve" smooth="yes"/>
      <point x="374" y="54"/>
      <point x="415" y="141"/>
      <point x="415" y="205" type="curve" smooth="yes"/>
      <point x="415" y="267"/>
      <point x="383" y="324"/>
      <point x="279" y="324" type="curve" smooth="yes"/>
      <point x="278" y="324"/>
      <point x="165" y="324"/>
      <point x="149" y="324" type="curve"/>
      <point x="149" y="379" type="line"/>
      <point x="162" y="379"/>
      <point x="279" y="379"/>
      <point x="279" y="379" type="curve" smooth="yes"/>
      <point x="379" y="380"/>
      <point x="412" y="430"/>
      <point x="412" y="497" type="curve" smooth="yes"/>
      <point x="412" y="563"/>
      <point x="364" y="644"/>
      <point x="253" y="645" type="curve" smooth="yes"/>
      <point x="253" y="645"/>
      <point x="168" y="645"/>
      <point x="149" y="645" type="curve"/>
      <point x="149" y="700" type="line"/>
      <point x="157" y="700"/>
      <point x="257" y="700"/>
      <point x="259" y="700" type="curve" smooth="yes"/>
      <point x="411" y="700"/>
      <point x="470" y="585"/>
      <point x="470" y="500" type="curve" smooth="yes"/>
      <point x="470" y="426"/>
      <point x="436" y="378"/>
      <point x="401" y="352" type="curve"/>
      <point x="439" y="322"/>
      <point x="474" y="288"/>
      <point x="474" y="203" type="curve" smooth="yes"/>
      <point x="474" y="85"/>
      <point x="383" y="-1"/>
      <point x="263" y="-1" type="curve" smooth="yes"/>
      <point x="261" y="-1"/>
      <point x="159" y="-1"/>
    </contour>
  </outline>
</glyph>
<glyph name="C" format="1">
  <advance width="494"/>
  <unicode hex="0043"/>
  <outline>
    <contour>
      <point x="38" y="181" type="curve"/>
      <point x="38" y="518" type="line"/>
      <point x="38" y="578"/>
      <point x="92" y="706"/>
      <point x="238" y="705" type="curve"/>
      <point x="238" y="646" type="line"/>
      <point x="138" y="646"/>
      <point x="98" y="559"/>
      <point x="98" y="518" type="curve"/>
      <point x="98" y="181" type="line"/>
      <point x="98" y="140"/>
      <point x="139" y="54"/>
      <point x="238" y="54" type="curve"/>
      <point x="238" y="-5" type="line"/>
      <point x="91" y="-5"/>
      <point x="38" y="121"/>
    </contour>
    <contour>
      <point x="285" y="-5" type="curve"/>
      <point x="285" y="54" type="line"/>
      <point x="285" y="54"/>
      <point x="384" y="57"/>
      <point x="411" y="144" type="curve" smooth="yes"/>
      <point x="414" y="155"/>
      <point x="416" y="167"/>
      <point x="418" y="177" type="curve" smooth="yes"/>
      <point x="419" y="185"/>
      <point x="419" y="193"/>
      <point x="419" y="195" type="curve"/>
      <point x="474" y="182" type="line"/>
      <point x="474" y="76"/>
      <point x="381" y="-5"/>
    </contour>
    <contour>
      <point x="285" y="646" type="curve"/>
      <point x="285" y="705" type="line"/>
      <point x="381" y="706"/>
      <point x="474" y="612"/>
      <point x="474" y="516" type="curve"/>
      <point x="418" y="502" type="line"/>
      <point x="418" y="506"/>
      <point x="417" y="513"/>
      <point x="417" y="518" type="curve" smooth="yes"/>
      <point x="416" y="528"/>
      <point x="415" y="537"/>
      <point x="411" y="546" type="curve" smooth="yes"/>
      <point x="376" y="644"/>
      <point x="285" y="646"/>
    </contour>
  </outline>
</glyph>
<glyph name="D" format="1">
  <advance width="472"/>
  <unicode hex="0044"/>
  <outline>
    <contour>
      <point x="42" y="0" type="line"/>
      <point x="42" y="700" type="line"/>
      <point x="102" y="700" type="line"/>
      <point x="102" y="0" type="line"/>
    </contour>
    <contour>
      <point x="149" y="0" type="curve"/>
      <point x="149" y="59" type="line"/>
      <point x="265" y="59"/>
      <point x="374" y="63"/>
      <point x="374" y="197" type="curve" smooth="yes"/>
      <point x="374" y="503" type="line"/>
      <point x="374" y="637"/>
      <point x="267" y="641"/>
      <point x="149" y="641" type="curve"/>
      <point x="149" y="700" type="line"/>
      <point x="301" y="700"/>
      <point x="434" y="678"/>
      <point x="434" y="503" type="curve"/>
      <point x="434" y="197" type="line"/>
      <point x="434" y="10"/>
      <point x="289" y="0"/>
    </contour>
  </outline>
</glyph>
<glyph name="F" format="1">
  <advance width="432"/>
  <unicode hex="0046"/>
  <outline>
    <contour>
      <point x="42" y="1" type="line"/>
      <point x="42" y="700" type="line"/>
      <point x="406" y="700" type="line"/>
      <point x="406" y="642" type="line"/>
      <point x="102" y="642" type="line"/>
      <point x="102" y="378" type="line"/>
      <point x="312" y="378" type="line"/>
      <point x="312" y="319" type="line"/>
      <point x="102" y="319" type="line"/>
      <point x="102" y="1" type="line"/>
    </contour>
  </outline>
</glyph>
<glyph name="G" format="1">
  <advance width="507"/>
  <unicode hex="0047"/>
  <outline>
    <contour>
      <point x="38" y="192" type="curve"/>
      <point x="38" y="524" type="line"/>
      <point x="40" y="587"/>
      <point x="102" y="706"/>
      <point x="237" y="705" type="curve"/>
      <point x="237" y="646" type="line"/>
      <point x="162" y="646"/>
      <point x="98" y="581"/>
      <point x="98" y="508" type="curve"/>
      <point x="98" y="192" type="line" smooth="yes"/>
      <point x="98" y="91"/>
      <point x="204" y="54"/>
      <point x="237" y="54" type="curve"/>
      <point x="237" y="-5" type="line"/>
      <point x="173" y="-5"/>
      <point x="38" y="48"/>
    </contour>
    <contour>
      <point x="284" y="-5" type="curve"/>
      <point x="284" y="54" type="line"/>
      <point x="328" y="54"/>
      <point x="413" y="113"/>
      <point x="413" y="190" type="curve" smooth="yes"/>
      <point x="413" y="297" type="line"/>
      <point x="284" y="297" type="line"/>
      <point x="284" y="353" type="line"/>
      <point x="473" y="353" type="line"/>
      <point x="473" y="176" type="line" smooth="yes"/>
      <point x="473" y="95"/>
      <point x="370" y="-5"/>
    </contour>
    <contour>
      <point x="284" y="646" type="curve"/>
      <point x="284" y="705" type="line"/>
      <point x="381" y="706"/>
      <point x="473" y="612"/>
      <point x="473" y="516" type="curve"/>
      <point x="414" y="495" type="line"/>
      <point x="414" y="499"/>
      <point x="414" y="511"/>
      <point x="414" y="515" type="curve" smooth="yes"/>
      <point x="406" y="611"/>
      <point x="320" y="646"/>
    </contour>
  </outline>
</glyph>
<glyph name="J" format="1">
  <advance width="484"/>
  <unicode hex="004A"/>
  <outline>
    <contour>
      <point x="15" y="193" type="curve"/>
      <point x="15" y="242" type="line"/>
      <point x="75" y="242" type="line"/>
      <point x="75" y="199" type="line" smooth="yes"/>
      <point x="75" y="98"/>
      <point x="163" y="54"/>
      <point x="205" y="54" type="curve"/>
      <point x="205" y="-5" type="line"/>
      <point x="145" y="-5"/>
      <point x="15" y="54"/>
    </contour>
    <contour>
      <point x="253" y="-5" type="curve"/>
      <point x="253" y="54" type="line"/>
      <point x="288" y="54"/>
      <point x="392" y="97"/>
      <point x="392" y="193" type="curve" smooth="yes"/>
      <point x="392" y="700" type="line"/>
      <point x="452" y="700" type="line"/>
      <point x="452" y="193" type="line"/>
      <point x="452" y="49"/>
      <point x="313" y="-5"/>
    </contour>
  </outline>
</glyph>
<glyph name="K" format="1">
  <advance width="488"/>
  <unicode hex="004B"/>
  <outline>
    <contour>
      <point x="42" y="0" type="line"/>
      <point x="42" y="700" type="line"/>
      <point x="102" y="700" type="line"/>
      <point x="102" y="0" type="line"/>
    </contour>
    <contour>
      <point x="146" y="341" type="line"/>
      <point x="401" y="700" type="line"/>
      <point x="469" y="700" type="line"/>
      <point x="214" y="341" type="line"/>
      <point x="473" y="0" type="line"/>
      <point x="405" y="0" type="line"/>
    </contour>
  </outline>
</glyph>
<glyph name="M" format="1">
  <advance width="696"/>
  <unicode hex="004D"/>
  <outline>
    <contour>
      <point x="42" y="0" type="line"/>
      <point x="42" y="528" type="line"/>
      <point x="51" y="528" type="line"/>
      <point x="102" y="403" type="line"/>
      <point x="102" y="0" type="line"/>
    </contour>
    <contour>
      <point x="42" y="664" type="line"/>
      <point x="42" y="700" type="line"/>
      <point x="94" y="700" type="line"/>
      <point x="343" y="95" type="line"/>
      <point x="537" y="533" type="line"/>
      <point x="547" y="533" type="line"/>
      <point x="547" y="405" type="line"/>
      <point x="368" y="0" type="line"/>
      <point x="318" y="0" type="line"/>
    </contour>
    <contour>
      <point x="594" y="0" type="line"/>
      <point x="594" y="700" type="line"/>
      <point x="654" y="700" type="line"/>
      <point x="654" y="0" type="line"/>
    </contour>
  </outline>
</glyph>
<glyph name="N" format="1">
  <advance width="529"/>
  <unicode hex="004E"/>
  <outline>
    <contour>
      <point x="42" y="0" type="line"/>
      <point x="42" y="575" type="line"/>
      <point x="50" y="575" type="line"/>
      <point x="102" y="491" type="line"/>
      <point x="102" y="0" type="line"/>
    </contour>
    <contour>
      <point x="42" y="662" type="line"/>
      <point x="42" y="700" type="line"/>
      <point x="96" y="700" type="line"/>
      <point x="487" y="76" type="line"/>
      <point x="487" y="0" type="line"/>
      <point x="457" y="0" type="line"/>
    </contour>
    <contour>
      <point x="427" y="251" type="line"/>
      <point x="427" y="700" type="line"/>
      <point x="487" y="700" type="line"/>
      <point x="487" y="166" type="line"/>
      <point x="479" y="166" type="line"/>
    </contour>
  </outline>
</glyph>
<glyph name="O" format="1">
  <advance width="524"/>
  <unicode hex="004F"/>
  <outline>
    <contour>
      <point x="38" y="195" type="curve" smooth="yes"/>
      <point x="38" y="524" type="line" smooth="yes"/>
      <point x="38" y="584"/>
      <point x="103" y="705"/>
      <point x="235" y="705" type="curve"/>
      <point x="235" y="646" type="line"/>
      <point x="147" y="645"/>
      <point x="98" y="555"/>
      <point x="98" y="508" type="curve" smooth="yes"/>
      <point x="98" y="195" type="line" smooth="yes"/>
      <point x="98" y="104"/>
      <point x="190" y="55"/>
      <point x="234" y="55" type="curve"/>
      <point x="234" y="-5" type="line"/>
      <point x="174" y="-5"/>
      <point x="38" y="51"/>
    </contour>
    <contour>
      <point x="289" y="-5" type="curve"/>
      <point x="289" y="55" type="line"/>
      <point x="335" y="55"/>
      <point x="426" y="102"/>
      <point x="426" y="195" type="curve" smooth="yes"/>
      <point x="426" y="508" type="line" smooth="yes"/>
      <point x="426" y="559"/>
      <point x="377" y="645"/>
      <point x="289" y="646" type="curve"/>
      <point x="289" y="705" type="line"/>
      <point x="420" y="705"/>
      <point x="486" y="583"/>
      <point x="486" y="524" type="curve" smooth="yes"/>
      <point x="486" y="195" type="line" smooth="yes"/>
      <point x="486" y="51"/>
      <point x="349" y="-5"/>
    </contour>
  </outline>
</glyph>
<glyph name="P" format="1">
  <advance width="479"/>
  <unicode hex="0050"/>
  <outline>
    <contour>
      <point x="42" y="0" type="line"/>
      <point x="42" y="700" type="line"/>
      <point x="102" y="700" type="line"/>
      <point x="102" y="0" type="line"/>
    </contour>
    <contour>
      <point x="149" y="318" type="curve"/>
      <point x="149" y="376" type="line"/>
      <point x="244" y="376" type="line" smooth="yes"/>
      <point x="339" y="376"/>
      <point x="403" y="404"/>
      <point x="403" y="508" type="curve" smooth="yes"/>
      <point x="403" y="617"/>
      <point x="344" y="642"/>
      <point x="243" y="642" type="curve" smooth="yes"/>
      <point x="149" y="642" type="line"/>
      <point x="149" y="700" type="line"/>
      <point x="350" y="700"/>
      <point x="464" y="690"/>
      <point x="464" y="512" type="curve" smooth="yes"/>
      <point x="464" y="319"/>
      <point x="336" y="318"/>
    </contour>
  </outline>
</glyph>
<glyph name="Q" format="1">
  <advance width="526"/>
  <unicode hex="0051"/>
  <outline>
    <contour>
      <point x="38" y="195" type="curve" smooth="yes"/>
      <point x="38" y="524" type="line" smooth="yes"/>
      <point x="38" y="584"/>
      <point x="103" y="706"/>
      <point x="238" y="705" type="curve"/>
      <point x="238" y="646" type="line"/>
      <point x="147" y="646"/>
      <point x="98" y="562"/>
      <point x="98" y="508" type="curve" smooth="yes"/>
      <point x="98" y="195" type="line" smooth="yes"/>
      <point x="98" y="81"/>
      <point x="218" y="54"/>
      <point x="238" y="54" type="curve"/>
      <point x="238" y="-5" type="line"/>
      <point x="172" y="-5"/>
      <point x="38" y="51"/>
    </contour>
    <contour>
      <point x="286" y="-5" type="line"/>
      <point x="286" y="54" type="line"/>
      <point x="303" y="54"/>
      <point x="425" y="83"/>
      <point x="425" y="195" type="curve" smooth="yes"/>
      <point x="425" y="508" type="line" smooth="yes"/>
      <point x="425" y="562"/>
      <point x="377" y="646"/>
      <point x="286" y="646" type="curve"/>
      <point x="286" y="705" type="line"/>
      <point x="420" y="706"/>
      <point x="486" y="583"/>
      <point x="486" y="524" type="curve" smooth="yes"/>
      <point x="486" y="195" type="line" smooth="yes"/>
      <point x="486" y="87"/>
      <point x="408" y="37"/>
      <point x="351" y="11" type="curve"/>
      <point x="408" y="-74" type="line"/>
      <point x="360" y="-107" type="line"/>
    </contour>
  </outline>
</glyph>
<glyph name="R" format="1">
  <advance width="505"/>
  <unicode hex="0052"/>
  <outline>
    <contour>
      <point x="42" y="0" type="line"/>
      <point x="42" y="700" type="line"/>
      <point x="102" y="700" type="line"/>
      <point x="102" y="0" type="line"/>
    </contour>
    <contour>
      <point x="149" y="321" type="curve"/>
      <point x="149" y="377" type="line"/>
      <point x="230" y="377" type="line" smooth="yes"/>
      <point x="336" y="377"/>
      <point x="405" y="418"/>
      <point x="405" y="494" type="curve" smooth="yes"/>
      <point x="405" y="634"/>
      <point x="291" y="642"/>
      <point x="175" y="642" type="curve" smooth="yes"/>
      <point x="149" y="642" type="line"/>
      <point x="149" y="700" type="line"/>
      <point x="274" y="700"/>
      <point x="463" y="698"/>
      <point x="463" y="496" type="curve" smooth="yes"/>
      <point x="463" y="415"/>
      <point x="422" y="376"/>
      <point x="367" y="352" type="curve"/>
      <point x="408" y="337"/>
      <point x="456" y="291"/>
      <point x="462" y="217" type="curve" smooth="yes"/>
      <point x="479" y="0" type="line"/>
      <point x="422" y="0" type="line"/>
      <point x="407" y="178" type="line" smooth="yes"/>
      <point x="397" y="295"/>
      <point x="368" y="321"/>
    </contour>
  </outline>
</glyph>
<glyph name="S" format="1">
  <advance width="481"/>
  <unicode hex="0053"/>
  <outline>
    <contour>
      <point x="20" y="158" type="curve"/>
      <point x="75" y="177" type="line"/>
      <point x="96" y="63"/>
      <point x="207" y="53"/>
      <point x="207" y="53" type="curve"/>
      <point x="207" y="-3" type="line"/>
      <point x="93" y="-3"/>
      <point x="21" y="103"/>
    </contour>
    <contour>
      <point x="28" y="513" type="curve" smooth="yes"/>
      <point x="28" y="649"/>
      <point x="154" y="700"/>
      <point x="207" y="700" type="curve"/>
      <point x="207" y="643" type="line"/>
      <point x="177" y="642"/>
      <point x="87" y="605"/>
      <point x="87" y="509" type="curve" smooth="yes"/>
      <point x="87" y="399"/>
      <point x="256" y="396"/>
      <point x="333" y="371" type="curve" smooth="yes"/>
      <point x="400" y="348"/>
      <point x="461" y="311"/>
      <point x="461" y="204" type="curve" smooth="yes"/>
      <point x="461" y="98"/>
      <point x="368" y="-3"/>
      <point x="254" y="-3" type="curve"/>
      <point x="254" y="53" type="line"/>
      <point x="301" y="54"/>
      <point x="401" y="110"/>
      <point x="401" y="208" type="curve" smooth="yes"/>
      <point x="401" y="334"/>
      <point x="213" y="328"/>
      <point x="151" y="353" type="curve" smooth="yes"/>
      <point x="78" y="382"/>
      <point x="28" y="417"/>
    </contour>
    <contour>
      <point x="254" y="643" type="curve"/>
      <point x="254" y="700" type="line"/>
      <point x="363" y="700"/>
      <point x="425" y="594"/>
      <point x="433" y="553" type="curve"/>
      <point x="377" y="535" type="line"/>
      <point x="350" y="638"/>
      <point x="254" y="643"/>
    </contour>
  </outline>
</glyph>
<glyph name="U" format="1">
  <advance width="512"/>
  <unicode hex="0055"/>
  <outline>
    <contour>
      <point x="32" y="193" type="curve" smooth="yes"/>
      <point x="32" y="700" type="line"/>
      <point x="92" y="700" type="line"/>
      <point x="92" y="193" type="line"/>
      <point x="92" y="96"/>
      <point x="198" y="54"/>
      <point x="232" y="54" type="curve"/>
      <point x="232" y="-5" type="line"/>
      <point x="172" y="-5"/>
      <point x="32" y="49"/>
    </contour>
    <contour>
      <point x="280" y="-5" type="curve"/>
      <point x="280" y="54" type="line"/>
      <point x="315" y="54"/>
      <point x="419" y="92"/>
      <point x="419" y="193" type="curve"/>
      <point x="419" y="700" type="line"/>
      <point x="479" y="700" type="line"/>
      <point x="479" y="193" type="line" smooth="yes"/>
      <point x="479" y="48"/>
      <point x="341" y="-5"/>
    </contour>
  </outline>
</glyph>
<glyph name="V" format="1">
  <advance width="472"/>
  <unicode hex="0056"/>
  <outline>
    <contour>
      <point x="8" y="700" type="line"/>
      <point x="68" y="700" type="line"/>
      <point x="255" y="59" type="line"/>
      <point x="234" y="0" type="line"/>
      <point x="211" y="0" type="line"/>
    </contour>
    <contour>
      <point x="246" y="235" type="line"/>
      <point x="404" y="700" type="line"/>
      <point x="464" y="700" type="line"/>
      <point x="424" y="569"/>
      <point x="322" y="290"/>
      <point x="280" y="150" type="curve"/>
      <point x="270" y="150" type="line"/>
    </contour>
  </outline>
</glyph>
<glyph name="Y" format="1">
  <advance width="451"/>
  <unicode hex="0059"/>
  <outline>
    <contour>
      <point x="12" y="700" type="line"/>
      <point x="74" y="700" type="line"/>
      <point x="247" y="253" type="line"/>
      <point x="247" y="0" type="line"/>
      <point x="185" y="0" type="line"/>
      <point x="185" y="252" type="line"/>
    </contour>
    <contour>
      <point x="242" y="399" type="line"/>
      <point x="377" y="700" type="line"/>
      <point x="439" y="700" type="line"/>
      <point x="276" y="315" type="line"/>
      <point x="271" y="315" type="line"/>
    </contour>
  </outline>
</glyph>
<glyph name="bracketleft" format="1">
  <advance width="258"/>
  <unicode hex="005B"/>
  <outline>
    <contour>
      <point x="86" y="-36" type="line"/>
      <point x="86" y="739" type="line"/>
      <point x="189" y="739" type="line"/>
      <point x="189" y="687" type="line"/>
      <point x="145" y="687" type="line"/>
      <point x="142" y="16" type="line"/>
      <point x="189" y="16" type="line"/>
      <point x="189" y="-36" type="line"/>
    </contour>
  </outline>
</glyph>
<glyph name="asciicircum" format="1">
  <advance width="458"/>
  <unicode hex="005E"/>
  <outline>
    <contour>
      <point x="60" y="460" type="line"/>
      <point x="209" y="756" type="line"/>
      <point x="249" y="756" type="line"/>
      <point x="398" y="460" type="line"/>
      <point x="341" y="460" type="line"/>
      <point x="228" y="683" type="line"/>
      <point x="117" y="460" type="line"/>
    </contour>
  </outline>
</glyph>
<glyph name="grave" format="1">
  <advance width="276"/>
  <unicode hex="0060"/>
  <outline>
    <contour>
      <point x="42" y="757" type="line"/>
      <point x="99" y="757" type="line"/>
      <point x="136" y="605" type="line"/>
      <point x="95" y="605" type="line"/>
    </contour>
  </outline>
</glyph>
<glyph name="a" format="1">
  <advance width="442"/>
  <unicode hex="0061"/>
  <outline>
    <contour>
      <point x="25" y="123" type="curve" smooth="yes"/>
      <point x="25" y="170" type="line" smooth="yes"/>
      <point x="25" y="204"/>
      <point x="31" y="239"/>
      <point x="75" y="262" type="curve" smooth="yes"/>
      <point x="126" y="289"/>
      <point x="332" y="315"/>
      <point x="332" y="355" type="curve"/>
      <point x="332" y="357"/>
      <point x="332" y="371"/>
      <point x="332" y="372" type="curve" smooth="yes"/>
      <point x="332" y="439"/>
      <point x="276" y="476"/>
      <point x="230" y="476" type="curve"/>
      <point x="230" y="529" type="line"/>
      <point x="339" y="529"/>
      <point x="390" y="439"/>
      <point x="390" y="372" type="curve" smooth="yes"/>
      <point x="390" y="91" type="line" smooth="yes"/>
      <point x="390" y="83"/>
      <point x="393" y="57"/>
      <point x="417" y="57" type="curve"/>
      <point x="417" y="1" type="line"/>
      <point x="377" y="1"/>
      <point x="359" y="18"/>
      <point x="344" y="38" type="curve"/>
      <point x="319" y="14"/>
      <point x="271" y="1"/>
      <point x="230" y="1" type="curve"/>
      <point x="230" y="56" type="line"/>
      <point x="279" y="56"/>
      <point x="333" y="75"/>
      <point x="333" y="152" type="curve" smooth="yes"/>
      <point x="333" y="283" type="line"/>
      <point x="273" y="252"/>
      <point x="122" y="238"/>
      <point x="91" y="208" type="curve" smooth="yes"/>
      <point x="85" y="202"/>
      <point x="80" y="189"/>
      <point x="80" y="172" type="curve" smooth="yes"/>
      <point x="80" y="138" type="line" smooth="yes"/>
      <point x="81" y="78"/>
      <point x="130" y="56"/>
      <point x="184" y="56" type="curve"/>
      <point x="184" y="1" type="line"/>
      <point x="85" y="1"/>
      <point x="25" y="65"/>
    </contour>
    <contour>
      <point x="32" y="397" type="line"/>
      <point x="31" y="472"/>
      <point x="110" y="529"/>
      <point x="184" y="529" type="curve"/>
      <point x="184" y="474" type="line"/>
      <point x="134" y="474"/>
      <point x="85" y="436"/>
      <point x="85" y="377" type="curve"/>
    </contour>
  </outline>
</glyph>
<glyph name="b" format="1">
  <advance width="437"/>
  <unicode hex="0062"/>
  <outline>
    <contour>
      <point x="42" y="-2" type="line"/>
      <point x="42" y="700" type="line"/>
      <point x="102" y="700" type="line"/>
      <point x="102" y="-2" type="line"/>
    </contour>
    <contour>
      <point x="148" y="-2" type="line"/>
      <point x="148" y="55" type="line"/>
      <point x="250" y="55" type="line" smooth="yes"/>
      <point x="294" y="55"/>
      <point x="349" y="98"/>
      <point x="349" y="144" type="curve"/>
      <point x="349" y="379" type="line"/>
      <point x="349" y="421"/>
      <point x="300" y="468"/>
      <point x="250" y="468" type="curve" smooth="yes"/>
      <point x="148" y="468" type="line"/>
      <point x="148" y="524" type="line"/>
      <point x="251" y="524" type="line" smooth="yes"/>
      <point x="339" y="524"/>
      <point x="407" y="448"/>
      <point x="407" y="383" type="curve"/>
      <point x="407" y="142" type="line" smooth="yes"/>
      <point x="407" y="93"/>
      <point x="356" y="-2"/>
      <point x="248" y="-2" type="curve" smooth="yes"/>
    </contour>
  </outline>
</glyph>
<glyph name="c" format="1">
  <advance width="427"/>
  <unicode hex="0063"/>
  <outline>
    <contour>
      <point x="38" y="144" type="curve" smooth="yes"/>
      <point x="38" y="164"/>
      <point x="38" y="308"/>
      <point x="38" y="381" type="curve" smooth="yes"/>
      <point x="38" y="438"/>
      <point x="91" y="526"/>
      <point x="201" y="526" type="curve"/>
      <point x="201" y="470" type="line"/>
      <point x="138" y="470"/>
      <point x="97" y="416"/>
      <point x="97" y="378" type="curve" smooth="yes"/>
      <point x="97" y="144" type="line" smooth="yes"/>
      <point x="97" y="107"/>
      <point x="138" y="56"/>
      <point x="201" y="56" type="curve"/>
      <point x="201" y="0" type="line"/>
      <point x="78" y="0"/>
      <point x="38" y="96"/>
    </contour>
    <contour>
      <point x="246" y="469" type="curve"/>
      <point x="246" y="526" type="line"/>
      <point x="329" y="526"/>
      <point x="396" y="460"/>
      <point x="396" y="379" type="curve"/>
      <point x="340" y="359" type="line"/>
      <point x="340" y="363"/>
      <point x="340" y="374"/>
      <point x="340" y="378" type="curve" smooth="yes"/>
      <point x="334" y="442"/>
      <point x="286" y="469"/>
    </contour>
    <contour>
      <point x="245" y="-1" type="curve"/>
      <point x="245" y="55" type="line"/>
      <point x="297" y="55"/>
      <point x="345" y="94"/>
      <point x="351" y="150" type="curve" smooth="yes"/>
      <point x="351" y="154"/>
      <point x="352" y="164"/>
      <point x="352" y="168" type="curve"/>
      <point x="407" y="147" type="line"/>
      <point x="407" y="67"/>
      <point x="327" y="-2"/>
    </contour>
  </outline>
</glyph>
<glyph name="d" format="1">
  <advance width="436"/>
  <unicode hex="0064"/>
  <outline>
    <contour>
      <point x="30" y="142" type="curve" smooth="yes"/>
      <point x="30" y="383" type="line"/>
      <point x="30" y="448"/>
      <point x="98" y="524"/>
      <point x="186" y="524" type="curve" smooth="yes"/>
      <point x="288" y="524" type="line"/>
      <point x="288" y="468" type="line"/>
      <point x="187" y="468" type="line" smooth="yes"/>
      <point x="137" y="468"/>
      <point x="88" y="421"/>
      <point x="88" y="379" type="curve"/>
      <point x="88" y="144" type="line"/>
      <point x="88" y="98"/>
      <point x="143" y="55"/>
      <point x="187" y="55" type="curve" smooth="yes"/>
      <point x="288" y="55" type="line"/>
      <point x="288" y="-2" type="line"/>
      <point x="189" y="-2" type="line" smooth="yes"/>
      <point x="81" y="-2"/>
      <point x="30" y="93"/>
    </contour>
    <contour>
      <point x="335" y="-2" type="line"/>
      <point x="335" y="701" type="line"/>
      <point x="394" y="701" type="line"/>
      <point x="394" y="-2" type="line"/>
    </contour>
  </outline>
</glyph>
<glyph name="e" format="1">
  <advance width="455"/>
  <unicode hex="0065"/>
  <outline>
    <contour>
      <point x="38" y="144" type="curve" smooth="yes"/>
      <point x="38" y="385" type="line"/>
      <point x="39" y="434"/>
      <point x="95" y="526"/>
      <point x="204" y="526" type="curve"/>
      <point x="204" y="471" type="line"/>
      <point x="141" y="471"/>
      <point x="97" y="412"/>
      <point x="97" y="376" type="curve" smooth="yes"/>
      <point x="97" y="299" type="line"/>
      <point x="359" y="299" type="line"/>
      <point x="359" y="376" type="line" smooth="yes"/>
      <point x="359" y="430"/>
      <point x="304" y="472"/>
      <point x="251" y="472" type="curve"/>
      <point x="251" y="526" type="line"/>
      <point x="328" y="526"/>
      <point x="416" y="464"/>
      <point x="416" y="386" type="curve" smooth="yes"/>
      <point x="416" y="243" type="line"/>
      <point x="97" y="243" type="line"/>
      <point x="97" y="144" type="line" smooth="yes"/>
      <point x="97" y="112"/>
      <point x="144" y="55"/>
      <point x="205" y="55" type="curve"/>
      <point x="205" y="0" type="line"/>
      <point x="96" y="0"/>
      <point x="38" y="95"/>
    </contour>
    <contour>
      <point x="251" y="0" type="curve"/>
      <point x="251" y="57" type="line"/>
      <point x="316" y="57"/>
      <point x="356" y="107"/>
      <point x="364" y="142" type="curve"/>
      <point x="417" y="122" type="line"/>
      <point x="399" y="58"/>
      <point x="340" y="0"/>
    </contour>
  </outline>
</glyph>
<glyph name="f" format="1">
  <advance width="231"/>
  <unicode hex="0066"/>
  <outline>
    <contour>
      <point x="15" y="429" type="line"/>
      <point x="15" y="485" type="line"/>
      <point x="79" y="485" type="line"/>
      <point x="79" y="553" type="line" smooth="yes"/>
      <point x="79" y="599"/>
      <point x="101" y="700"/>
      <point x="208" y="700" type="curve" smooth="yes"/>
      <point x="231" y="700" type="line"/>
      <point x="217" y="644" type="line"/>
      <point x="206" y="644" type="line" smooth="yes"/>
      <point x="148" y="642"/>
      <point x="138" y="592"/>
      <point x="138" y="553" type="curve" smooth="yes"/>
      <point x="138" y="484" type="line"/>
      <point x="203" y="485" type="line"/>
      <point x="203" y="429" type="line"/>
      <point x="138" y="429" type="line"/>
      <point x="138" y="-2" type="line"/>
      <point x="79" y="-2" type="line"/>
      <point x="79" y="429" type="line"/>
    </contour>
  </outline>
</glyph>
<glyph name="g" format="1">
  <advance width="426"/>
  <unicode hex="0067"/>
  <outline>
    <contour>
      <point x="20" y="-183" type="line"/>
      <point x="35" y="-128" type="line"/>
      <point x="219" y="-128" type="line"/>
      <point x="292" y="-125"/>
      <point x="333" y="-73"/>
      <point x="333" y="-39" type="curve" smooth="yes"/>
      <point x="333" y="46" type="line"/>
      <point x="322" y="33"/>
      <point x="285" y="2"/>
      <point x="232" y="1" type="curve"/>
      <point x="232" y="54" type="line"/>
      <point x="280" y="54"/>
      <point x="333" y="100"/>
      <point x="333" y="144" type="curve" smooth="yes"/>
      <point x="333" y="383" type="line" smooth="yes"/>
      <point x="333" y="441"/>
      <point x="271" y="473"/>
      <point x="232" y="473" type="curve"/>
      <point x="232" y="528" type="line"/>
      <point x="276" y="528"/>
      <point x="319" y="502"/>
      <point x="333" y="486" type="curve"/>
      <point x="333" y="528" type="line"/>
      <point x="390" y="528" type="line"/>
      <point x="390" y="-39" type="line" smooth="yes"/>
      <point x="390" y="-83"/>
      <point x="339" y="-182"/>
      <point x="234" y="-183" type="curve"/>
    </contour>
    <contour>
      <point x="29" y="144" type="curve" smooth="yes"/>
      <point x="29" y="387" type="line"/>
      <point x="30" y="434"/>
      <point x="79" y="528"/>
      <point x="187" y="528" type="curve"/>
      <point x="187" y="473" type="line"/>
      <point x="128" y="473"/>
      <point x="86" y="417"/>
      <point x="86" y="384" type="curve" smooth="yes"/>
      <point x="86" y="145" type="line" smooth="yes"/>
      <point x="86" y="112"/>
      <point x="126" y="56"/>
      <point x="187" y="56" type="curve"/>
      <point x="187" y="1" type="line"/>
      <point x="76" y="2"/>
      <point x="29" y="98"/>
    </contour>
  </outline>
</glyph>
<glyph name="h" format="1">
  <advance width="444"/>
  <unicode hex="0068"/>
  <outline>
    <contour>
      <point x="42" y="-1" type="line"/>
      <point x="42" y="700" type="line"/>
      <point x="98" y="700" type="line"/>
      <point x="98" y="472" type="line"/>
      <point x="115" y="493"/>
      <point x="151" y="519"/>
      <point x="208" y="519" type="curve"/>
      <point x="208" y="464" type="line"/>
      <point x="154" y="464"/>
      <point x="99" y="415"/>
      <point x="99" y="370" type="curve" smooth="yes"/>
      <point x="99" y="-1" type="line"/>
    </contour>
    <contour>
      <point x="254" y="464" type="curve"/>
      <point x="254" y="519" type="line"/>
      <point x="355" y="519"/>
      <point x="414" y="450"/>
      <point x="414" y="380" type="curve" smooth="yes"/>
      <point x="414" y="-1" type="line"/>
      <point x="357" y="-1" type="line"/>
      <point x="357" y="370" type="line" smooth="yes"/>
      <point x="357" y="414"/>
      <point x="326" y="464"/>
    </contour>
  </outline>
</glyph>
<glyph name="i" format="1">
  <advance width="160"/>
  <unicode hex="0069"/>
  <outline>
    <contour>
      <point x="44" y="597" type="curve" smooth="yes"/>
      <point x="44" y="616"/>
      <point x="61" y="633"/>
      <point x="81" y="633" type="curve" smooth="yes"/>
      <point x="100" y="633"/>
      <point x="117" y="616"/>
      <point x="117" y="597" type="curve" smooth="yes"/>
      <point x="117" y="577"/>
      <point x="100" y="561"/>
      <point x="81" y="561" type="curve" smooth="yes"/>
      <point x="61" y="561"/>
      <point x="44" y="577"/>
    </contour>
    <contour>
      <point x="51" y="-2" type="line"/>
      <point x="51" y="521" type="line"/>
      <point x="110" y="521" type="line"/>
      <point x="110" y="-2" type="line"/>
    </contour>
  </outline>
</glyph>
<glyph name="j" format="1">
  <advance width="209"/>
  <unicode hex="006A"/>
  <outline>
    <contour>
      <point x="-42" y="-185" type="line"/>
      <point x="-29" y="-129" type="line"/>
      <point x="-14" y="-129" type="line"/>
      <point x="36" y="-126"/>
      <point x="79" y="-77"/>
      <point x="79" y="-36" type="curve" smooth="yes"/>
      <point x="79" y="520" type="line"/>
      <point x="138" y="520" type="line"/>
      <point x="138" y="-36" type="line" smooth="yes"/>
      <point x="138" y="-84"/>
      <point x="88" y="-185"/>
      <point x="-16" y="-185" type="curve" smooth="yes"/>
    </contour>
    <contour>
      <point x="73" y="599" type="curve" smooth="yes"/>
      <point x="73" y="619"/>
      <point x="90" y="635"/>
      <point x="110" y="635" type="curve" smooth="yes"/>
      <point x="129" y="635"/>
      <point x="146" y="619"/>
      <point x="146" y="599" type="curve" smooth="yes"/>
      <point x="146" y="579"/>
      <point x="129" y="563"/>
      <point x="110" y="563" type="curve" smooth="yes"/>
      <point x="90" y="563"/>
      <point x="73" y="579"/>
    </contour>
  </outline>
</glyph>
<glyph name="k" format="1">
  <advance width="468"/>
  <unicode hex="006B"/>
  <outline>
    <contour>
      <point x="42" y="-2" type="line"/>
      <point x="42" y="700" type="line"/>
      <point x="102" y="700" type="line"/>
      <point x="102" y="-2" type="line"/>
    </contour>
    <contour>
      <point x="125" y="260" type="line"/>
      <point x="371" y="522" type="line"/>
      <point x="448" y="522" type="line"/>
      <point x="202" y="260" type="line"/>
      <point x="448" y="-2" type="line"/>
      <point x="371" y="-2" type="line"/>
    </contour>
  </outline>
</glyph>
<glyph name="m" format="1">
  <advance width="712"/>
  <unicode hex="006D"/>
  <outline>
    <contour>
      <point x="38" y="0" type="line"/>
      <point x="38" y="385" type="line" smooth="yes"/>
      <point x="38" y="437"/>
      <point x="74" y="529"/>
      <point x="189" y="529" type="curve"/>
      <point x="189" y="472" type="line"/>
      <point x="130" y="472"/>
      <point x="97" y="428"/>
      <point x="97" y="377" type="curve" smooth="yes"/>
      <point x="97" y="0" type="line"/>
    </contour>
    <contour>
      <point x="233" y="472" type="curve"/>
      <point x="233" y="529" type="line"/>
      <point x="301" y="529"/>
      <point x="331" y="503"/>
      <point x="356" y="467" type="curve"/>
      <point x="381" y="504"/>
      <point x="411" y="529"/>
      <point x="478" y="529" type="curve"/>
      <point x="478" y="472" type="line"/>
      <point x="420" y="472"/>
      <point x="386" y="429"/>
      <point x="386" y="377" type="curve"/>
      <point x="386" y="0" type="line"/>
      <point x="327" y="0" type="line"/>
      <point x="327" y="377" type="line" smooth="yes"/>
      <point x="327" y="429"/>
      <point x="291" y="472"/>
    </contour>
    <contour>
      <point x="523" y="472" type="curve"/>
      <point x="523" y="529" type="line"/>
      <point x="635" y="529"/>
      <point x="674" y="434"/>
      <point x="674" y="385" type="curve" smooth="yes"/>
      <point x="674" y="0" type="line"/>
      <point x="615" y="0" type="line"/>
      <point x="615" y="377" type="line" smooth="yes"/>
      <point x="615" y="431"/>
      <point x="580" y="472"/>
    </contour>
  </outline>
</glyph>
<glyph name="n" format="1">
  <advance width="457"/>
  <unicode hex="006E"/>
  <outline>
    <contour>
      <point x="38" y="0" type="line"/>
      <point x="38" y="385" type="line" smooth="yes"/>
      <point x="38" y="437"/>
      <point x="95" y="529"/>
      <point x="207" y="529" type="curve"/>
      <point x="207" y="471" type="line"/>
      <point x="150" y="471"/>
      <point x="97" y="424"/>
      <point x="97" y="377" type="curve" smooth="yes"/>
      <point x="97" y="0" type="line"/>
    </contour>
    <contour>
      <point x="250" y="471" type="curve"/>
      <point x="250" y="529" type="line"/>
      <point x="362" y="529"/>
      <point x="419" y="434"/>
      <point x="419" y="385" type="curve" smooth="yes"/>
      <point x="419" y="0" type="line"/>
      <point x="360" y="0" type="line"/>
      <point x="360" y="377" type="line" smooth="yes"/>
      <point x="360" y="408"/>
      <point x="323" y="471"/>
    </contour>
  </outline>
</glyph>
<glyph name="o" format="1">
  <advance width="447"/>
  <unicode hex="006F"/>
  <outline>
    <contour>
      <point x="38" y="144" type="curve" smooth="yes"/>
      <point x="38" y="384" type="line" smooth="yes"/>
      <point x="38" y="433"/>
      <point x="93" y="526"/>
      <point x="205" y="526" type="curve"/>
      <point x="205" y="470" type="line"/>
      <point x="133" y="470"/>
      <point x="96" y="411"/>
      <point x="96" y="370" type="curve" smooth="yes"/>
      <point x="96" y="157" type="line" smooth="yes"/>
      <point x="96" y="118"/>
      <point x="140" y="55"/>
      <point x="205" y="55" type="curve"/>
      <point x="205" y="-1" type="line"/>
      <point x="91" y="-1"/>
      <point x="38" y="95"/>
    </contour>
    <contour>
      <point x="247" y="-1" type="curve"/>
      <point x="247" y="55" type="line"/>
      <point x="315" y="55"/>
      <point x="352" y="117"/>
      <point x="352" y="155" type="curve" smooth="yes"/>
      <point x="352" y="370" type="line" smooth="yes"/>
      <point x="352" y="411"/>
      <point x="314" y="470"/>
      <point x="247" y="470" type="curve"/>
      <point x="247" y="526" type="line"/>
      <point x="357" y="526"/>
      <point x="409" y="433"/>
      <point x="409" y="384" type="curve" smooth="yes"/>
      <point x="409" y="144" type="line" smooth="yes"/>
      <point x="409" y="94"/>
      <point x="357" y="-1"/>
    </contour>
  </outline>
</glyph>
<glyph name="p" format="1">
  <advance width="451"/>
  <unicode hex="0070"/>
  <outline>
    <contour>
      <point x="42" y="-184" type="line"/>
      <point x="42" y="528" type="line"/>
      <point x="102" y="528" type="line"/>
      <point x="102" y="-184" type="line"/>
    </contour>
    <contour>
      <point x="147" y="472" type="line"/>
      <point x="147" y="528" type="line"/>
      <point x="240" y="528" type="line" smooth="yes"/>
      <point x="358" y="528"/>
      <point x="415" y="438"/>
      <point x="415" y="384" type="curve" smooth="yes"/>
      <point x="415" y="144" type="line"/>
      <point x="415" y="90"/>
      <point x="363" y="2"/>
      <point x="247" y="2" type="curve" smooth="yes"/>
      <point x="154" y="2" type="line"/>
      <point x="154" y="58" type="line"/>
      <point x="249" y="58" type="line" smooth="yes"/>
      <point x="320" y="58"/>
      <point x="357" y="105"/>
      <point x="357" y="148" type="curve" smooth="yes"/>
      <point x="357" y="381" type="line"/>
      <point x="357" y="417"/>
      <point x="315" y="472"/>
      <point x="240" y="472" type="curve" smooth="yes"/>
    </contour>
  </outline>
</glyph>
<glyph name="q" format="1">
  <advance width="446"/>
  <unicode hex="0071"/>
  <outline>
    <contour>
      <point x="38" y="144" type="curve"/>
      <point x="38" y="384" type="line" smooth="yes"/>
      <point x="38" y="436"/>
      <point x="87" y="528"/>
      <point x="205" y="528" type="curve" smooth="yes"/>
      <point x="298" y="528" type="line"/>
      <point x="298" y="472" type="line"/>
      <point x="205" y="472" type="line" smooth="yes"/>
      <point x="129" y="472"/>
      <point x="96" y="415"/>
      <point x="96" y="381" type="curve"/>
      <point x="96" y="148" type="line" smooth="yes"/>
      <point x="96" y="106"/>
      <point x="133" y="58"/>
      <point x="204" y="58" type="curve" smooth="yes"/>
      <point x="293" y="58" type="line"/>
      <point x="293" y="2" type="line"/>
      <point x="206" y="2" type="line" smooth="yes"/>
      <point x="91" y="2"/>
      <point x="38" y="91"/>
    </contour>
    <contour>
      <point x="344" y="-184" type="line"/>
      <point x="344" y="528" type="line"/>
      <point x="403" y="528" type="line"/>
      <point x="404" y="-184" type="line"/>
    </contour>
  </outline>
</glyph>
<glyph name="r" format="1">
  <advance width="251"/>
  <unicode hex="0072"/>
  <outline>
    <contour>
      <point x="42" y="0" type="line"/>
      <point x="42" y="526" type="line"/>
      <point x="101" y="526" type="line"/>
      <point x="101" y="445" type="line"/>
      <point x="116" y="477"/>
      <point x="164" y="526"/>
      <point x="233" y="526" type="curve" smooth="yes"/>
      <point x="241" y="526" type="line"/>
      <point x="226" y="469" type="line"/>
      <point x="164" y="469"/>
      <point x="101" y="385"/>
      <point x="101" y="306" type="curve" smooth="yes"/>
      <point x="101" y="0" type="line"/>
    </contour>
  </outline>
</glyph>
<glyph name="s" format="1">
  <advance width="423"/>
  <unicode hex="0073"/>
  <outline>
    <contour>
      <point x="20" y="139" type="curve"/>
      <point x="76" y="149" type="line"/>
      <point x="76" y="92"/>
      <point x="139" y="51"/>
      <point x="186" y="51" type="curve"/>
      <point x="186" y="-5" type="line"/>
      <point x="82" y="-5"/>
      <point x="20" y="72"/>
    </contour>
    <contour>
      <point x="24" y="374" type="curve" smooth="yes"/>
      <point x="24" y="482"/>
      <point x="121" y="527"/>
      <point x="184" y="527" type="curve"/>
      <point x="184" y="472" type="line"/>
      <point x="138" y="472"/>
      <point x="81" y="432"/>
      <point x="81" y="374" type="curve" smooth="yes"/>
      <point x="81" y="321"/>
      <point x="148" y="313"/>
      <point x="291" y="278" type="curve" smooth="yes"/>
      <point x="328" y="269"/>
      <point x="403" y="241"/>
      <point x="403" y="158" type="curve" smooth="yes"/>
      <point x="403" y="58"/>
      <point x="324" y="-5"/>
      <point x="227" y="-5" type="curve"/>
      <point x="227" y="50" type="line"/>
      <point x="274" y="50"/>
      <point x="345" y="85"/>
      <point x="345" y="156" type="curve" smooth="yes"/>
      <point x="345" y="222"/>
      <point x="225" y="233"/>
      <point x="122" y="261" type="curve" smooth="yes"/>
      <point x="87" y="272"/>
      <point x="24" y="294"/>
    </contour>
    <contour>
      <point x="226" y="471" type="curve"/>
      <point x="226" y="527" type="line"/>
      <point x="325" y="527"/>
      <point x="394" y="450"/>
      <point x="394" y="382" type="curve"/>
      <point x="338" y="373" type="line"/>
      <point x="338" y="442"/>
      <point x="261" y="471"/>
    </contour>
  </outline>
</glyph>
<glyph name="t" format="1">
  <advance width="260"/>
  <unicode hex="0074"/>
  <outline>
    <contour>
      <point x="15" y="436" type="line"/>
      <point x="15" y="493" type="line"/>
      <point x="79" y="493" type="line"/>
      <point x="79" y="701" type="line"/>
      <point x="138" y="701" type="line"/>
      <point x="138" y="493" type="line"/>
      <point x="202" y="493" type="line"/>
      <point x="202" y="436" type="line"/>
      <point x="138" y="436" type="line"/>
      <point x="138" y="160" type="line" smooth="yes"/>
      <point x="138" y="96"/>
      <point x="159" y="56"/>
      <point x="241" y="56" type="curve" smooth="yes"/>
      <point x="247" y="56" type="line"/>
      <point x="260" y="-2" type="line"/>
      <point x="236" y="-2" type="line" smooth="yes"/>
      <point x="112" y="-1"/>
      <point x="79" y="65"/>
      <point x="79" y="170" type="curve" smooth="yes"/>
      <point x="79" y="436" type="line"/>
    </contour>
  </outline>
</glyph>
<glyph name="u" format="1">
  <advance width="457"/>
  <unicode hex="0075"/>
  <outline>
    <contour>
      <point x="38" y="140" type="curve" smooth="yes"/>
      <point x="38" y="524" type="line"/>
      <point x="97" y="524" type="line"/>
      <point x="97" y="147" type="line" smooth="yes"/>
      <point x="97" y="106"/>
      <point x="144" y="54"/>
      <point x="207" y="54" type="curve"/>
      <point x="207" y="-5" type="line"/>
      <point x="93" y="-5"/>
      <point x="38" y="88"/>
    </contour>
    <contour>
      <point x="250" y="-5" type="curve"/>
      <point x="250" y="54" type="line"/>
      <point x="315" y="54"/>
      <point x="360" y="105"/>
      <point x="360" y="147" type="curve" smooth="yes"/>
      <point x="360" y="524" type="line"/>
      <point x="419" y="524" type="line"/>
      <point x="419" y="140" type="line" smooth="yes"/>
      <point x="419" y="91"/>
      <point x="364" y="-5"/>
    </contour>
  </outline>
</glyph>
<glyph name="v" format="1">
  <advance width="408"/>
  <unicode hex="0076"/>
  <outline>
    <contour>
      <point x="8" y="525" type="line"/>
      <point x="74" y="526" type="line"/>
      <point x="236" y="51" type="line"/>
      <point x="218" y="0" type="line"/>
      <point x="187" y="0" type="line"/>
    </contour>
    <contour>
      <point x="219" y="199" type="line"/>
      <point x="335" y="526" type="line"/>
      <point x="400" y="525" type="line"/>
      <point x="259" y="119" type="line"/>
      <point x="246" y="119" type="line"/>
    </contour>
  </outline>
</glyph>
<glyph name="x" format="1">
  <advance width="386"/>
  <unicode hex="0078"/>
  <outline>
    <contour>
      <point x="8" y="0" type="line"/>
      <point x="159" y="267" type="line"/>
      <point x="13" y="526" type="line"/>
      <point x="72" y="526" type="line"/>
      <point x="194" y="322" type="line"/>
      <point x="315" y="525" type="line"/>
      <point x="374" y="525" type="line"/>
      <point x="229" y="267" type="line"/>
      <point x="378" y="0" type="line"/>
      <point x="320" y="0" type="line"/>
      <point x="194" y="213" type="line"/>
      <point x="67" y="0" type="line"/>
    </contour>
  </outline>
</glyph>
<glyph name="y" format="1">
  <advance width="398"/>
  <unicode hex="0079"/>
  <outline>
    <contour>
      <point x="4" y="527" type="line"/>
      <point x="64" y="527" type="line"/>
      <point x="226" y="115" type="line"/>
      <point x="127" y="-184" type="line"/>
      <point x="68" y="-184" type="line"/>
      <point x="165" y="115" type="line"/>
    </contour>
    <contour>
      <point x="218" y="246" type="line"/>
      <point x="334" y="527" type="line"/>
      <point x="394" y="527" type="line"/>
      <point x="250" y="172" type="line"/>
      <point x="244" y="172" type="line"/>
    </contour>
  </outline>
</glyph>
<glyph name="z" format="1">
  <advance width="362"/>
  <unicode hex="007A"/>
  <outline>
    <contour>
      <point x="30" y="0" type="line"/>
      <point x="31" y="55" type="line"/>
      <point x="268" y="467" type="line"/>
      <point x="30" y="467" type="line"/>
      <point x="30" y="524" type="line"/>
      <point x="332" y="524" type="line"/>
      <point x="332" y="474" type="line"/>
      <point x="95" y="56" type="line"/>
      <point x="332" y="56" type="line"/>
      <point x="332" y="0" type="line"/>
    </contour>
  </outline>
</glyph>
<glyph name="braceleft" format="1">
  <advance width="234"/>
  <unicode hex="007B"/>
  <outline>
    <contour>
      <point x="15" y="348" type="curve"/>
      <point x="51" y="363"/>
      <point x="76" y="370"/>
      <point x="77" y="408" type="curve" smooth="yes"/>
      <point x="77" y="546" type="line" smooth="yes"/>
      <point x="77" y="708"/>
      <point x="125" y="735"/>
      <point x="214" y="735" type="curve"/>
      <point x="214" y="688" type="line"/>
      <point x="142" y="688"/>
      <point x="135" y="665"/>
      <point x="134" y="469" type="curve"/>
      <point x="134" y="383" type="line" smooth="yes"/>
      <point x="134" y="366"/>
      <point x="126" y="354"/>
      <point x="102" y="348" type="curve"/>
      <point x="127" y="340"/>
      <point x="134" y="325"/>
      <point x="134" y="304" type="curve" smooth="yes"/>
      <point x="134" y="207" type="line"/>
      <point x="134" y="25"/>
      <point x="167" y="9"/>
      <point x="214" y="9" type="curve"/>
      <point x="214" y="-38" type="line"/>
      <point x="128" y="-38"/>
      <point x="77" y="-4"/>
      <point x="77" y="149" type="curve" smooth="yes"/>
      <point x="77" y="290" type="line" smooth="yes"/>
      <point x="77" y="322"/>
      <point x="51" y="329"/>
    </contour>
  </outline>
</glyph>
<glyph name="braceright" format="1">
  <advance width="234"/>
  <unicode hex="007D"/>
  <outline>
    <contour>
      <point x="20" y="-38" type="curve"/>
      <point x="20" y="9" type="line"/>
      <point x="67" y="9"/>
      <point x="99" y="25"/>
      <point x="99" y="207" type="curve"/>
      <point x="99" y="304" type="line" smooth="yes"/>
      <point x="99" y="325"/>
      <point x="107" y="340"/>
      <point x="132" y="348" type="curve"/>
      <point x="108" y="354"/>
      <point x="99" y="366"/>
      <point x="99" y="383" type="curve" smooth="yes"/>
      <point x="99" y="469" type="line"/>
      <point x="99" y="665"/>
      <point x="91" y="688"/>
      <point x="20" y="688" type="curve"/>
      <point x="20" y="735" type="line"/>
      <point x="108" y="735"/>
      <point x="157" y="708"/>
      <point x="157" y="546" type="curve" smooth="yes"/>
      <point x="157" y="408" type="line" smooth="yes"/>
      <point x="158" y="370"/>
      <point x="183" y="363"/>
      <point x="219" y="348" type="curve"/>
      <point x="183" y="329"/>
      <point x="157" y="322"/>
      <point x="157" y="290" type="curve" smooth="yes"/>
      <point x="157" y="149" type="line" smooth="yes"/>
      <point x="157" y="-2"/>
      <point x="106" y="-38"/>
    </contour>
  </outline>
</glyph>
<glyph name="asciitilde" format="1">
  <advance width="628"/>
  <unicode hex="007E"/>
  <outline>
    <contour>
      <point x="80" y="310" type="curve"/>
      <point x="80" y="367" type="line"/>
      <point x="125" y="393"/>
      <point x="162" y="402"/>
      <point x="193" y="402" type="curve" smooth="yes"/>
      <point x="280" y="402"/>
      <point x="329" y="329"/>
      <point x="417" y="329" type="curve" smooth="yes"/>
      <point x="452" y="329"/>
      <point x="494" y="341"/>
      <point x="548" y="374" type="curve"/>
      <point x="548" y="319" type="line"/>
      <point x="492" y="285"/>
      <point x="448" y="273"/>
      <point x="411" y="273" type="curve" smooth="yes"/>
      <point x="319" y="273"/>
      <point x="269" y="346"/>
      <point x="187" y="346" type="curve" smooth="yes"/>
      <point x="157" y="346"/>
      <point x="122" y="337"/>
    </contour>
  </outline>
</glyph>
<glyph name="exclamdown" format="1">
  <advance width="159"/>
  <unicode hex="00A1"/>
  <outline>
    <contour>
      <point x="20" y="490" type="curve" smooth="yes"/>
      <point x="20" y="511"/>
      <point x="38" y="528"/>
      <point x="59" y="528" type="curve" smooth="yes"/>
      <point x="80" y="528"/>
      <point x="96" y="511"/>
      <point x="96" y="490" type="curve" smooth="yes"/>
      <point x="96" y="470"/>
      <point x="80" y="453"/>
      <point x="59" y="453" type="curve" smooth="yes"/>
      <point x="38" y="453"/>
      <point x="20" y="470"/>
    </contour>
    <contour>
      <point x="30" y="-115" type="line"/>
      <point x="30" y="411" type="line"/>
      <point x="88" y="411" type="line"/>
      <point x="88" y="-115" type="line"/>
    </contour>
  </outline>
</glyph>
<glyph name="cent" format="1">
  <advance width="427"/>
  <unicode hex="00A2"/>
  <outline>
    <contour>
      <point x="246" y="25" type="line"/>
      <point x="274" y="25" type="line"/>
      <point x="274" y="-68" type="line"/>
      <point x="246" y="-68" type="line"/>
    </contour>
    <contour>
      <point x="173" y="25" type="line"/>
      <point x="201" y="25" type="line"/>
      <point x="201" y="-68" type="line"/>
      <point x="173" y="-68" type="line"/>
    </contour>
    <contour>
      <point x="246" y="594" type="line"/>
      <point x="274" y="594" type="line"/>
      <point x="274" y="501" type="line"/>
      <point x="246" y="501" type="line"/>
    </contour>
    <contour>
      <point x="173" y="594" type="line"/>
      <point x="201" y="594" type="line"/>
      <point x="201" y="501" type="line"/>
      <point x="173" y="501" type="line"/>
    </contour>
    <contour>
      <point x="38" y="144" type="curve" smooth="yes"/>
      <point x="38" y="164"/>
      <point x="38" y="308"/>
      <point x="38" y="381" type="curve" smooth="yes"/>
      <point x="38" y="438"/>
      <point x="92" y="526"/>
      <point x="201" y="526" type="curve"/>
      <point x="201" y="470" type="line"/>
      <point x="137" y="470"/>
      <point x="97" y="415"/>
      <point x="97" y="375" type="curve" smooth="yes"/>
      <point x="97" y="146" type="line" smooth="yes"/>
      <point x="97" y="110"/>
      <point x="139" y="56"/>
      <point x="201" y="56" type="curve"/>
      <point x="201" y="0" type="line"/>
      <point x="79" y="0"/>
      <point x="38" y="96"/>
    </contour>
    <contour>
      <point x="246" y="469" type="curve"/>
      <point x="246" y="526" type="line"/>
      <point x="328" y="526"/>
      <point x="396" y="460"/>
      <point x="396" y="379" type="curve"/>
      <point x="340" y="359" type="line"/>
      <point x="340" y="362"/>
      <point x="340" y="373"/>
      <point x="340" y="376" type="curve" smooth="yes"/>
      <point x="335" y="440"/>
      <point x="286" y="469"/>
    </contour>
    <contour>
      <point x="246" y="-1" type="curve"/>
      <point x="246" y="55" type="line"/>
      <point x="295" y="55"/>
      <point x="343" y="92"/>
      <point x="350" y="147" type="curve" smooth="yes"/>
      <point x="351" y="152"/>
      <point x="352" y="163"/>
      <point x="352" y="168" type="curve"/>
      <point x="407" y="147" type="line"/>
      <point x="407" y="66"/>
      <point x="327" y="-1"/>
    </contour>
  </outline>
</glyph>
<glyph name="sterling" format="1">
  <advance width="390"/>
  <unicode hex="00A3"/>
  <outline>
    <contour>
      <point x="20" y="315" type="line"/>
      <point x="20" y="367" type="line"/>
      <point x="81" y="367" type="line"/>
      <point x="81" y="545" type="line" smooth="yes"/>
      <point x="81" y="627"/>
      <point x="129" y="704"/>
      <point x="229" y="704" type="curve" smooth="yes"/>
      <point x="231" y="704" type="line" smooth="yes"/>
      <point x="255" y="704"/>
      <point x="274" y="700"/>
      <point x="292" y="693" type="curve"/>
      <point x="331" y="678"/>
      <point x="355" y="648"/>
      <point x="368" y="617" type="curve"/>
      <point x="320" y="594" type="line"/>
      <point x="304" y="621"/>
      <point x="278" y="648"/>
      <point x="235" y="648" type="curve" smooth="yes"/>
      <point x="181" y="648"/>
      <point x="139" y="611"/>
      <point x="139" y="548" type="curve" smooth="yes"/>
      <point x="139" y="369" type="line"/>
      <point x="284" y="369" type="line"/>
      <point x="284" y="317" type="line"/>
      <point x="139" y="317" type="line"/>
      <point x="139" y="52" type="line"/>
      <point x="368" y="52" type="line"/>
      <point x="368" y="0" type="line"/>
      <point x="81" y="0" type="line"/>
      <point x="81" y="315" type="line"/>
    </contour>
  </outline>
</glyph>
<glyph name="currency" format="1">
  <advance width="608"/>
  <unicode hex="00A4"/>
  <outline>
    <contour>
      <point x="40" y="169" type="line"/>
      <point x="122" y="244" type="line"/>
      <point x="118" y="255"/>
      <point x="116" y="268"/>
      <point x="116" y="277" type="curve" smooth="yes"/>
      <point x="116" y="453" type="line" smooth="yes"/>
      <point x="116" y="462"/>
      <point x="118" y="476"/>
      <point x="123" y="487" type="curve"/>
      <point x="40" y="562" type="line"/>
      <point x="74" y="601" type="line"/>
      <point x="149" y="535" type="line"/>
      <point x="175" y="568"/>
      <point x="219" y="596"/>
      <point x="280" y="596" type="curve"/>
      <point x="280" y="542" type="line"/>
      <point x="209" y="542"/>
      <point x="172" y="484"/>
      <point x="172" y="443" type="curve" smooth="yes"/>
      <point x="172" y="287" type="line" smooth="yes"/>
      <point x="172" y="248"/>
      <point x="215" y="186"/>
      <point x="280" y="186" type="curve"/>
      <point x="280" y="132" type="line"/>
      <point x="218" y="132"/>
      <point x="175" y="162"/>
      <point x="149" y="196" type="curve"/>
      <point x="74" y="130" type="line"/>
    </contour>
    <contour>
      <point x="321" y="132" type="curve"/>
      <point x="321" y="186" type="line"/>
      <point x="388" y="186"/>
      <point x="425" y="247"/>
      <point x="425" y="285" type="curve" smooth="yes"/>
      <point x="425" y="443" type="line" smooth="yes"/>
      <point x="425" y="482"/>
      <point x="387" y="542"/>
      <point x="321" y="542" type="curve"/>
      <point x="321" y="596" type="line"/>
      <point x="381" y="596"/>
      <point x="423" y="568"/>
      <point x="448" y="534" type="curve"/>
      <point x="523" y="601" type="line"/>
      <point x="558" y="562" type="line"/>
      <point x="474" y="486" type="line"/>
      <point x="478" y="475"/>
      <point x="480" y="462"/>
      <point x="480" y="453" type="curve" smooth="yes"/>
      <point x="480" y="277" type="line" smooth="yes"/>
      <point x="480" y="268"/>
      <point x="478" y="255"/>
      <point x="474" y="244" type="curve"/>
      <point x="557" y="169" type="line"/>
      <point x="522" y="130" type="line"/>
      <point x="448" y="196" type="line"/>
      <point x="423" y="162"/>
      <point x="381" y="132"/>
    </contour>
  </outline>
</glyph>
<glyph name="yen" format="1">
  <advance width="451"/>
  <unicode hex="00A5"/>
  <outline>
    <contour>
      <point x="20" y="209" type="line"/>
      <point x="437" y="209" type="line"/>
      <point x="437" y="170" type="line"/>
      <point x="20" y="170" type="line"/>
    </contour>
    <contour>
      <point x="20" y="303" type="line"/>
      <point x="437" y="303" type="line"/>
      <point x="437" y="264" type="line"/>
      <point x="20" y="264" type="line"/>
    </contour>
    <contour>
      <point x="199" y="0" type="line"/>
      <point x="199" y="278" type="line"/>
      <point x="53" y="698" type="line"/>
      <point x="113" y="698" type="line"/>
      <point x="229" y="371" type="line"/>
      <point x="343" y="698" type="line"/>
      <point x="403" y="698" type="line"/>
      <point x="258" y="278" type="line"/>
      <point x="258" y="0" type="line"/>
    </contour>
  </outline>
</glyph>
<glyph name="brokenbar" format="1">
  <advance width="148"/>
  <unicode hex="00A6"/>
  <outline>
    <contour>
      <point x="42" y="-134" type="line"/>
      <point x="42" y="221" type="line"/>
      <point x="98" y="221" type="line"/>
      <point x="98" y="-134" type="line"/>
    </contour>
    <contour>
      <point x="42" y="399" type="line"/>
      <point x="42" y="754" type="line"/>
      <point x="98" y="754" type="line"/>
      <point x="98" y="399" type="line"/>
    </contour>
  </outline>
</glyph>
<glyph name="section" format="1">
  <advance width="602"/>
  <unicode hex="00A7"/>
  <outline>
    <contour>
      <point x="54" y="355" type="curve" smooth="yes"/>
      <point x="54" y="424"/>
      <point x="87" y="473"/>
      <point x="128" y="503" type="curve"/>
      <point x="120" y="522"/>
      <point x="115" y="545"/>
      <point x="115" y="575" type="curve" smooth="yes"/>
      <point x="115" y="718"/>
      <point x="233" y="760"/>
      <point x="303" y="760" type="curve" smooth="yes"/>
      <point x="404" y="760" type="line"/>
      <point x="404" y="703" type="line"/>
      <point x="328" y="703" type="line" smooth="yes"/>
      <point x="222" y="702"/>
      <point x="173" y="652"/>
      <point x="173" y="578" type="curve" smooth="yes"/>
      <point x="173" y="519"/>
      <point x="222" y="490"/>
      <point x="277" y="473" type="curve"/>
      <point x="277" y="404" type="line"/>
      <point x="262" y="407"/>
      <point x="248" y="411"/>
      <point x="238" y="415" type="curve" smooth="yes"/>
      <point x="208" y="426"/>
      <point x="183" y="438"/>
      <point x="165" y="456" type="curve"/>
      <point x="138" y="435"/>
      <point x="114" y="402"/>
      <point x="114" y="351" type="curve" smooth="yes"/>
      <point x="114" y="272"/>
      <point x="201" y="248"/>
      <point x="277" y="233" type="curve"/>
      <point x="277" y="171" type="line"/>
      <point x="238" y="180"/>
      <point x="201" y="185"/>
      <point x="178" y="195" type="curve" smooth="yes"/>
      <point x="107" y="224"/>
      <point x="54" y="260"/>
    </contour>
    <contour>
      <point x="197" y="-79" type="line"/>
      <point x="270" y="-79" type="line" smooth="yes"/>
      <point x="365" y="-80"/>
      <point x="429" y="-34"/>
      <point x="429" y="50" type="curve" smooth="yes"/>
      <point x="429" y="114"/>
      <point x="379" y="142"/>
      <point x="324" y="158" type="curve"/>
      <point x="324" y="222" type="line"/>
      <point x="337" y="220"/>
      <point x="350" y="216"/>
      <point x="360" y="213" type="curve" smooth="yes"/>
      <point x="391" y="204"/>
      <point x="421" y="191"/>
      <point x="442" y="167" type="curve"/>
      <point x="468" y="192"/>
      <point x="488" y="226"/>
      <point x="488" y="270" type="curve" smooth="yes"/>
      <point x="488" y="357"/>
      <point x="399" y="380"/>
      <point x="324" y="394" type="curve"/>
      <point x="324" y="457" type="line"/>
      <point x="360" y="448"/>
      <point x="395" y="442"/>
      <point x="420" y="433" type="curve" smooth="yes"/>
      <point x="488" y="411"/>
      <point x="548" y="373"/>
      <point x="548" y="266" type="curve" smooth="yes"/>
      <point x="548" y="208"/>
      <point x="521" y="153"/>
      <point x="477" y="115" type="curve"/>
      <point x="484" y="96"/>
      <point x="487" y="74"/>
      <point x="487" y="46" type="curve" smooth="yes"/>
      <point x="487" y="-53"/>
      <point x="412" y="-137"/>
      <point x="296" y="-137" type="curve" smooth="yes"/>
      <point x="197" y="-137" type="line"/>
    </contour>
  </outline>
</glyph>
<glyph name="dieresis" format="1">
  <advance width="299"/>
  <unicode hex="00A8"/>
  <outline>
    <contour>
      <point x="55" y="679" type="curve" smooth="yes"/>
      <point x="55" y="699"/>
      <point x="72" y="716"/>
      <point x="92" y="716" type="curve" smooth="yes"/>
      <point x="113" y="716"/>
      <point x="129" y="699"/>
      <point x="129" y="679" type="curve" smooth="yes"/>
      <point x="129" y="658"/>
      <point x="113" y="642"/>
      <point x="92" y="642" type="curve" smooth="yes"/>
      <point x="72" y="642"/>
      <point x="55" y="658"/>
    </contour>
    <contour>
      <point x="170" y="679" type="curve" smooth="yes"/>
      <point x="170" y="699"/>
      <point x="187" y="716"/>
      <point x="207" y="716" type="curve" smooth="yes"/>
      <point x="228" y="716"/>
      <point x="244" y="699"/>
      <point x="244" y="679" type="curve" smooth="yes"/>
      <point x="244" y="658"/>
      <point x="228" y="642"/>
      <point x="207" y="642" type="curve" smooth="yes"/>
      <point x="187" y="642"/>
      <point x="170" y="658"/>
    </contour>
  </outline>
</glyph>
<glyph name="copyright" format="1">
  <advance width="776"/>
  <unicode hex="00A9"/>
  <outline>
    <contour>
      <point x="35" y="339" type="curve" smooth="yes"/>
      <point x="35" y="579"/>
      <point x="243" y="702"/>
      <point x="375" y="700" type="curve"/>
      <point x="375" y="658" type="line"/>
      <point x="242" y="658"/>
      <point x="76" y="538"/>
      <point x="76" y="339" type="curve" smooth="yes"/>
      <point x="76" y="176"/>
      <point x="207" y="24"/>
      <point x="375" y="22" type="curve"/>
      <point x="375" y="-23" type="line"/>
      <point x="198" y="-21"/>
      <point x="35" y="134"/>
    </contour>
    <contour>
      <point x="247" y="244" type="curve" smooth="yes"/>
      <point x="247" y="260"/>
      <point x="247" y="376"/>
      <point x="247" y="433" type="curve" smooth="yes"/>
      <point x="247" y="486"/>
      <point x="287" y="565"/>
      <point x="376" y="565" type="curve"/>
      <point x="376" y="523" type="line"/>
      <point x="314" y="523"/>
      <point x="291" y="466"/>
      <point x="291" y="430" type="curve" smooth="yes"/>
      <point x="291" y="244" type="line" smooth="yes"/>
      <point x="291" y="202"/>
      <point x="323" y="154"/>
      <point x="376" y="154" type="curve"/>
      <point x="376" y="113" type="line"/>
      <point x="276" y="113"/>
      <point x="247" y="198"/>
    </contour>
    <contour>
      <point x="410" y="-23" type="curve"/>
      <point x="410" y="22" type="line"/>
      <point x="571" y="24"/>
      <point x="705" y="176"/>
      <point x="705" y="338" type="curve" smooth="yes"/>
      <point x="705" y="519"/>
      <point x="558" y="658"/>
      <point x="410" y="658" type="curve"/>
      <point x="410" y="700" type="line"/>
      <point x="564" y="700"/>
      <point x="746" y="559"/>
      <point x="746" y="337" type="curve" smooth="yes"/>
      <point x="745" y="131"/>
      <point x="577" y="-21"/>
    </contour>
    <contour>
      <point x="410" y="112" type="curve"/>
      <point x="410" y="154" type="line"/>
      <point x="449" y="154"/>
      <point x="483" y="191"/>
      <point x="485" y="236" type="curve" smooth="yes"/>
      <point x="485" y="247" type="line"/>
      <point x="527" y="232" type="line"/>
      <point x="527" y="170"/>
      <point x="473" y="112"/>
    </contour>
    <contour>
      <point x="410" y="522" type="curve"/>
      <point x="410" y="565" type="line"/>
      <point x="473" y="565"/>
      <point x="525" y="508"/>
      <point x="525" y="446" type="curve"/>
      <point x="483" y="431" type="line"/>
      <point x="483" y="432"/>
      <point x="483" y="439"/>
      <point x="483" y="439" type="curve" smooth="yes"/>
      <point x="483" y="491"/>
      <point x="442" y="522"/>
    </contour>
  </outline>
</glyph>
<glyph name="ordfeminine" format="1">
  <advance width="234"/>
  <unicode hex="00AA"/>
  <outline>
    <contour>
      <point x="20" y="379" type="line"/>
      <point x="20" y="407" type="line"/>
      <point x="211" y="407" type="line"/>
      <point x="211" y="379" type="line"/>
    </contour>
    <component base="a" xScale="0.5" yScale="0.5" xOffset="3" yOffset="441"/>
  </outline>
</glyph>
<glyph name="guillemotleft" format="1">
  <advance width="471"/>
  <unicode hex="00AB"/>
  <outline>
    <contour>
      <point x="26" y="277" type="line"/>
      <point x="26" y="303" type="line"/>
      <point x="237" y="459" type="line"/>
      <point x="237" y="394" type="line"/>
      <point x="94" y="292" type="line"/>
      <point x="237" y="184" type="line"/>
      <point x="237" y="120" type="line"/>
    </contour>
    <contour>
      <point x="237" y="277" type="line"/>
      <point x="237" y="303" type="line"/>
      <point x="448" y="459" type="line"/>
      <point x="448" y="394" type="line"/>
      <point x="305" y="292" type="line"/>
      <point x="448" y="184" type="line"/>
      <point x="448" y="120" type="line"/>
    </contour>
  </outline>
</glyph>
<glyph name="logicalnot" format="1">
  <advance width="509"/>
  <unicode hex="00AC"/>
  <outline>
    <contour>
      <point x="40" y="360" type="line"/>
      <point x="40" y="413" type="line"/>
      <point x="459" y="413" type="line"/>
      <point x="459" y="208" type="line"/>
      <point x="403" y="208" type="line"/>
      <point x="403" y="360" type="line"/>
    </contour>
  </outline>
</glyph>
<glyph name="registered" format="1">
  <advance width="380"/>
  <unicode hex="00AE"/>
  <outline>
    <contour>
      <point x="30" y="525" type="curve" smooth="yes"/>
      <point x="30" y="634"/>
      <point x="118" y="690"/>
      <point x="183" y="690" type="curve"/>
      <point x="183" y="673" type="line"/>
      <point x="110" y="673"/>
      <point x="46" y="611"/>
      <point x="46" y="526" type="curve"/>
      <point x="47" y="455"/>
      <point x="106" y="385"/>
      <point x="179" y="385" type="curve"/>
      <point x="180" y="367" type="line"/>
      <point x="99" y="367"/>
      <point x="30" y="445"/>
    </contour>
    <contour>
      <point x="135" y="432" type="line"/>
      <point x="135" y="627" type="line"/>
      <point x="152" y="627" type="line"/>
      <point x="152" y="432" type="line"/>
    </contour>
    <contour>
      <point x="164" y="521" type="curve"/>
      <point x="164" y="537" type="line"/>
      <point x="188" y="537" type="line" smooth="yes"/>
      <point x="217" y="537"/>
      <point x="236" y="548"/>
      <point x="236" y="570" type="curve" smooth="yes"/>
      <point x="236" y="608"/>
      <point x="204" y="611"/>
      <point x="172" y="611" type="curve" smooth="yes"/>
      <point x="164" y="611" type="line"/>
      <point x="164" y="627" type="line"/>
      <point x="199" y="627"/>
      <point x="252" y="626"/>
      <point x="252" y="570" type="curve" smooth="yes"/>
      <point x="252" y="548"/>
      <point x="241" y="536"/>
      <point x="225" y="530" type="curve"/>
      <point x="237" y="526"/>
      <point x="251" y="512"/>
      <point x="252" y="492" type="curve" smooth="yes"/>
      <point x="256" y="432" type="line"/>
      <point x="240" y="432" type="line"/>
      <point x="237" y="481" type="line" smooth="yes"/>
      <point x="234" y="514"/>
      <point x="225" y="521"/>
    </contour>
    <contour>
      <point x="199" y="368" type="curve"/>
      <point x="199" y="385" type="line"/>
      <point x="273" y="385"/>
      <point x="334" y="454"/>
      <point x="334" y="527" type="curve" smooth="yes"/>
      <point x="334" y="610"/>
      <point x="268" y="673"/>
      <point x="199" y="673" type="curve"/>
      <point x="199" y="690" type="line"/>
      <point x="267" y="690"/>
      <point x="350" y="626"/>
      <point x="350" y="528" type="curve" smooth="yes"/>
      <point x="350" y="433"/>
      <point x="277" y="368"/>
    </contour>
  </outline>
</glyph>
<glyph name="degree" format="1">
  <advance width="227"/>
  <unicode hex="00B0"/>
  <outline>
    <contour>
      <point x="35" y="583" type="curve" smooth="yes"/>
      <point x="35" y="626"/>
      <point x="70" y="661"/>
      <point x="113" y="661" type="curve" smooth="yes"/>
      <point x="156" y="661"/>
      <point x="192" y="626"/>
      <point x="192" y="583" type="curve" smooth="yes"/>
      <point x="192" y="540"/>
      <point x="156" y="505"/>
      <point x="113" y="505" type="curve" smooth="yes"/>
      <point x="70" y="505"/>
      <point x="35" y="540"/>
    </contour>
    <contour>
      <point x="75" y="583" type="curve" smooth="yes"/>
      <point x="75" y="562"/>
      <point x="92" y="545"/>
      <point x="113" y="545" type="curve" smooth="yes"/>
      <point x="135" y="545"/>
      <point x="152" y="562"/>
      <point x="152" y="583" type="curve" smooth="yes"/>
      <point x="152" y="605"/>
      <point x="135" y="622"/>
      <point x="113" y="622" type="curve" smooth="yes"/>
      <point x="92" y="622"/>
      <point x="75" y="605"/>
    </contour>
  </outline>
</glyph>
<glyph name="uni00B5" format="1">
  <advance width="493"/>
  <unicode hex="00B5"/>
  <outline>
    <contour>
      <point x="38" y="0" type="line"/>
      <point x="38" y="698" type="line"/>
      <point x="94" y="698" type="line"/>
      <point x="94" y="318" type="line" smooth="yes"/>
      <point x="94" y="291"/>
      <point x="145" y="266"/>
      <point x="204" y="266" type="curve"/>
      <point x="204" y="212" type="line"/>
      <point x="145" y="212"/>
      <point x="107" y="236"/>
      <point x="94" y="242" type="curve"/>
      <point x="94" y="0" type="line"/>
    </contour>
    <contour>
      <point x="246" y="212" type="curve"/>
      <point x="246" y="266" type="line"/>
      <point x="302" y="266"/>
      <point x="355" y="291"/>
      <point x="355" y="318" type="curve" smooth="yes"/>
      <point x="355" y="698" type="line"/>
      <point x="355" y="700" type="line"/>
      <point x="412" y="700" type="line"/>
      <point x="412" y="698" type="line"/>
      <point x="412" y="318" type="line" smooth="yes"/>
      <point x="412" y="287"/>
      <point x="416" y="269"/>
      <point x="454" y="269" type="curve"/>
      <point x="454" y="214" type="line"/>
      <point x="410" y="214"/>
      <point x="391" y="226"/>
      <point x="373" y="248" type="curve"/>
      <point x="346" y="227"/>
      <point x="300" y="212"/>
    </contour>
  </outline>
</glyph>
<glyph name="paragraph" format="1">
  <advance width="387"/>
  <unicode hex="00B6"/>
  <outline>
    <contour>
      <point x="35" y="517" type="curve" smooth="yes"/>
      <point x="35" y="617"/>
      <point x="102" y="705"/>
      <point x="204" y="705" type="curve" smooth="yes"/>
      <point x="232" y="705"/>
      <point x="217" y="705"/>
      <point x="245" y="705" type="curve"/>
      <point x="245" y="-5" type="line"/>
      <point x="204" y="-5" type="line"/>
      <point x="204" y="329" type="line"/>
      <point x="100" y="329"/>
      <point x="35" y="403"/>
    </contour>
    <contour>
      <point x="292" y="-5" type="line"/>
      <point x="292" y="705" type="line"/>
      <point x="333" y="705" type="line"/>
      <point x="333" y="-5" type="line"/>
    </contour>
  </outline>
</glyph>
<glyph name="cedilla" format="1">
  <advance width="404"/>
  <unicode hex="00B8"/>
  <outline>
    <contour>
      <point x="123" y="-14" type="curve"/>
      <point x="123" y="34" type="line"/>
      <point x="177" y="34"/>
      <point x="219" y="68"/>
      <point x="219" y="123" type="curve"/>
      <point x="269" y="123" type="line"/>
      <point x="269" y="63"/>
      <point x="229" y="-14"/>
    </contour>
  </outline>
</glyph>
<glyph name="ordmasculine" format="1">
  <advance width="230"/>
  <unicode hex="00BA"/>
  <outline>
    <contour>
      <point x="26" y="403" type="line"/>
      <point x="26" y="432" type="line"/>
      <point x="204" y="432" type="line"/>
      <point x="204" y="403" type="line"/>
    </contour>
    <component base="o" xScale="0.4449" yScale="0.4449" xOffset="18" yOffset="467"/>
  </outline>
</glyph>
<glyph name="guillemotright" format="1">
  <advance width="457"/>
  <unicode hex="00BB"/>
  <outline>
    <contour>
      <point x="15" y="136" type="line"/>
      <point x="15" y="192" type="line"/>
      <point x="174" y="292" type="line"/>
      <point x="15" y="386" type="line"/>
      <point x="15" y="443" type="line"/>
      <point x="226" y="311" type="line"/>
      <point x="226" y="269" type="line"/>
    </contour>
    <contour>
      <point x="226" y="136" type="line"/>
      <point x="226" y="192" type="line"/>
      <point x="385" y="292" type="line"/>
      <point x="226" y="386" type="line"/>
      <point x="226" y="443" type="line"/>
      <point x="437" y="311" type="line"/>
      <point x="437" y="269" type="line"/>
    </contour>
  </outline>
</glyph>
<glyph name="Aring" format="1">
  <advance width="516"/>
  <unicode hex="00C5"/>
  <outline>
    <contour>
      <point x="64" y="0" type="line"/>
      <point x="200" y="596" type="line"/>
      <point x="216" y="596" type="line"/>
      <point x="236" y="504" type="line"/>
      <point x="124" y="0" type="line"/>
    </contour>
    <contour>
      <point x="198" y="125" type="line"/>
      <point x="211" y="183" type="line"/>
      <point x="354" y="183" type="line"/>
      <point x="242" y="695" type="line"/>
      <point x="213" y="704"/>
      <point x="191" y="733"/>
      <point x="191" y="765" type="curve" smooth="yes"/>
      <point x="191" y="808"/>
      <point x="226" y="842"/>
      <point x="268" y="842" type="curve" smooth="yes"/>
      <point x="311" y="842"/>
      <point x="346" y="808"/>
      <point x="346" y="765" type="curve" smooth="yes"/>
      <point x="346" y="734"/>
      <point x="328" y="708"/>
      <point x="301" y="697" type="curve"/>
      <point x="452" y="0" type="line"/>
      <point x="393" y="0" type="line"/>
      <point x="367" y="125" type="line"/>
    </contour>
    <contour>
      <point x="231" y="765" type="curve" smooth="yes"/>
      <point x="231" y="745"/>
      <point x="248" y="728"/>
      <point x="268" y="728" type="curve" smooth="yes"/>
      <point x="289" y="728"/>
      <point x="306" y="745"/>
      <point x="306" y="765" type="curve" smooth="yes"/>
      <point x="306" y="786"/>
      <point x="289" y="803"/>
      <point x="268" y="803" type="curve" smooth="yes"/>
      <point x="248" y="803"/>
      <point x="231" y="786"/>
    </contour>
  </outline>
</glyph>
<glyph name="AE" format="1">
  <advance width="727"/>
  <unicode hex="00C6"/>
  <outline>
    <contour>
      <point x="70" y="0" type="line"/>
      <point x="250" y="700" type="line"/>
      <point x="701" y="700" type="line"/>
      <point x="701" y="641" type="line"/>
      <point x="437" y="641" type="line"/>
      <point x="437" y="377" type="line"/>
      <point x="607" y="377" type="line"/>
      <point x="607" y="319" type="line"/>
      <point x="437" y="319" type="line"/>
      <point x="437" y="59" type="line"/>
      <point x="701" y="59" type="line"/>
      <point x="701" y="0" type="line"/>
      <point x="377" y="0" type="line"/>
      <point x="377" y="180" type="line"/>
      <point x="229" y="180" type="line"/>
      <point x="243" y="236" type="line"/>
      <point x="377" y="236" type="line"/>
      <point x="377" y="641" type="line"/>
      <point x="298" y="641" type="line"/>
      <point x="136" y="0" type="line"/>
    </contour>
  </outline>
</glyph>
<glyph name="Eth" format="1">
  <advance width="462"/>
  <unicode hex="00D0"/>
  <outline>
    <contour>
      <point x="26" y="326" type="line"/>
      <point x="26" y="382" type="line"/>
      <point x="82" y="382" type="line"/>
      <point x="82" y="700" type="line"/>
      <point x="142" y="700" type="line"/>
      <point x="142" y="382" type="line"/>
      <point x="198" y="382" type="line"/>
      <point x="198" y="326" type="line"/>
      <point x="142" y="326" type="line"/>
      <point x="142" y="0" type="line"/>
      <point x="82" y="0" type="line"/>
      <point x="82" y="326" type="line"/>
    </contour>
    <contour>
      <point x="189" y="0" type="curve"/>
      <point x="189" y="59" type="line"/>
      <point x="305" y="59"/>
      <point x="414" y="63"/>
      <point x="414" y="197" type="curve" smooth="yes"/>
      <point x="414" y="503" type="line" smooth="yes"/>
      <point x="414" y="637"/>
      <point x="308" y="641"/>
      <point x="189" y="641" type="curve"/>
      <point x="189" y="700" type="line"/>
      <point x="341" y="700"/>
      <point x="474" y="678"/>
      <point x="474" y="503" type="curve" smooth="yes"/>
      <point x="474" y="197" type="line" smooth="yes"/>
      <point x="474" y="10"/>
      <point x="329" y="0"/>
    </contour>
  </outline>
</glyph>
<glyph name="multiply" format="1">
  <advance width="534"/>
  <unicode hex="00D7"/>
  <outline>
    <contour>
      <point x="110" y="299" type="line"/>
      <point x="278" y="467" type="line"/>
      <point x="160" y="585" type="line"/>
      <point x="215" y="641" type="line"/>
      <point x="383" y="473" type="line"/>
      <point x="504" y="592" type="line"/>
      <point x="559" y="537" type="line"/>
      <point x="389" y="368" type="line"/>
      <point x="509" y="247" type="line"/>
      <point x="454" y="191" type="line"/>
      <point x="284" y="362" type="line"/>
      <point x="165" y="243" type="line"/>
    </contour>
  </outline>
</glyph>
<glyph name="Oslash" format="1">
  <advance width="672"/>
  <unicode hex="00D8"/>
  <outline>
    <contour>
      <point x="19" y="106" type="line"/>
      <point x="108" y="187" type="line"/>
      <point x="108" y="524" type="line" smooth="yes"/>
      <point x="108" y="584"/>
      <point x="173" y="705"/>
      <point x="305" y="705" type="curve"/>
      <point x="305" y="646" type="line"/>
      <point x="217" y="645"/>
      <point x="168" y="557"/>
      <point x="168" y="507" type="curve" smooth="yes"/>
      <point x="168" y="241" type="line"/>
      <point x="493" y="532" type="line"/>
      <point x="481" y="583"/>
      <point x="436" y="645"/>
      <point x="359" y="646" type="curve"/>
      <point x="359" y="705" type="line"/>
      <point x="457" y="705"/>
      <point x="518" y="636"/>
      <point x="542" y="577" type="curve"/>
      <point x="605" y="633" type="line"/>
      <point x="641" y="594" type="line"/>
      <point x="556" y="517" type="line"/>
      <point x="556" y="195" type="line" smooth="yes"/>
      <point x="556" y="51"/>
      <point x="419" y="-5"/>
      <point x="359" y="-5" type="curve"/>
      <point x="359" y="55" type="line"/>
      <point x="405" y="55"/>
      <point x="496" y="102"/>
      <point x="496" y="195" type="curve" smooth="yes"/>
      <point x="496" y="463" type="line"/>
      <point x="171" y="171" type="line"/>
      <point x="185" y="95"/>
      <point x="264" y="55"/>
      <point x="304" y="55" type="curve"/>
      <point x="304" y="-5" type="line"/>
      <point x="255" y="-5"/>
      <point x="155" y="33"/>
      <point x="121" y="126" type="curve"/>
      <point x="56" y="68" type="line"/>
    </contour>
  </outline>
</glyph>
<glyph name="Thorn" format="1">
  <advance width="474"/>
  <unicode hex="00DE"/>
  <outline>
    <contour>
      <point x="66" y="0" type="line"/>
      <point x="66" y="700" type="line"/>
      <point x="126" y="700" type="line"/>
      <point x="126" y="0" type="line"/>
    </contour>
    <contour>
      <point x="178" y="208" type="curve"/>
      <point x="178" y="266" type="line"/>
      <point x="219" y="266" type="line" smooth="yes"/>
      <point x="295" y="266"/>
      <point x="387" y="281"/>
      <point x="387" y="398" type="curve" smooth="yes"/>
      <point x="387" y="515"/>
      <point x="299" y="532"/>
      <point x="217" y="532" type="curve" smooth="yes"/>
      <point x="178" y="532" type="line"/>
      <point x="178" y="590" type="line"/>
      <point x="381" y="596"/>
      <point x="446" y="542"/>
      <point x="448" y="399" type="curve" smooth="yes"/>
      <point x="450" y="242"/>
      <point x="351" y="199"/>
    </contour>
  </outline>
</glyph>
<glyph name="germandbls" format="1">
  <advance width="522"/>
  <unicode hex="00DF"/>
  <outline>
    <contour>
      <point x="26" y="0" type="line"/>
      <point x="26" y="457" type="line" smooth="yes"/>
      <point x="27" y="531"/>
      <point x="16" y="705"/>
      <point x="226" y="705" type="curve" smooth="yes"/>
      <point x="396" y="705"/>
      <point x="406" y="575"/>
      <point x="406" y="518" type="curve" smooth="yes"/>
      <point x="406" y="406" type="line"/>
      <point x="352" y="406" type="line" smooth="yes"/>
      <point x="319" y="406"/>
      <point x="305" y="382"/>
      <point x="305" y="369" type="curve" smooth="yes"/>
      <point x="305" y="349"/>
      <point x="310" y="326"/>
      <point x="391" y="299" type="curve" smooth="yes"/>
      <point x="441" y="282"/>
      <point x="496" y="246"/>
      <point x="496" y="154" type="curve" smooth="yes"/>
      <point x="496" y="59"/>
      <point x="420" y="0"/>
      <point x="327" y="0" type="curve" smooth="yes"/>
      <point x="199" y="0" type="line"/>
      <point x="199" y="52" type="line"/>
      <point x="305" y="52" type="line" smooth="yes"/>
      <point x="369" y="52"/>
      <point x="442" y="75"/>
      <point x="442" y="153" type="curve" smooth="yes"/>
      <point x="442" y="217"/>
      <point x="419" y="226"/>
      <point x="364" y="254" type="curve" smooth="yes"/>
      <point x="316" y="278"/>
      <point x="250" y="294"/>
      <point x="250" y="371" type="curve" smooth="yes"/>
      <point x="250" y="435"/>
      <point x="305" y="455"/>
      <point x="352" y="457" type="curve"/>
      <point x="352" y="469" type="line" smooth="yes"/>
      <point x="352" y="558"/>
      <point x="357" y="651"/>
      <point x="226" y="651" type="curve" smooth="yes"/>
      <point x="97" y="651"/>
      <point x="84" y="554"/>
      <point x="84" y="498" type="curve" smooth="yes"/>
      <point x="84" y="0" type="line"/>
    </contour>
  </outline>
</glyph>
<glyph name="ae" format="1">
  <advance width="481"/>
  <unicode hex="00E6"/>
  <outline>
    <contour>
      <point x="26" y="119" type="curve" smooth="yes"/>
      <point x="26" y="162" type="line" smooth="yes"/>
      <point x="26" y="311"/>
      <point x="328" y="287"/>
      <point x="328" y="361" type="curve" smooth="yes"/>
      <point x="328" y="380" type="line" smooth="yes"/>
      <point x="328" y="428"/>
      <point x="272" y="469"/>
      <point x="205" y="469" type="curve" smooth="yes"/>
      <point x="144" y="469"/>
      <point x="84" y="441"/>
      <point x="84" y="370" type="curve"/>
      <point x="35" y="386" type="line"/>
      <point x="34" y="473"/>
      <point x="121" y="520"/>
      <point x="205" y="520" type="curve" smooth="yes"/>
      <point x="272" y="520"/>
      <point x="326" y="496"/>
      <point x="358" y="447" type="curve"/>
      <point x="383" y="483"/>
      <point x="428" y="516"/>
      <point x="491" y="516" type="curve"/>
      <point x="491" y="463" type="line"/>
      <point x="428" y="463"/>
      <point x="384" y="407"/>
      <point x="384" y="360" type="curve" smooth="yes"/>
      <point x="384" y="340"/>
      <point x="384" y="313"/>
      <point x="384" y="293" type="curve"/>
      <point x="645" y="293" type="line"/>
      <point x="645" y="367" type="line" smooth="yes"/>
      <point x="645" y="420"/>
      <point x="590" y="464"/>
      <point x="537" y="464" type="curve"/>
      <point x="537" y="516" type="line"/>
      <point x="613" y="516"/>
      <point x="700" y="453"/>
      <point x="700" y="378" type="curve" smooth="yes"/>
      <point x="700" y="239" type="line"/>
      <point x="384" y="239" type="line"/>
      <point x="384" y="141" type="line" smooth="yes"/>
      <point x="384" y="88"/>
      <point x="451" y="50"/>
      <point x="516" y="50" type="curve" smooth="yes"/>
      <point x="583" y="50"/>
      <point x="636" y="83"/>
      <point x="651" y="138" type="curve"/>
      <point x="701" y="120" type="line"/>
      <point x="679" y="44"/>
      <point x="616" y="0"/>
      <point x="515" y="0" type="curve" smooth="yes"/>
      <point x="443" y="0"/>
      <point x="388" y="23"/>
      <point x="361" y="64" type="curve"/>
      <point x="331" y="17"/>
      <point x="285" y="0"/>
      <point x="227" y="1" type="curve"/>
      <point x="227" y="54" type="line"/>
      <point x="279" y="54"/>
      <point x="328" y="71"/>
      <point x="328" y="149" type="curve" smooth="yes"/>
      <point x="328" y="292" type="line"/>
      <point x="287" y="251"/>
      <point x="78" y="252"/>
      <point x="79" y="162" type="curve"/>
      <point x="79" y="143" type="line" smooth="yes"/>
      <point x="79" y="77"/>
      <point x="129" y="54"/>
      <point x="182" y="54" type="curve"/>
      <point x="182" y="1" type="line"/>
      <point x="85" y="1"/>
      <point x="26" y="62"/>
    </contour>
  </outline>
</glyph>
<glyph name="eth" format="1">
  <advance width="420"/>
  <unicode hex="00F0"/>
  <outline>
    <contour>
      <point x="28" y="141" type="curve" smooth="yes"/>
      <point x="28" y="376" type="line" smooth="yes"/>
      <point x="28" y="425"/>
      <point x="82" y="516"/>
      <point x="192" y="516" type="curve"/>
      <point x="192" y="462" type="line"/>
      <point x="121" y="462"/>
      <point x="84" y="403"/>
      <point x="84" y="363" type="curve" smooth="yes"/>
      <point x="84" y="154" type="line" smooth="yes"/>
      <point x="84" y="115"/>
      <point x="127" y="53"/>
      <point x="192" y="53" type="curve"/>
      <point x="192" y="-1" type="line"/>
      <point x="80" y="-1"/>
      <point x="28" y="93"/>
    </contour>
    <contour>
      <point x="192" y="678" type="curve"/>
      <point x="192" y="714" type="line"/>
      <point x="244" y="705"/>
      <point x="298" y="682"/>
      <point x="336" y="634" type="curve"/>
      <point x="394" y="651" type="line"/>
      <point x="406" y="610" type="line"/>
      <point x="360" y="596" type="line"/>
      <point x="381" y="556"/>
      <point x="392" y="505"/>
      <point x="392" y="437" type="curve" smooth="yes"/>
      <point x="392" y="141" type="line" smooth="yes"/>
      <point x="392" y="92"/>
      <point x="341" y="-1"/>
      <point x="233" y="-1" type="curve"/>
      <point x="233" y="53" type="line"/>
      <point x="300" y="53"/>
      <point x="337" y="114"/>
      <point x="337" y="152" type="curve" smooth="yes"/>
      <point x="336" y="371" type="line" smooth="yes"/>
      <point x="336" y="411"/>
      <point x="296" y="462"/>
      <point x="233" y="462" type="curve"/>
      <point x="233" y="516" type="line"/>
      <point x="276" y="516"/>
      <point x="309" y="501"/>
      <point x="332" y="479" type="curve"/>
      <point x="332" y="522"/>
      <point x="323" y="555"/>
      <point x="309" y="581" type="curve"/>
      <point x="246" y="562" type="line"/>
      <point x="234" y="603" type="line"/>
      <point x="287" y="619" type="line"/>
      <point x="258" y="652"/>
      <point x="220" y="667"/>
    </contour>
  </outline>
</glyph>
<glyph name="divide" format="1">
  <advance width="650"/>
  <unicode hex="00F7"/>
  <outline>
    <contour>
      <point x="94" y="264" type="line"/>
      <point x="94" y="320" type="line"/>
      <point x="544" y="320" type="line"/>
      <point x="544" y="264" type="line"/>
    </contour>
    <component base="period" xOffset="266" yOffset="384"/>
    <component base="period" xOffset="266" yOffset="172"/>
  </outline>
</glyph>
<glyph name="oslash" format="1">
  <advance width="436"/>
  <unicode hex="00F8"/>
  <outline>
    <contour>
      <point x="11" y="71" type="line"/>
      <point x="69" y="123" type="line"/>
      <point x="67" y="129"/>
      <point x="66" y="138"/>
      <point x="66" y="143" type="curve" smooth="yes"/>
      <point x="66" y="376" type="line" smooth="yes"/>
      <point x="66" y="425"/>
      <point x="120" y="516"/>
      <point x="230" y="516" type="curve"/>
      <point x="230" y="462" type="line"/>
      <point x="159" y="462"/>
      <point x="122" y="403"/>
      <point x="122" y="363" type="curve" smooth="yes"/>
      <point x="122" y="172" type="line"/>
      <point x="367" y="397" type="line"/>
      <point x="353" y="430"/>
      <point x="320" y="462"/>
      <point x="271" y="462" type="curve"/>
      <point x="271" y="516" type="line"/>
      <point x="341" y="516"/>
      <point x="387" y="478"/>
      <point x="411" y="437" type="curve"/>
      <point x="456" y="478" type="line"/>
      <point x="488" y="443" type="line"/>
      <point x="429" y="388" type="line"/>
      <point x="429" y="383"/>
      <point x="430" y="376"/>
      <point x="430" y="372" type="curve" smooth="yes"/>
      <point x="430" y="141" type="line" smooth="yes"/>
      <point x="430" y="92"/>
      <point x="379" y="-1"/>
      <point x="271" y="-1" type="curve"/>
      <point x="271" y="53" type="line"/>
      <point x="338" y="53"/>
      <point x="375" y="114"/>
      <point x="375" y="152" type="curve" smooth="yes"/>
      <point x="375" y="339" type="line"/>
      <point x="133" y="117" type="line"/>
      <point x="149" y="84"/>
      <point x="184" y="53"/>
      <point x="230" y="53" type="curve"/>
      <point x="230" y="-1" type="line"/>
      <point x="160" y="-1"/>
      <point x="113" y="36"/>
      <point x="88" y="76" type="curve"/>
      <point x="43" y="35" type="line"/>
    </contour>
  </outline>
</glyph>
<glyph name="thorn" format="1">
  <advance width="422"/>
  <unicode hex="00FE"/>
  <outline>
    <contour>
      <point x="30" y="-182" type="line"/>
      <point x="30" y="700" type="line"/>
      <point x="87" y="700" type="line"/>
      <point x="87" y="-182" type="line"/>
    </contour>
    <contour>
      <point x="131" y="462" type="line"/>
      <point x="131" y="516" type="line"/>
      <point x="228" y="516" type="line" smooth="yes"/>
      <point x="335" y="516"/>
      <point x="396" y="431"/>
      <point x="396" y="375" type="curve" smooth="yes"/>
      <point x="396" y="139" type="line" smooth="yes"/>
      <point x="396" y="86"/>
      <point x="345" y="0"/>
      <point x="232" y="0" type="curve" smooth="yes"/>
      <point x="138" y="0" type="line"/>
      <point x="138" y="54" type="line"/>
      <point x="234" y="54" type="line" smooth="yes"/>
      <point x="289" y="54"/>
      <point x="340" y="88"/>
      <point x="340" y="155" type="curve" smooth="yes"/>
      <point x="340" y="366" type="line" smooth="yes"/>
      <point x="340" y="424"/>
      <point x="292" y="462"/>
      <point x="228" y="462" type="curve" smooth="yes"/>
    </contour>
  </outline>
</glyph>
<glyph name="dcroat" format="1">
  <advance width="414"/>
  <unicode hex="0111"/>
  <outline>
    <contour>
      <point x="27" y="141" type="curve" smooth="yes"/>
      <point x="27" y="377" type="line" smooth="yes"/>
      <point x="27" y="441"/>
      <point x="94" y="516"/>
      <point x="180" y="516" type="curve" smooth="yes"/>
      <point x="281" y="516" type="line"/>
      <point x="281" y="462" type="line"/>
      <point x="181" y="462" type="line" smooth="yes"/>
      <point x="131" y="462"/>
      <point x="82" y="416"/>
      <point x="82" y="373" type="curve" smooth="yes"/>
      <point x="82" y="143" type="line" smooth="yes"/>
      <point x="82" y="97"/>
      <point x="137" y="54"/>
      <point x="181" y="54" type="curve" smooth="yes"/>
      <point x="281" y="54" type="line"/>
      <point x="281" y="0" type="line"/>
      <point x="183" y="0" type="line" smooth="yes"/>
      <point x="77" y="0"/>
      <point x="27" y="93"/>
    </contour>
    <contour>
      <point x="263" y="577" type="line"/>
      <point x="263" y="633" type="line"/>
      <point x="327" y="633" type="line"/>
      <point x="327" y="699" type="line"/>
      <point x="384" y="699" type="line"/>
      <point x="384" y="633" type="line"/>
      <point x="448" y="633" type="line"/>
      <point x="448" y="577" type="line"/>
      <point x="384" y="577" type="line"/>
      <point x="384" y="0" type="line"/>
      <point x="327" y="0" type="line"/>
      <point x="327" y="577" type="line"/>
    </contour>
  </outline>
</glyph>
<glyph name="Lslash" format="1">
  <advance width="448"/>
  <unicode hex="0141"/>
  <outline>
    <contour>
      <point x="46" y="277" type="line"/>
      <point x="129" y="341" type="line"/>
      <point x="129" y="700" type="line"/>
      <point x="189" y="700" type="line"/>
      <point x="189" y="387" type="line"/>
      <point x="259" y="442" type="line"/>
      <point x="294" y="398" type="line"/>
      <point x="189" y="317" type="line"/>
      <point x="189" y="58" type="line"/>
      <point x="505" y="58" type="line"/>
      <point x="505" y="0" type="line"/>
      <point x="129" y="0" type="line"/>
      <point x="129" y="271" type="line"/>
      <point x="80" y="233" type="line"/>
    </contour>
  </outline>
</glyph>
<glyph name="lslash" format="1">
  <advance width="424"/>
  <unicode hex="0142"/>
  <outline>
    <contour>
      <point x="91" y="314" type="line"/>
      <point x="300" y="475" type="line"/>
      <point x="334" y="431" type="line"/>
      <point x="125" y="270" type="line"/>
    </contour>
    <contour>
      <point x="185" y="-2" type="line"/>
      <point x="185" y="700" type="line"/>
      <point x="245" y="700" type="line"/>
      <point x="245" y="-2" type="line"/>
    </contour>
  </outline>
</glyph>
<glyph name="OE" format="1">
  <advance width="482"/>
  <unicode hex="0152"/>
  <outline>
    <contour>
      <point x="-16" y="198" type="curve" smooth="yes"/>
      <point x="-16" y="506" type="line" smooth="yes"/>
      <point x="-16" y="681"/>
      <point x="101" y="700"/>
      <point x="251" y="700" type="curve"/>
      <point x="251" y="641" type="line"/>
      <point x="133" y="641"/>
      <point x="44" y="637"/>
      <point x="44" y="503" type="curve" smooth="yes"/>
      <point x="44" y="198" type="line" smooth="yes"/>
      <point x="44" y="64"/>
      <point x="135" y="59"/>
      <point x="251" y="59" type="curve"/>
      <point x="251" y="0" type="line"/>
      <point x="111" y="0"/>
      <point x="-16" y="11"/>
    </contour>
    <contour>
      <point x="298" y="0" type="line"/>
      <point x="298" y="59" type="line"/>
      <point x="334" y="59" type="line"/>
      <point x="334" y="641" type="line"/>
      <point x="298" y="641" type="line"/>
      <point x="298" y="700" type="line"/>
      <point x="698" y="700" type="line"/>
      <point x="698" y="642" type="line"/>
      <point x="394" y="642" type="line"/>
      <point x="394" y="378" type="line"/>
      <point x="604" y="378" type="line"/>
      <point x="604" y="319" type="line"/>
      <point x="394" y="319" type="line"/>
      <point x="394" y="59" type="line"/>
      <point x="698" y="59" type="line"/>
      <point x="698" y="0" type="line"/>
    </contour>
  </outline>
</glyph>
<glyph name="florin" format="1">
  <advance width="382"/>
  <unicode hex="0192"/>
  <outline>
    <contour>
      <point x="26" y="-168" type="line"/>
      <point x="39" y="-117" type="line"/>
      <point x="74" y="-117" type="line" smooth="yes"/>
      <point x="128" y="-116"/>
      <point x="141" y="-77"/>
      <point x="141" y="-42" type="curve" smooth="yes"/>
      <point x="141" y="430" type="line"/>
      <point x="78" y="430" type="line"/>
      <point x="78" y="484" type="line"/>
      <point x="141" y="484" type="line"/>
      <point x="141" y="538" type="line" smooth="yes"/>
      <point x="141" y="604"/>
      <point x="192" y="695"/>
      <point x="295" y="696" type="curve" smooth="yes"/>
      <point x="356" y="696" type="line"/>
      <point x="343" y="642" type="line"/>
      <point x="315" y="642" type="line" smooth="yes"/>
      <point x="230" y="642"/>
      <point x="197" y="597"/>
      <point x="197" y="532" type="curve" smooth="yes"/>
      <point x="197" y="483" type="line"/>
      <point x="263" y="484" type="line"/>
      <point x="263" y="430" type="line"/>
      <point x="197" y="430" type="line"/>
      <point x="197" y="-30" type="line" smooth="yes"/>
      <point x="197" y="-92"/>
      <point x="179" y="-168"/>
      <point x="67" y="-168" type="curve" smooth="yes"/>
    </contour>
  </outline>
</glyph>
<glyph name="dotaccent" format="1">
  <advance width="202"/>
  <unicode hex="02D9"/>
  <outline>
    <contour>
      <point x="62" y="678" type="curve" smooth="yes"/>
      <point x="62" y="700"/>
      <point x="79" y="718"/>
      <point x="101" y="718" type="curve" smooth="yes"/>
      <point x="123" y="718"/>
      <point x="140" y="700"/>
      <point x="140" y="678" type="curve" smooth="yes"/>
      <point x="140" y="656"/>
      <point x="123" y="639"/>
      <point x="101" y="639" type="curve" smooth="yes"/>
      <point x="79" y="639"/>
      <point x="62" y="656"/>
    </contour>
  </outline>
</glyph>
<glyph name="ring" format="1">
  <advance width="244"/>
  <unicode hex="02DA"/>
  <outline>
    <contour>
      <point x="49" y="526" type="curve" smooth="yes"/>
      <point x="49" y="566"/>
      <point x="82" y="599"/>
      <point x="122" y="599" type="curve" smooth="yes"/>
      <point x="162" y="599"/>
      <point x="195" y="566"/>
      <point x="195" y="526" type="curve" smooth="yes"/>
      <point x="195" y="486"/>
      <point x="162" y="453"/>
      <point x="122" y="453" type="curve" smooth="yes"/>
      <point x="82" y="453"/>
      <point x="49" y="486"/>
    </contour>
    <contour>
      <point x="90" y="526" type="curve" smooth="yes"/>
      <point x="90" y="508"/>
      <point x="104" y="494"/>
      <point x="122" y="494" type="curve" smooth="yes"/>
      <point x="140" y="494"/>
      <point x="154" y="508"/>
      <point x="154" y="526" type="curve" smooth="yes"/>
      <point x="154" y="544"/>
      <point x="140" y="558"/>
      <point x="122" y="558" type="curve" smooth="yes"/>
      <point x="104" y="558"/>
      <point x="90" y="544"/>
    </contour>
  </outline>
</glyph>
<glyph name="ogonek" format="1">
  <advance width="219"/>
  <unicode hex="02DB"/>
  <outline>
    <contour>
      <point x="106" y="-177" type="line"/>
      <point x="0" y="-177"/>
      <point x="-40" y="-100"/>
      <point x="-40" y="-40" type="curve"/>
      <point x="10" y="-40" type="line"/>
      <point x="10" y="-95"/>
      <point x="52" y="-129"/>
      <point x="106" y="-129" type="curve"/>
    </contour>
  </outline>
</glyph>
<glyph name="tilde" format="1">
  <advance width="333"/>
  <unicode hex="02DC"/>
  <outline>
    <contour>
      <point x="26" y="130" type="curve"/>
      <point x="26" y="181" type="line"/>
      <point x="54" y="197"/>
      <point x="77" y="203"/>
      <point x="96" y="203" type="curve" smooth="yes"/>
      <point x="147" y="203"/>
      <point x="176" y="162"/>
      <point x="227" y="162" type="curve" smooth="yes"/>
      <point x="249" y="162"/>
      <point x="274" y="170"/>
      <point x="307" y="190" type="curve"/>
      <point x="307" y="140" type="line"/>
      <point x="273" y="119"/>
      <point x="246" y="112"/>
      <point x="223" y="112" type="curve" smooth="yes"/>
      <point x="170" y="112"/>
      <point x="140" y="152"/>
      <point x="92" y="152" type="curve" smooth="yes"/>
      <point x="74" y="152"/>
      <point x="52" y="146"/>
    </contour>
  </outline>
</glyph>
<glyph name="pi" format="1">
  <advance width="421"/>
  <unicode hex="03C0"/>
  <outline>
    <contour>
      <point x="-28" y="460" type="line"/>
      <point x="-28" y="516" type="line"/>
      <point x="452" y="516" type="line"/>
      <point x="452" y="460" type="line"/>
      <point x="365" y="460" type="line"/>
      <point x="365" y="142" type="line" smooth="yes"/>
      <point x="365" y="55"/>
      <point x="401" y="49"/>
      <point x="438" y="49" type="curve"/>
      <point x="438" y="-4" type="line"/>
      <point x="339" y="-4"/>
      <point x="311" y="64"/>
      <point x="311" y="133" type="curve" smooth="yes"/>
      <point x="311" y="460" type="line"/>
      <point x="116" y="460" type="line"/>
      <point x="116" y="-3" type="line"/>
      <point x="60" y="-3" type="line"/>
      <point x="60" y="460" type="line"/>
    </contour>
  </outline>
</glyph>
<glyph name="tml_Visarga" format="1">
  <advance width="523"/>
  <unicode hex="0B83"/>
  <outline>
    <contour>
      <point x="388" y="120" type="curve" smooth="yes"/>
      <point x="388" y="164"/>
      <point x="424" y="200"/>
      <point x="468" y="200" type="curve" smooth="yes"/>
      <point x="512" y="200"/>
      <point x="547" y="164"/>
      <point x="547" y="120" type="curve" smooth="yes"/>
      <point x="547" y="76"/>
      <point x="512" y="41"/>
      <point x="468" y="41" type="curve" smooth="yes"/>
      <point x="424" y="41"/>
      <point x="388" y="76"/>
    </contour>
    <contour>
      <point x="310" y="432" type="curve" smooth="yes"/>
      <point x="310" y="476"/>
      <point x="345" y="512"/>
      <point x="389" y="512" type="curve" smooth="yes"/>
      <point x="433" y="512"/>
      <point x="469" y="476"/>
      <point x="469" y="432" type="curve" smooth="yes"/>
      <point x="469" y="388"/>
      <point x="433" y="352"/>
      <point x="389" y="352" type="curve" smooth="yes"/>
      <point x="345" y="352"/>
      <point x="310" y="388"/>
    </contour>
    <contour>
      <point x="88" y="192" type="curve" smooth="yes"/>
      <point x="88" y="236"/>
      <point x="124" y="271"/>
      <point x="168" y="271" type="curve" smooth="yes"/>
      <point x="212" y="271"/>
      <point x="247" y="236"/>
      <point x="247" y="192" type="curve" smooth="yes"/>
      <point x="247" y="148"/>
      <point x="212" y="112"/>
      <point x="168" y="112" type="curve" smooth="yes"/>
      <point x="124" y="112"/>
      <point x="88" y="148"/>
    </contour>
  </outline>
</glyph>
<glyph name="tml_A" format="1">
  <advance width="1013"/>
  <unicode hex="0B85"/>
  <outline>
    <contour>
      <point x="293" y="486" type="curve" smooth="yes"/>
      <point x="293" y="606"/>
      <point x="395" y="695"/>
      <point x="550" y="695" type="curve" smooth="yes"/>
      <point x="710" y="695"/>
      <point x="803" y="585"/>
      <point x="803" y="393" type="curve"/>
      <point x="803" y="232" type="line"/>
      <point x="747" y="232" type="line"/>
      <point x="747" y="396" type="line" smooth="yes"/>
      <point x="747" y="567"/>
      <point x="665" y="639"/>
      <point x="550" y="639" type="curve" smooth="yes"/>
      <point x="426" y="639"/>
      <point x="349" y="571"/>
      <point x="349" y="486" type="curve" smooth="yes"/>
      <point x="349" y="401"/>
      <point x="407" y="345"/>
      <point x="484" y="345" type="curve" smooth="yes"/>
      <point x="550" y="345"/>
      <point x="611" y="387"/>
      <point x="611" y="454" type="curve" smooth="yes"/>
      <point x="653" y="409" type="line" smooth="yes"/>
      <point x="648" y="346"/>
      <point x="573" y="289"/>
      <point x="484" y="289" type="curve" smooth="yes"/>
      <point x="394" y="289"/>
      <point x="293" y="352"/>
    </contour>
    <contour>
      <point x="475" y="184" type="curve"/>
      <point x="475" y="240" type="line"/>
      <point x="550" y="240"/>
      <point x="728" y="240"/>
      <point x="803" y="240" type="curve"/>
      <point x="804" y="67" type="line"/>
      <point x="804" y="-35"/>
      <point x="744" y="-127"/>
      <point x="639" y="-127" type="curve" smooth="yes"/>
      <point x="477" y="-127" type="line" smooth="yes"/>
      <point x="477" y="-71" type="line"/>
      <point x="638" y="-71" type="line" smooth="yes"/>
      <point x="702" y="-70"/>
      <point x="747" y="-17"/>
      <point x="747" y="69" type="curve"/>
      <point x="747" y="184" type="line"/>
      <point x="710" y="184"/>
      <point x="512" y="184"/>
    </contour>
    <contour>
      <point x="71" y="72" type="curve" smooth="yes"/>
      <point x="71" y="188"/>
      <point x="155" y="241"/>
      <point x="285" y="241" type="curve" smooth="yes"/>
      <point x="421" y="241" type="line"/>
      <point x="421" y="183" type="line"/>
      <point x="267" y="183" type="line" smooth="yes"/>
      <point x="243" y="183"/>
      <point x="127" y="182"/>
      <point x="127" y="72" type="curve" smooth="yes"/>
      <point x="127" y="-35"/>
      <point x="217" y="-71"/>
      <point x="275" y="-71" type="curve" smooth="yes"/>
      <point x="422" y="-71" type="line"/>
      <point x="422" y="-127" type="line"/>
      <point x="274" y="-127" type="line" smooth="yes"/>
      <point x="162" y="-127"/>
      <point x="71" y="-47"/>
    </contour>
    <contour>
      <point x="762" y="184" type="line"/>
      <point x="762" y="240" type="line"/>
      <point x="888" y="240" type="line"/>
      <point x="888" y="184" type="line"/>
    </contour>
    <contour>
      <point x="886" y="-107" type="line"/>
      <point x="886" y="578" type="line"/>
      <point x="942" y="578" type="line"/>
      <point x="942" y="-107" type="line"/>
    </contour>
  </outline>
</glyph>
<glyph name="tml_Ii" format="1">
  <advance width="631"/>
  <unicode hex="0B88"/>
  <outline>
    <contour>
      <point x="447" y="252" type="curve" smooth="yes"/>
      <point x="447" y="279"/>
      <point x="470" y="302"/>
      <point x="497" y="302" type="curve" smooth="yes"/>
      <point x="524" y="302"/>
      <point x="547" y="279"/>
      <point x="547" y="252" type="curve" smooth="yes"/>
      <point x="547" y="225"/>
      <point x="524" y="203"/>
      <point x="497" y="203" type="curve" smooth="yes"/>
      <point x="470" y="203"/>
      <point x="447" y="225"/>
    </contour>
    <contour>
      <point x="194" y="253" type="curve" smooth="yes"/>
      <point x="194" y="280"/>
      <point x="217" y="303"/>
      <point x="244" y="303" type="curve" smooth="yes"/>
      <point x="271" y="303"/>
      <point x="294" y="280"/>
      <point x="294" y="253" type="curve" smooth="yes"/>
      <point x="294" y="226"/>
      <point x="271" y="203"/>
      <point x="244" y="203" type="curve" smooth="yes"/>
      <point x="217" y="203"/>
      <point x="194" y="226"/>
    </contour>
    <contour>
      <point x="356" y="0" type="line"/>
      <point x="412" y="0" type="line"/>
      <point x="412" y="594" type="line"/>
      <point x="356" y="594" type="line"/>
    </contour>
    <contour>
      <point x="73" y="1" type="line"/>
      <point x="73" y="593" type="line"/>
      <point x="129" y="594" type="line"/>
      <point x="129" y="1" type="line"/>
    </contour>
    <contour>
      <point x="269" y="539" type="line"/>
      <point x="554" y="539" type="line"/>
      <point x="554" y="596" type="line"/>
      <point x="269" y="596" type="line"/>
    </contour>
    <contour>
      <point x="73" y="539" type="line"/>
      <point x="73" y="596" type="line"/>
      <point x="215" y="596" type="line"/>
      <point x="215" y="539" type="line"/>
    </contour>
  </outline>
</glyph>
<glyph name="tml_U" format="1">
  <advance width="1017"/>
  <unicode hex="0B89"/>
  <outline>
    <contour>
      <point x="40" y="472" type="curve" smooth="yes"/>
      <point x="40" y="593"/>
      <point x="127" y="696"/>
      <point x="274" y="696" type="curve" smooth="yes"/>
      <point x="423" y="696"/>
      <point x="538" y="598"/>
      <point x="538" y="457" type="curve" smooth="yes"/>
      <point x="538" y="430" type="line"/>
      <point x="481" y="430" type="line"/>
      <point x="481" y="457" type="line" smooth="yes"/>
      <point x="481" y="582"/>
      <point x="366" y="640"/>
      <point x="274" y="640" type="curve" smooth="yes"/>
      <point x="159" y="640"/>
      <point x="96" y="560"/>
      <point x="96" y="472" type="curve" smooth="yes"/>
      <point x="96" y="398"/>
      <point x="146" y="341"/>
      <point x="227" y="341" type="curve" smooth="yes"/>
      <point x="305" y="341"/>
      <point x="343" y="439"/>
      <point x="327" y="504" type="curve"/>
      <point x="384" y="504" type="line"/>
      <point x="405" y="388"/>
      <point x="323" y="285"/>
      <point x="228" y="285" type="curve" smooth="yes"/>
      <point x="136" y="285"/>
      <point x="40" y="345"/>
    </contour>
    <contour>
      <point x="260" y="0" type="line"/>
      <point x="260" y="55" type="line"/>
      <point x="977" y="55" type="line"/>
      <point x="977" y="0" type="line"/>
    </contour>
    <contour>
      <point x="58" y="55" type="curve"/>
      <point x="206" y="55" type="line"/>
      <point x="206" y="0" type="line"/>
      <point x="117" y="0" type="line" smooth="yes"/>
      <point x="63" y="0"/>
      <point x="58" y="18"/>
    </contour>
    <contour>
      <point x="58" y="48" type="line" smooth="yes"/>
      <point x="58" y="142" type="line" smooth="yes"/>
      <point x="58" y="188"/>
      <point x="73" y="199"/>
      <point x="117" y="199" type="curve" smooth="yes"/>
      <point x="337" y="199" type="line" smooth="yes"/>
      <point x="452" y="200"/>
      <point x="481" y="243"/>
      <point x="481" y="339" type="curve" smooth="yes"/>
      <point x="481" y="376" type="line"/>
      <point x="538" y="376" type="line"/>
      <point x="538" y="339" type="line" smooth="yes"/>
      <point x="539" y="245"/>
      <point x="512" y="142"/>
      <point x="342" y="142" type="curve" smooth="yes"/>
      <point x="332" y="142"/>
      <point x="119" y="141"/>
      <point x="117" y="141" type="curve"/>
      <point x="117" y="128"/>
      <point x="117" y="48"/>
      <point x="117" y="48" type="curve" smooth="yes"/>
    </contour>
    <contour>
      <point x="538" y="457" type="move"/>
    </contour>
  </outline>
</glyph>
<glyph name="tml_Ka" format="1">
  <advance width="818"/>
  <unicode hex="0B95"/>
  <outline>
    <contour>
      <point x="331" y="-11" type="curve"/>
      <point x="331" y="46" type="line"/>
      <point x="404" y="46"/>
      <point x="462" y="88"/>
      <point x="462" y="190" type="curve" smooth="yes"/>
      <point x="462" y="559" type="line"/>
      <point x="518" y="559" type="line"/>
      <point x="518" y="191" type="line" smooth="yes"/>
      <point x="518" y="95"/>
      <point x="474" y="-11"/>
    </contour>
    <contour>
      <point x="205" y="348" type="line"/>
      <point x="205" y="557" type="line"/>
      <point x="262" y="557" type="line"/>
      <point x="261" y="348" type="line"/>
    </contour>
    <contour>
      <point x="389" y="538" type="line"/>
      <point x="389" y="595" type="line"/>
      <point x="650" y="595" type="line"/>
      <point x="650" y="538" type="line"/>
    </contour>
    <contour>
      <point x="205" y="538" type="line"/>
      <point x="205" y="595" type="line"/>
      <point x="335" y="595" type="line"/>
      <point x="335" y="538" type="line"/>
    </contour>
    <contour>
      <point x="80" y="174" type="curve" smooth="yes"/>
      <point x="80" y="218" type="line" smooth="yes"/>
      <point x="80" y="361"/>
      <point x="190" y="371"/>
      <point x="237" y="371" type="curve" smooth="yes"/>
      <point x="585" y="371" type="line" smooth="yes"/>
      <point x="691" y="371"/>
      <point x="754" y="333"/>
      <point x="754" y="212" type="curve" smooth="yes"/>
      <point x="754" y="173" type="line" smooth="yes"/>
      <point x="754" y="54"/>
      <point x="672" y="2"/>
      <point x="538" y="2" type="curve"/>
      <point x="538" y="59" type="line" smooth="yes"/>
      <point x="628" y="59"/>
      <point x="698" y="75"/>
      <point x="698" y="179" type="curve" smooth="yes"/>
      <point x="698" y="297"/>
      <point x="670" y="315"/>
      <point x="577" y="315" type="curve" smooth="yes"/>
      <point x="240" y="315" type="line" smooth="yes"/>
      <point x="151" y="315"/>
      <point x="136" y="265"/>
      <point x="136" y="188" type="curve" smooth="yes"/>
      <point x="136" y="93"/>
      <point x="190" y="46"/>
      <point x="277" y="46" type="curve"/>
      <point x="277" y="-11" type="line"/>
      <point x="145" y="-11"/>
      <point x="80" y="78"/>
    </contour>
  </outline>
</glyph>
<glyph name="tml_Nga" format="1">
  <advance width="895"/>
  <unicode hex="0B99"/>
  <outline>
    <contour>
      <point x="767" y="0" type="line"/>
      <point x="767" y="595" type="line"/>
      <point x="823" y="595" type="line"/>
      <point x="823" y="0" type="line"/>
    </contour>
    <contour>
      <point x="333" y="0" type="line"/>
      <point x="333" y="56" type="line"/>
      <point x="714" y="56" type="line"/>
      <point x="714" y="0" type="line"/>
    </contour>
    <contour>
      <point x="275" y="0" type="line"/>
      <point x="275" y="56" type="line"/>
      <point x="303" y="56"/>
      <point x="388" y="56"/>
      <point x="444" y="56" type="curve" smooth="yes"/>
      <point x="507" y="56"/>
      <point x="537" y="81"/>
      <point x="537" y="127" type="curve" smooth="yes"/>
      <point x="537" y="221" type="line" smooth="yes"/>
      <point x="537" y="290"/>
      <point x="474" y="297"/>
      <point x="424" y="297" type="curve" smooth="yes"/>
      <point x="424" y="354" type="line"/>
      <point x="510" y="354"/>
      <point x="593" y="322"/>
      <point x="593" y="229" type="curve" smooth="yes"/>
      <point x="593" y="117" type="line" smooth="yes"/>
      <point x="593" y="35"/>
      <point x="519" y="0"/>
      <point x="449" y="0" type="curve" smooth="yes"/>
    </contour>
    <contour>
      <point x="314" y="96" type="line"/>
      <point x="370" y="96" type="line"/>
      <point x="370" y="589" type="line"/>
      <point x="314" y="589" type="line"/>
    </contour>
    <contour>
      <point x="73" y="0" type="line"/>
      <point x="129" y="0" type="line"/>
      <point x="129" y="591" type="line"/>
      <point x="73" y="591" type="line"/>
    </contour>
    <contour>
      <point x="73" y="595" type="line"/>
      <point x="74" y="539" type="line"/>
      <point x="479" y="539" type="line"/>
      <point x="479" y="595" type="line"/>
    </contour>
  </outline>
</glyph>
<glyph name="tml_Ca" format="1">
  <advance width="665"/>
  <unicode hex="0B9A"/>
  <outline>
    <contour>
      <point x="40" y="169" type="curve" smooth="yes"/>
      <point x="40" y="200" type="line" smooth="yes"/>
      <point x="40" y="272"/>
      <point x="87" y="371"/>
      <point x="244" y="371" type="curve" smooth="yes"/>
      <point x="581" y="371" type="line"/>
      <point x="581" y="315" type="line"/>
      <point x="239" y="315" type="line" smooth="yes"/>
      <point x="182" y="315"/>
      <point x="96" y="298"/>
      <point x="96" y="188" type="curve" smooth="yes"/>
      <point x="96" y="72"/>
      <point x="170" y="56"/>
      <point x="238" y="56" type="curve"/>
      <point x="238" y="-1" type="line"/>
      <point x="68" y="0"/>
      <point x="40" y="116"/>
    </contour>
    <contour>
      <point x="291" y="-1" type="curve"/>
      <point x="291" y="56" type="line"/>
      <point x="380" y="56"/>
      <point x="422" y="107"/>
      <point x="422" y="187" type="curve" smooth="yes"/>
      <point x="422" y="588" type="line"/>
      <point x="479" y="588" type="line"/>
      <point x="479" y="191" type="line" smooth="yes"/>
      <point x="479" y="95"/>
      <point x="434" y="-1"/>
    </contour>
    <contour>
      <point x="165" y="348" type="line"/>
      <point x="165" y="586" type="line"/>
      <point x="222" y="586" type="line"/>
      <point x="221" y="348" type="line"/>
    </contour>
    <contour>
      <point x="350" y="538" type="line"/>
      <point x="350" y="595" type="line"/>
      <point x="626" y="595" type="line"/>
      <point x="626" y="538" type="line"/>
    </contour>
    <contour>
      <point x="165" y="538" type="line"/>
      <point x="165" y="595" type="line"/>
      <point x="296" y="595" type="line"/>
      <point x="296" y="538" type="line"/>
    </contour>
  </outline>
</glyph>
<glyph name="tml_Nya" format="1">
  <advance width="869"/>
  <unicode hex="0B9E"/>
  <outline>
    <contour>
      <point x="73" y="-109" type="line"/>
      <point x="574" y="-109" type="line" smooth="yes"/>
      <point x="650" y="-109"/>
      <point x="709" y="-76"/>
      <point x="709" y="26" type="curve" smooth="yes"/>
      <point x="709" y="154" type="line" smooth="yes"/>
      <point x="709" y="247"/>
      <point x="670" y="267"/>
      <point x="597" y="267" type="curve" smooth="yes"/>
      <point x="597" y="323" type="line"/>
      <point x="682" y="323"/>
      <point x="766" y="296"/>
      <point x="766" y="154" type="curve" smooth="yes"/>
      <point x="766" y="26" type="line" smooth="yes"/>
      <point x="766" y="-82"/>
      <point x="712" y="-165"/>
      <point x="569" y="-165" type="curve" smooth="yes"/>
      <point x="73" y="-165" type="line"/>
    </contour>
    <component base="tml_E"/>
  </outline>
</glyph>
<glyph name="tml_Tta" format="1">
  <advance width="639"/>
  <unicode hex="0B9F"/>
  <outline>
    <contour>
      <point x="80" y="0" type="line"/>
      <point x="80" y="56" type="line"/>
      <point x="574" y="56" type="line"/>
      <point x="574" y="0" type="line"/>
    </contour>
    <contour>
      <point x="80" y="111" type="line"/>
      <point x="80" y="596" type="line"/>
      <point x="137" y="596" type="line"/>
      <point x="137" y="111" type="line"/>
    </contour>
  </outline>
</glyph>
<glyph name="tml_Nna" format="1">
  <advance width="1300"/>
  <unicode hex="0BA3"/>
  <outline>
    <contour>
      <point x="469" y="159" type="curve"/>
      <point x="469" y="288" type="line" smooth="yes"/>
      <point x="469" y="585"/>
      <point x="710" y="604"/>
      <point x="768" y="603" type="curve"/>
      <point x="768" y="547" type="line"/>
      <point x="630" y="547"/>
      <point x="525" y="477"/>
      <point x="525" y="290" type="curve" smooth="yes"/>
      <point x="525" y="160" type="line" smooth="yes"/>
      <point x="525" y="93"/>
      <point x="546" y="48"/>
      <point x="582" y="48" type="curve"/>
      <point x="582" y="-9" type="line" smooth="yes"/>
      <point x="507" y="-9"/>
      <point x="469" y="74"/>
    </contour>
    <contour>
      <point x="439" y="547" type="curve"/>
      <point x="439" y="604" type="line"/>
      <point x="514" y="604"/>
      <point x="748" y="592"/>
      <point x="748" y="301" type="curve" smooth="yes"/>
      <point x="748" y="159" type="line" smooth="yes"/>
      <point x="748" y="67"/>
      <point x="711" y="-9"/>
      <point x="635" y="-9" type="curve"/>
      <point x="635" y="48" type="line" smooth="yes"/>
      <point x="673" y="48"/>
      <point x="691" y="91"/>
      <point x="691" y="159" type="curve" smooth="yes"/>
      <point x="691" y="303" type="line" smooth="yes"/>
      <point x="691" y="447"/>
      <point x="624" y="547"/>
    </contour>
    <contour>
      <point x="116" y="158" type="curve"/>
      <point x="116" y="90"/>
      <point x="144" y="48"/>
      <point x="199" y="48" type="curve" smooth="yes"/>
      <point x="199" y="108"/>
      <point x="252" y="141"/>
      <point x="265" y="141" type="curve"/>
      <point x="243" y="141"/>
      <point x="215" y="144"/>
      <point x="216" y="220" type="curve" smooth="yes"/>
      <point x="198" y="220"/>
      <point x="173" y="327"/>
      <point x="173" y="290" type="curve" smooth="yes"/>
      <point x="172" y="380"/>
      <point x="200" y="486"/>
      <point x="343" y="486" type="curve"/>
      <point x="343" y="484"/>
      <point x="343" y="509"/>
      <point x="348" y="509" type="curve"/>
      <point x="288" y="509"/>
      <point x="145" y="456"/>
      <point x="145" y="232" type="curve" smooth="yes"/>
      <point x="126" y="232"/>
      <point x="116" y="141"/>
    </contour>
    <contour>
      <point x="216" y="414" type="curve"/>
      <point x="214" y="425"/>
      <point x="232" y="462"/>
      <point x="247" y="462" type="curve"/>
      <point x="331" y="462"/>
      <point x="395" y="413"/>
      <point x="395" y="294" type="curve" smooth="yes"/>
      <point x="395" y="158" type="line" smooth="yes"/>
      <point x="395" y="63"/>
      <point x="356" y="-10"/>
      <point x="283" y="-10" type="curve"/>
      <point x="283" y="47" type="line" smooth="yes"/>
      <point x="314" y="47"/>
      <point x="339" y="81"/>
      <point x="339" y="158" type="curve" smooth="yes"/>
      <point x="339" y="291" type="line" smooth="yes"/>
      <point x="339" y="373"/>
      <point x="312" y="414"/>
    </contour>
    <contour>
      <point x="590" y="159" type="curve"/>
      <point x="590" y="142"/>
      <point x="600" y="229"/>
      <point x="619" y="229" type="curve" smooth="yes"/>
      <point x="619" y="469"/>
      <point x="809" y="510"/>
      <point x="852" y="509" type="curve"/>
      <point x="847" y="509"/>
      <point x="847" y="484"/>
      <point x="847" y="486" type="curve"/>
      <point x="732" y="486"/>
      <point x="647" y="441"/>
      <point x="647" y="289" type="curve" smooth="yes"/>
      <point x="647" y="326"/>
      <point x="665" y="221"/>
      <point x="681" y="221" type="curve" smooth="yes"/>
      <point x="681" y="152"/>
      <point x="706" y="143"/>
      <point x="732" y="143" type="curve"/>
      <point x="719" y="143"/>
      <point x="673" y="111"/>
      <point x="673" y="50" type="curve" smooth="yes"/>
      <point x="619" y="50"/>
      <point x="590" y="91"/>
    </contour>
    <contour>
      <point x="625" y="520" type="curve"/>
      <point x="624" y="527"/>
      <point x="631" y="570"/>
      <point x="642" y="571" type="curve"/>
      <point x="702" y="571"/>
      <point x="870" y="550"/>
      <point x="870" y="298" type="curve" smooth="yes"/>
      <point x="870" y="159" type="line" smooth="yes"/>
      <point x="870" y="67"/>
      <point x="829" y="-8"/>
      <point x="756" y="-8" type="curve"/>
      <point x="756" y="48" type="line" smooth="yes"/>
      <point x="791" y="48"/>
      <point x="813" y="93"/>
      <point x="813" y="159" type="curve" smooth="yes"/>
      <point x="813" y="302" type="line" smooth="yes"/>
      <point x="813" y="400"/>
      <point x="783" y="519"/>
    </contour>
    <contour>
      <point x="1098" y="547" type="line"/>
      <point x="1098" y="604" type="line"/>
      <point x="1260" y="604" type="line"/>
      <point x="1260" y="547" type="line"/>
    </contour>
    <contour>
      <point x="1107" y="1" type="line"/>
      <point x="1107" y="573" type="line"/>
      <point x="1163" y="573" type="line"/>
      <point x="1163" y="1" type="line"/>
    </contour>
  </outline>
</glyph>
<glyph name="tml_Nnna" format="1">
  <advance width="946"/>
  <unicode hex="0BA9"/>
  <outline>
    <contour>
      <point x="392" y="155" type="curve"/>
      <point x="392" y="296" type="line" smooth="yes"/>
      <point x="392" y="593"/>
      <point x="637" y="606"/>
      <point x="683" y="605" type="curve"/>
      <point x="683" y="549" type="line"/>
      <point x="561" y="549"/>
      <point x="448" y="485"/>
      <point x="448" y="298" type="curve" smooth="yes"/>
      <point x="448" y="156" type="line" smooth="yes"/>
      <point x="448" y="89"/>
      <point x="470" y="43"/>
      <point x="505" y="43" type="curve"/>
      <point x="505" y="-13" type="line" smooth="yes"/>
      <point x="431" y="-13"/>
      <point x="392" y="70"/>
    </contour>
    <contour>
      <point x="358" y="549" type="curve"/>
      <point x="358" y="605" type="line"/>
      <point x="434" y="605"/>
      <point x="671" y="600"/>
      <point x="671" y="309" type="curve" smooth="yes"/>
      <point x="671" y="155" type="line" smooth="yes"/>
      <point x="671" y="63"/>
      <point x="636" y="-13"/>
      <point x="559" y="-13" type="curve"/>
      <point x="559" y="43" type="line" smooth="yes"/>
      <point x="598" y="43"/>
      <point x="615" y="87"/>
      <point x="615" y="155" type="curve" smooth="yes"/>
      <point x="615" y="311" type="line" smooth="yes"/>
      <point x="615" y="455"/>
      <point x="542" y="548"/>
    </contour>
    <contour>
      <point x="40" y="154" type="line"/>
      <point x="40" y="69"/>
      <point x="79" y="-14"/>
      <point x="155" y="-14" type="curve" smooth="yes"/>
      <point x="155" y="42" type="line"/>
      <point x="126" y="42"/>
      <point x="97" y="76"/>
      <point x="97" y="155" type="curve" smooth="yes"/>
      <point x="96" y="298" type="line" smooth="yes"/>
      <point x="96" y="426"/>
      <point x="143" y="548"/>
      <point x="304" y="549" type="curve"/>
      <point x="304" y="605" type="line"/>
      <point x="230" y="605"/>
      <point x="40" y="583"/>
      <point x="40" y="298" type="curve" smooth="yes"/>
    </contour>
    <contour>
      <point x="184" y="395" type="curve"/>
      <point x="181" y="412"/>
      <point x="205" y="436"/>
      <point x="232" y="437" type="curve"/>
      <point x="300" y="437"/>
      <point x="323" y="378"/>
      <point x="323" y="298" type="curve" smooth="yes"/>
      <point x="323" y="154" type="line" smooth="yes"/>
      <point x="323" y="59"/>
      <point x="283" y="-14"/>
      <point x="208" y="-14" type="curve"/>
      <point x="208" y="43" type="line" smooth="yes"/>
      <point x="241" y="43"/>
      <point x="266" y="77"/>
      <point x="266" y="154" type="curve" smooth="yes"/>
      <point x="266" y="298" type="line" smooth="yes"/>
      <point x="266" y="353"/>
      <point x="257" y="395"/>
    </contour>
    <contour>
      <point x="736" y="549" type="line"/>
      <point x="736" y="605" type="line"/>
      <point x="907" y="605" type="line"/>
      <point x="907" y="548" type="line"/>
    </contour>
    <contour>
      <point x="754" y="0" type="line"/>
      <point x="754" y="573" type="line"/>
      <point x="811" y="573" type="line"/>
      <point x="811" y="0" type="line"/>
    </contour>
  </outline>
</glyph>
<glyph name="tml_Pa" format="1">
  <advance width="539"/>
  <unicode hex="0BAA"/>
  <outline>
    <contour>
      <point x="64" y="41" type="line"/>
      <point x="64" y="595" type="line"/>
      <point x="120" y="595" type="line"/>
      <point x="120" y="41" type="line"/>
    </contour>
    <contour>
      <point x="418" y="38" type="line"/>
      <point x="475" y="38" type="line"/>
      <point x="475" y="595" type="line"/>
      <point x="418" y="595" type="line"/>
    </contour>
    <contour>
      <point x="298" y="0" type="line"/>
      <point x="475" y="0" type="line"/>
      <point x="475" y="57" type="line"/>
      <point x="298" y="57" type="line"/>
    </contour>
    <contour>
      <point x="64" y="0" type="line"/>
      <point x="64" y="57" type="line"/>
      <point x="242" y="57" type="line"/>
      <point x="242" y="0" type="line"/>
    </contour>
  </outline>
</glyph>
<glyph name="tml_Ma" format="1">
  <advance width="613"/>
  <unicode hex="0BAE"/>
  <outline>
    <contour>
      <point x="426" y="0" type="curve" smooth="yes"/>
      <point x="426" y="57" type="line"/>
      <point x="500" y="57"/>
      <point x="502" y="163"/>
      <point x="502" y="193" type="curve" smooth="yes"/>
      <point x="502" y="434" type="line" smooth="yes"/>
      <point x="502" y="445"/>
      <point x="506" y="549"/>
      <point x="426" y="549" type="curve"/>
      <point x="426" y="605" type="line"/>
      <point x="491" y="605"/>
      <point x="558" y="568"/>
      <point x="558" y="434" type="curve" smooth="yes"/>
      <point x="558" y="197" type="line" smooth="yes"/>
      <point x="558" y="49"/>
      <point x="493" y="0"/>
    </contour>
    <contour>
      <point x="245" y="56" type="line" smooth="yes"/>
      <point x="245" y="434" type="line" smooth="yes"/>
      <point x="245" y="568"/>
      <point x="311" y="605"/>
      <point x="372" y="605" type="curve"/>
      <point x="372" y="549" type="line"/>
      <point x="298" y="549"/>
      <point x="302" y="446"/>
      <point x="302" y="434" type="curve" smooth="yes"/>
      <point x="302" y="56" type="line"/>
    </contour>
    <contour>
      <point x="40" y="41" type="line"/>
      <point x="40" y="595" type="line"/>
      <point x="96" y="595" type="line"/>
      <point x="96" y="41" type="line"/>
    </contour>
    <contour>
      <point x="40" y="0" type="line"/>
      <point x="40" y="57" type="line"/>
      <point x="372" y="57" type="line"/>
      <point x="372" y="0" type="line"/>
    </contour>
  </outline>
</glyph>
<glyph name="tml_Ya" format="1">
  <advance width="661"/>
  <unicode hex="0BAF"/>
  <outline>
    <contour>
      <point x="496" y="0" type="line"/>
      <point x="496" y="56" type="line"/>
      <point x="521" y="56" type="line" smooth="yes"/>
      <point x="547" y="56"/>
      <point x="565" y="62"/>
      <point x="565" y="91" type="curve"/>
      <point x="565" y="595" type="line"/>
      <point x="621" y="595" type="line"/>
      <point x="621" y="0" type="line"/>
    </contour>
    <contour>
      <point x="40" y="140" type="curve" smooth="yes"/>
      <point x="40" y="595" type="line"/>
      <point x="96" y="595" type="line"/>
      <point x="96" y="145" type="line"/>
      <point x="96" y="96"/>
      <point x="133" y="56"/>
      <point x="167" y="56" type="curve" smooth="yes"/>
      <point x="172" y="56" type="line"/>
      <point x="172" y="0" type="line"/>
      <point x="166" y="0" type="line" smooth="yes"/>
      <point x="107" y="0"/>
      <point x="40" y="65"/>
    </contour>
    <contour>
      <point x="226" y="0" type="line"/>
      <point x="226" y="56" type="line"/>
      <point x="232" y="56" type="line" smooth="yes"/>
      <point x="272" y="56"/>
      <point x="318" y="74"/>
      <point x="318" y="131" type="curve"/>
      <point x="318" y="595" type="line"/>
      <point x="375" y="595" type="line"/>
      <point x="375" y="95" type="line" smooth="yes"/>
      <point x="375" y="63"/>
      <point x="388" y="56"/>
      <point x="408" y="56" type="curve" smooth="yes"/>
      <point x="444" y="56" type="line"/>
      <point x="443" y="0" type="line"/>
      <point x="321" y="0" type="line"/>
      <point x="320" y="35" type="line"/>
      <point x="306" y="14"/>
      <point x="271" y="0"/>
      <point x="232" y="0" type="curve" smooth="yes"/>
    </contour>
  </outline>
</glyph>
<glyph name="tml_Rra" format="1">
  <advance width="775"/>
  <unicode hex="0BB1"/>
  <outline>
    <contour>
      <point x="72" y="-256" type="curve"/>
      <point x="128" y="-256" type="line"/>
      <point x="128" y="-151"/>
      <point x="160" y="-124"/>
      <point x="211" y="-124" type="curve" smooth="yes"/>
      <point x="499" y="-124" type="line" smooth="yes"/>
      <point x="616" y="-122"/>
      <point x="661" y="-26"/>
      <point x="661" y="64" type="curve" smooth="yes"/>
      <point x="661" y="475" type="line" smooth="yes"/>
      <point x="661" y="530"/>
      <point x="620" y="606"/>
      <point x="528" y="606" type="curve"/>
      <point x="528" y="550" type="line"/>
      <point x="544" y="550"/>
      <point x="605" y="544"/>
      <point x="605" y="460" type="curve" smooth="yes"/>
      <point x="605" y="61" type="line" smooth="yes"/>
      <point x="605" y="-13"/>
      <point x="569" y="-67"/>
      <point x="494" y="-67" type="curve" smooth="yes"/>
      <point x="216" y="-67" type="line" smooth="yes"/>
      <point x="141" y="-67"/>
      <point x="72" y="-99"/>
    </contour>
    <contour>
      <point x="102" y="0" type="line"/>
      <point x="102" y="479" type="line" smooth="yes"/>
      <point x="102" y="529"/>
      <point x="135" y="606"/>
      <point x="224" y="606" type="curve"/>
      <point x="224" y="549" type="line"/>
      <point x="170" y="549"/>
      <point x="158" y="497"/>
      <point x="158" y="471" type="curve" smooth="yes"/>
      <point x="160" y="0" type="line"/>
    </contour>
    <contour>
      <point x="277" y="549" type="curve"/>
      <point x="277" y="606" type="line"/>
      <point x="323" y="606"/>
      <point x="353" y="594"/>
      <point x="377" y="564" type="curve"/>
      <point x="405" y="597"/>
      <point x="438" y="606"/>
      <point x="477" y="606" type="curve"/>
      <point x="477" y="550" type="line"/>
      <point x="437" y="550"/>
      <point x="404" y="530"/>
      <point x="404" y="452" type="curve" smooth="yes"/>
      <point x="406" y="0" type="line"/>
      <point x="350" y="0" type="line"/>
      <point x="348" y="451" type="line" smooth="yes"/>
      <point x="347" y="528"/>
      <point x="324" y="549"/>
    </contour>
  </outline>
</glyph>
<glyph name="tml_La" format="1">
  <advance width="846"/>
  <unicode hex="0BB2"/>
  <outline>
    <contour>
      <point x="251" y="0" type="curve"/>
      <point x="251" y="56" type="line"/>
      <point x="294" y="56"/>
      <point x="335" y="100"/>
      <point x="335" y="182" type="curve" smooth="yes"/>
      <point x="335" y="267"/>
      <point x="293" y="303"/>
      <point x="251" y="303" type="curve"/>
      <point x="251" y="359" type="line" smooth="yes"/>
      <point x="328" y="359"/>
      <point x="393" y="289"/>
      <point x="393" y="202" type="curve" smooth="yes"/>
      <point x="393" y="169" type="line" smooth="yes"/>
      <point x="394" y="78"/>
      <point x="330" y="0"/>
    </contour>
    <contour>
      <point x="40" y="168" type="curve" smooth="yes"/>
      <point x="40" y="176"/>
      <point x="40" y="185"/>
      <point x="40" y="201" type="curve" smooth="yes"/>
      <point x="40" y="305"/>
      <point x="125" y="359"/>
      <point x="196" y="359" type="curve"/>
      <point x="196" y="303" type="line" smooth="yes"/>
      <point x="160" y="303"/>
      <point x="96" y="278"/>
      <point x="96" y="181" type="curve" smooth="yes"/>
      <point x="96" y="103"/>
      <point x="149" y="56"/>
      <point x="196" y="56" type="curve"/>
      <point x="196" y="0" type="line" smooth="yes"/>
      <point x="105" y="0"/>
      <point x="40" y="89"/>
    </contour>
    <contour>
      <point x="40" y="208" type="curve"/>
      <point x="40" y="306" type="line"/>
      <point x="40" y="460"/>
      <point x="117" y="605"/>
      <point x="253" y="605" type="curve"/>
      <point x="253" y="549" type="line"/>
      <point x="159" y="549"/>
      <point x="99" y="440"/>
      <point x="98" y="310" type="curve" smooth="yes"/>
      <point x="98" y="299"/>
      <point x="41" y="214"/>
    </contour>
    <contour>
      <point x="307" y="550" type="line"/>
      <point x="441" y="550"/>
      <point x="457" y="441"/>
      <point x="457" y="392" type="curve" smooth="yes"/>
      <point x="458" y="145" type="line" smooth="yes"/>
      <point x="458" y="68"/>
      <point x="523" y="0"/>
      <point x="605" y="0" type="curve"/>
      <point x="605" y="57" type="line"/>
      <point x="558" y="57"/>
      <point x="515" y="98"/>
      <point x="515" y="147" type="curve" smooth="yes"/>
      <point x="515" y="385" type="line" smooth="yes"/>
      <point x="515" y="476"/>
      <point x="473" y="606"/>
      <point x="307" y="606" type="curve"/>
    </contour>
    <contour>
      <point x="634" y="594" type="curve"/>
      <point x="634" y="537" type="line"/>
      <point x="741" y="537"/>
      <point x="751" y="482"/>
      <point x="751" y="422" type="curve"/>
      <point x="751" y="150" type="line"/>
      <point x="751" y="111"/>
      <point x="728" y="57"/>
      <point x="658" y="57" type="curve"/>
      <point x="658" y="0" type="line"/>
      <point x="757" y="0"/>
      <point x="808" y="73"/>
      <point x="808" y="150" type="curve" smooth="yes"/>
      <point x="808" y="424" type="line" smooth="yes"/>
      <point x="808" y="541"/>
      <point x="754" y="595"/>
    </contour>
  </outline>
</glyph>
<glyph name="tml_Llla" format="1">
  <advance width="613"/>
  <unicode hex="0BB4"/>
  <outline>
    <contour>
      <point x="79" y="-67" type="line"/>
      <point x="79" y="-191"/>
      <point x="198" y="-260"/>
      <point x="329" y="-165" type="curve"/>
      <point x="305" y="-162"/>
      <point x="277" y="-146"/>
      <point x="272" y="-136" type="curve"/>
      <point x="238" y="-172"/>
      <point x="136" y="-166"/>
      <point x="136" y="-67" type="curve"/>
    </contour>
    <contour>
      <point x="245" y="1" type="curve"/>
      <point x="302" y="1" type="line"/>
      <point x="302" y="-95"/>
      <point x="382" y="-89"/>
      <point x="499" y="-89" type="curve"/>
      <point x="499" y="-146" type="line" smooth="yes"/>
      <point x="431" y="-145" type="line"/>
      <point x="267" y="-146"/>
      <point x="245" y="-60"/>
    </contour>
    <component base="tml_Ma"/>
  </outline>
</glyph>
<glyph name="tml_Va" format="1">
  <advance width="809"/>
  <unicode hex="0BB5"/>
  <outline>
    <contour>
      <point x="251" y="0" type="curve"/>
      <point x="251" y="56" type="line"/>
      <point x="293" y="57"/>
      <point x="336" y="99"/>
      <point x="336" y="182" type="curve" smooth="yes"/>
      <point x="336" y="269"/>
      <point x="291" y="303"/>
      <point x="251" y="303" type="curve"/>
      <point x="251" y="359" type="line" smooth="yes"/>
      <point x="329" y="359"/>
      <point x="394" y="289"/>
      <point x="394" y="202" type="curve" smooth="yes"/>
      <point x="394" y="169" type="line" smooth="yes"/>
      <point x="394" y="78"/>
      <point x="331" y="0"/>
    </contour>
    <contour>
      <point x="40" y="168" type="curve" smooth="yes"/>
      <point x="40" y="201" type="line" smooth="yes"/>
      <point x="40" y="305"/>
      <point x="125" y="359"/>
      <point x="196" y="359" type="curve"/>
      <point x="196" y="303" type="line" smooth="yes"/>
      <point x="160" y="303"/>
      <point x="96" y="280"/>
      <point x="96" y="181" type="curve" smooth="yes"/>
      <point x="96" y="102"/>
      <point x="149" y="56"/>
      <point x="196" y="56" type="curve"/>
      <point x="196" y="0" type="line" smooth="yes"/>
      <point x="105" y="0"/>
      <point x="40" y="89"/>
    </contour>
    <contour>
      <point x="40" y="208" type="line"/>
      <point x="40" y="303" type="line"/>
      <point x="40" y="462"/>
      <point x="118" y="605"/>
      <point x="271" y="605" type="curve"/>
      <point x="271" y="549" type="line"/>
      <point x="166" y="549"/>
      <point x="101" y="443"/>
      <point x="99" y="316" type="curve" smooth="yes"/>
    </contour>
    <contour>
      <point x="322" y="549" type="line"/>
      <point x="431" y="549"/>
      <point x="489" y="463"/>
      <point x="490" y="354" type="curve"/>
      <point x="490" y="90" type="line" smooth="yes"/>
      <point x="490" y="57"/>
      <point x="480" y="57"/>
      <point x="425" y="57" type="curve"/>
      <point x="425" y="0" type="line"/>
      <point x="657" y="0" type="line"/>
      <point x="657" y="57" type="line"/>
      <point x="547" y="57" type="line"/>
      <point x="547" y="355" type="line"/>
      <point x="546" y="466"/>
      <point x="485" y="605"/>
      <point x="322" y="605" type="curve"/>
    </contour>
    <contour>
      <point x="712" y="0" type="line"/>
      <point x="712" y="595" type="line"/>
      <point x="769" y="595" type="line"/>
      <point x="769" y="0" type="line"/>
    </contour>
  </outline>
</glyph>
<glyph name="tml_Ssa" format="1">
  <advance width="1258"/>
  <unicode hex="0BB7"/>
  <outline>
    <contour>
      <point x="251" y="0" type="curve"/>
      <point x="251" y="56" type="line"/>
      <point x="293" y="57"/>
      <point x="336" y="99"/>
      <point x="336" y="182" type="curve" smooth="yes"/>
      <point x="336" y="269"/>
      <point x="291" y="303"/>
      <point x="251" y="303" type="curve"/>
      <point x="251" y="359" type="line" smooth="yes"/>
      <point x="329" y="359"/>
      <point x="394" y="289"/>
      <point x="394" y="202" type="curve" smooth="yes"/>
      <point x="394" y="169" type="line" smooth="yes"/>
      <point x="394" y="78"/>
      <point x="331" y="0"/>
    </contour>
    <contour>
      <point x="40" y="168" type="curve" smooth="yes"/>
      <point x="40" y="201" type="line" smooth="yes"/>
      <point x="40" y="305"/>
      <point x="125" y="359"/>
      <point x="196" y="359" type="curve"/>
      <point x="196" y="303" type="line" smooth="yes"/>
      <point x="160" y="303"/>
      <point x="96" y="280"/>
      <point x="96" y="181" type="curve" smooth="yes"/>
      <point x="96" y="102"/>
      <point x="149" y="56"/>
      <point x="196" y="56" type="curve"/>
      <point x="196" y="0" type="line" smooth="yes"/>
      <point x="105" y="0"/>
      <point x="40" y="89"/>
    </contour>
    <contour>
      <point x="40" y="208" type="line"/>
      <point x="40" y="303" type="line"/>
      <point x="40" y="462"/>
      <point x="118" y="605"/>
      <point x="271" y="605" type="curve"/>
      <point x="271" y="549" type="line"/>
      <point x="166" y="549"/>
      <point x="101" y="443"/>
      <point x="99" y="316" type="curve" smooth="yes"/>
    </contour>
    <contour>
      <point x="321" y="549" type="line"/>
      <point x="430" y="549"/>
      <point x="488" y="463"/>
      <point x="489" y="354" type="curve"/>
      <point x="489" y="90" type="line" smooth="yes"/>
      <point x="489" y="57"/>
      <point x="479" y="57"/>
      <point x="424" y="57" type="curve"/>
      <point x="424" y="0" type="line"/>
      <point x="812" y="0" type="line"/>
      <point x="812" y="57" type="line"/>
      <point x="546" y="57" type="line"/>
      <point x="546" y="355" type="line"/>
      <point x="545" y="466"/>
      <point x="485" y="605"/>
      <point x="321" y="605" type="curve"/>
    </contour>
    <contour>
      <point x="865" y="551" type="line"/>
      <point x="906" y="551"/>
      <point x="957" y="543"/>
      <point x="957" y="413" type="curve" smooth="yes"/>
      <point x="957" y="130" type="line"/>
      <point x="1014" y="130" type="line"/>
      <point x="1014" y="413" type="line" smooth="yes"/>
      <point x="1014" y="561"/>
      <point x="950" y="607"/>
      <point x="865" y="607" type="curve"/>
    </contour>
    <contour>
      <point x="957" y="91" type="line"/>
      <point x="957" y="-178" type="line"/>
      <point x="1014" y="-178" type="line"/>
      <point x="1014" y="91" type="line"/>
    </contour>
    <contour>
      <point x="865" y="158" type="line"/>
      <point x="1150" y="158" type="line"/>
      <point x="1150" y="214" type="line" smooth="yes"/>
      <point x="865" y="214" type="line"/>
    </contour>
    <contour>
      <point x="663" y="334" type="line" smooth="yes"/>
      <point x="663" y="191"/>
      <point x="726" y="158"/>
      <point x="812" y="158" type="curve"/>
      <point x="812" y="213" type="line"/>
      <point x="775" y="213"/>
      <point x="719" y="218"/>
      <point x="719" y="322" type="curve" smooth="yes"/>
      <point x="719" y="433" type="line" smooth="yes"/>
      <point x="719" y="549"/>
      <point x="777" y="551"/>
      <point x="812" y="551" type="curve"/>
      <point x="812" y="607" type="line"/>
      <point x="726" y="607"/>
      <point x="663" y="570"/>
      <point x="663" y="433" type="curve" smooth="yes"/>
    </contour>
    <contour>
      <point x="1098" y="0" type="line"/>
      <point x="1150" y="0" type="line"/>
      <point x="1150" y="214" type="line"/>
      <point x="1098" y="214" type="line"/>
    </contour>
    <contour>
      <point x="865" y="1" type="line"/>
      <point x="1150" y="0" type="line"/>
      <point x="1150" y="57" type="line"/>
      <point x="865" y="57" type="line"/>
    </contour>
  </outline>
</glyph>
<glyph name="tml_MatraAa" format="1">
  <advance width="570"/>
  <unicode hex="0BBE"/>
  <outline>
    <contour>
      <point x="357" y="0" type="line"/>
      <point x="414" y="0" type="line"/>
      <point x="414" y="593" type="line"/>
      <point x="357" y="593" type="line"/>
    </contour>
    <contour>
      <point x="74" y="0" type="line"/>
      <point x="74" y="592" type="line"/>
      <point x="131" y="593" type="line"/>
      <point x="131" y="0" type="line"/>
    </contour>
    <contour>
      <point x="271" y="539" type="line"/>
      <point x="498" y="539" type="line"/>
      <point x="498" y="595" type="line"/>
      <point x="271" y="595" type="line"/>
    </contour>
    <contour>
      <point x="74" y="539" type="line"/>
      <point x="74" y="595" type="line"/>
      <point x="218" y="595" type="line"/>
      <point x="218" y="539" type="line"/>
    </contour>
  </outline>
</glyph>
<glyph name="tml_MatraI" format="1">
  <advance width="445"/>
  <unicode hex="0BBF"/>
  <outline>
    <contour>
      <point x="369" y="709" type="curve"/>
      <point x="369" y="766" type="line"/>
      <point x="502" y="766"/>
      <point x="552" y="683"/>
      <point x="552" y="582" type="curve" smooth="yes"/>
      <point x="552" y="69" type="line"/>
      <point x="495" y="69" type="line"/>
      <point x="495" y="579" type="line" smooth="yes"/>
      <point x="495" y="680"/>
      <point x="435" y="709"/>
    </contour>
    <contour>
      <point x="142" y="580" type="line"/>
      <point x="142" y="580" type="line"/>
      <point x="142" y="679"/>
      <point x="184" y="766"/>
      <point x="315" y="766" type="curve" smooth="yes"/>
      <point x="315" y="766" type="line"/>
      <point x="315" y="710" type="line" smooth="yes"/>
      <point x="315" y="710" type="line" smooth="yes"/>
      <point x="250" y="710"/>
      <point x="199" y="679"/>
      <point x="199" y="580" type="curve" smooth="yes"/>
    </contour>
  </outline>
</glyph>
<glyph name="tml_MatraIi" format="1">
  <unicode hex="0BC0"/>
  <outline>
    <contour>
      <point x="532" y="413" type="line"/>
      <point x="354" y="558"/>
      <point x="384" y="888"/>
      <point x="585" y="888" type="curve" smooth="yes"/>
      <point x="660" y="887"/>
      <point x="731" y="847"/>
      <point x="731" y="756" type="curve" smooth="yes"/>
      <point x="731" y="692"/>
      <point x="680" y="631"/>
      <point x="614" y="631" type="curve" smooth="yes"/>
      <point x="564" y="631"/>
      <point x="522" y="670"/>
      <point x="518" y="691" type="curve"/>
      <point x="553" y="733" type="line" smooth="yes"/>
      <point x="553" y="717"/>
      <point x="570" y="687"/>
      <point x="613" y="687" type="curve" smooth="yes"/>
      <point x="652" y="687"/>
      <point x="675" y="722"/>
      <point x="675" y="755" type="curve" smooth="yes"/>
      <point x="675" y="792"/>
      <point x="652" y="830"/>
      <point x="585" y="830" type="curve"/>
      <point x="423" y="819"/>
      <point x="437" y="544"/>
      <point x="604" y="420" type="curve"/>
    </contour>
  </outline>
</glyph>
<glyph name="tml_MatraU" format="1">
  <advance width="569"/>
  <unicode hex="0BC1"/>
  <outline>
    <contour>
      <point x="39" y="607" type="line"/>
      <point x="319" y="607" type="line" smooth="yes"/>
      <point x="408" y="607"/>
      <point x="440" y="581"/>
      <point x="440" y="529" type="curve" smooth="yes"/>
      <point x="440" y="511"/>
      <point x="423" y="465"/>
      <point x="374" y="465" type="curve" smooth="yes"/>
      <point x="322" y="465"/>
      <point x="306" y="510"/>
      <point x="306" y="530" type="curve" smooth="yes"/>
      <point x="250" y="530" type="line"/>
      <point x="250" y="473"/>
      <point x="298" y="409"/>
      <point x="367" y="409" type="curve" smooth="yes"/>
      <point x="382" y="409" type="line" smooth="yes"/>
      <point x="437" y="409"/>
      <point x="496" y="462"/>
      <point x="496" y="530" type="curve" smooth="yes"/>
      <point x="496" y="538" type="line" smooth="yes"/>
      <point x="496" y="618"/>
      <point x="437" y="663"/>
      <point x="323" y="663" type="curve" smooth="yes"/>
      <point x="39" y="663" type="line"/>
    </contour>
  </outline>
</glyph>
<glyph name="tml_MatraE" format="1">
  <advance width="633"/>
  <unicode hex="0BC6"/>
  <outline>
    <contour>
      <point x="279" y="0" type="curve"/>
      <point x="279" y="56" type="line"/>
      <point x="323" y="56"/>
      <point x="364" y="100"/>
      <point x="364" y="182" type="curve" smooth="yes"/>
      <point x="364" y="267"/>
      <point x="322" y="303"/>
      <point x="279" y="303" type="curve"/>
      <point x="279" y="359" type="line" smooth="yes"/>
      <point x="357" y="359"/>
      <point x="422" y="289"/>
      <point x="422" y="202" type="curve" smooth="yes"/>
      <point x="422" y="169" type="line" smooth="yes"/>
      <point x="423" y="78"/>
      <point x="359" y="0"/>
    </contour>
    <contour>
      <point x="69" y="168" type="curve" smooth="yes"/>
      <point x="69" y="176"/>
      <point x="69" y="185"/>
      <point x="69" y="201" type="curve" smooth="yes"/>
      <point x="68" y="305"/>
      <point x="154" y="359"/>
      <point x="224" y="359" type="curve"/>
      <point x="224" y="303" type="line" smooth="yes"/>
      <point x="189" y="303"/>
      <point x="125" y="278"/>
      <point x="125" y="181" type="curve" smooth="yes"/>
      <point x="125" y="103"/>
      <point x="178" y="56"/>
      <point x="224" y="56" type="curve"/>
      <point x="224" y="0" type="line" smooth="yes"/>
      <point x="133" y="0"/>
      <point x="69" y="89"/>
    </contour>
    <contour>
      <point x="350" y="629" type="curve"/>
      <point x="350" y="685" type="line"/>
      <point x="500" y="685"/>
      <point x="563" y="575"/>
      <point x="563" y="451" type="curve" smooth="yes"/>
      <point x="563" y="-10" type="line"/>
      <point x="507" y="-10" type="line"/>
      <point x="507" y="451" type="line" smooth="yes"/>
      <point x="507" y="509"/>
      <point x="487" y="629"/>
    </contour>
    <contour>
      <point x="69" y="198" type="curve"/>
      <point x="69" y="252" type="line"/>
      <point x="69" y="451" type="line" smooth="yes"/>
      <point x="69" y="574"/>
      <point x="137" y="685"/>
      <point x="296" y="685" type="curve" smooth="yes"/>
      <point x="296" y="685" type="line"/>
      <point x="296" y="629" type="line" smooth="yes"/>
      <point x="296" y="629" type="line" smooth="yes"/>
      <point x="160" y="629"/>
      <point x="125" y="528"/>
      <point x="125" y="451" type="curve" smooth="yes"/>
      <point x="125" y="305" type="line" smooth="yes"/>
      <point x="126" y="248"/>
      <point x="75" y="228"/>
    </contour>
  </outline>
</glyph>
<glyph name="tml_MatraEe" format="1">
  <advance width="621"/>
  <unicode hex="0BC7"/>
  <outline>
    <contour>
      <point x="413" y="346" type="curve"/>
      <point x="413" y="402" type="line"/>
      <point x="457" y="402"/>
      <point x="498" y="446"/>
      <point x="497" y="528" type="curve" smooth="yes"/>
      <point x="497" y="613"/>
      <point x="455" y="648"/>
      <point x="413" y="648" type="curve"/>
      <point x="413" y="705" type="line" smooth="yes"/>
      <point x="491" y="705"/>
      <point x="556" y="635"/>
      <point x="556" y="547" type="curve" smooth="yes"/>
      <point x="556" y="515" type="line" smooth="yes"/>
      <point x="556" y="424"/>
      <point x="493" y="346"/>
    </contour>
    <contour>
      <point x="202" y="514" type="curve" smooth="yes"/>
      <point x="202" y="522"/>
      <point x="202" y="531"/>
      <point x="202" y="547" type="curve" smooth="yes"/>
      <point x="202" y="651"/>
      <point x="287" y="705"/>
      <point x="358" y="705" type="curve"/>
      <point x="358" y="648" type="line" smooth="yes"/>
      <point x="322" y="648"/>
      <point x="258" y="624"/>
      <point x="258" y="527" type="curve" smooth="yes"/>
      <point x="258" y="448"/>
      <point x="311" y="402"/>
      <point x="358" y="402" type="curve"/>
      <point x="358" y="346" type="line" smooth="yes"/>
      <point x="267" y="346"/>
      <point x="202" y="435"/>
    </contour>
    <contour>
      <point x="413" y="-42" type="curve"/>
      <point x="413" y="14" type="line"/>
      <point x="457" y="14"/>
      <point x="498" y="58"/>
      <point x="497" y="140" type="curve" smooth="yes"/>
      <point x="497" y="225"/>
      <point x="455" y="260"/>
      <point x="413" y="260" type="curve"/>
      <point x="413" y="317" type="line" smooth="yes"/>
      <point x="491" y="317"/>
      <point x="556" y="247"/>
      <point x="556" y="159" type="curve" smooth="yes"/>
      <point x="556" y="127" type="line" smooth="yes"/>
      <point x="556" y="36"/>
      <point x="493" y="-42"/>
    </contour>
    <contour>
      <point x="202" y="126" type="curve" smooth="yes"/>
      <point x="202" y="134"/>
      <point x="202" y="143"/>
      <point x="202" y="159" type="curve" smooth="yes"/>
      <point x="202" y="263"/>
      <point x="287" y="317"/>
      <point x="358" y="317" type="curve"/>
      <point x="358" y="260" type="line" smooth="yes"/>
      <point x="322" y="260"/>
      <point x="258" y="236"/>
      <point x="258" y="139" type="curve" smooth="yes"/>
      <point x="258" y="60"/>
      <point x="311" y="14"/>
      <point x="358" y="14" type="curve"/>
      <point x="358" y="-42" type="line" smooth="yes"/>
      <point x="267" y="-42"/>
      <point x="202" y="47"/>
    </contour>
    <contour>
      <point x="73" y="195" type="curve"/>
      <point x="73" y="466" type="line"/>
      <point x="73" y="676"/>
      <point x="289" y="705"/>
      <point x="354" y="705" type="curve" smooth="yes"/>
      <point x="354" y="650" type="line"/>
      <point x="306" y="648"/>
      <point x="126" y="631"/>
      <point x="126" y="462" type="curve" smooth="yes"/>
      <point x="126" y="208" type="line" smooth="yes"/>
      <point x="126" y="26"/>
      <point x="317" y="14"/>
      <point x="356" y="14" type="curve"/>
      <point x="356" y="-42" type="line" smooth="yes"/>
      <point x="351" y="-42" type="line" smooth="yes"/>
      <point x="265" y="-42"/>
      <point x="73" y="-5"/>
    </contour>
  </outline>
</glyph>
<glyph name="tml_MatraAi" format="1">
  <advance width="1043"/>
  <unicode hex="0BC8"/>
  <outline>
    <contour>
      <point x="423" y="158" type="curve"/>
      <point x="423" y="288" type="line" smooth="yes"/>
      <point x="423" y="585"/>
      <point x="684" y="606"/>
      <point x="748" y="605" type="curve"/>
      <point x="748" y="549" type="line"/>
      <point x="591" y="549"/>
      <point x="479" y="477"/>
      <point x="479" y="290" type="curve" smooth="yes"/>
      <point x="479" y="159" type="line" smooth="yes"/>
      <point x="479" y="92"/>
      <point x="514" y="46"/>
      <point x="568" y="46" type="curve"/>
      <point x="568" y="-10" type="line" smooth="yes"/>
      <point x="472" y="-10"/>
      <point x="423" y="73"/>
    </contour>
    <contour>
      <point x="389" y="549" type="curve"/>
      <point x="389" y="605" type="line"/>
      <point x="478" y="605"/>
      <point x="768" y="592"/>
      <point x="768" y="301" type="curve" smooth="yes"/>
      <point x="768" y="158" type="line" smooth="yes"/>
      <point x="768" y="66"/>
      <point x="721" y="-10"/>
      <point x="622" y="-10" type="curve"/>
      <point x="622" y="46" type="line" smooth="yes"/>
      <point x="682" y="46"/>
      <point x="712" y="90"/>
      <point x="712" y="158" type="curve" smooth="yes"/>
      <point x="712" y="303" type="line" smooth="yes"/>
      <point x="712" y="447"/>
      <point x="624" y="548"/>
    </contour>
    <contour>
      <point x="40" y="157" type="line"/>
      <point x="40" y="72"/>
      <point x="89" y="-11"/>
      <point x="186" y="-11" type="curve" smooth="yes"/>
      <point x="186" y="45" type="line"/>
      <point x="143" y="45"/>
      <point x="96" y="79"/>
      <point x="97" y="158" type="curve" smooth="yes"/>
      <point x="96" y="290" type="line" smooth="yes"/>
      <point x="96" y="418"/>
      <point x="148" y="548"/>
      <point x="335" y="549" type="curve"/>
      <point x="335" y="605" type="line"/>
      <point x="252" y="605"/>
      <point x="40" y="575"/>
      <point x="40" y="290" type="curve" smooth="yes"/>
    </contour>
    <contour>
      <point x="248" y="395" type="curve"/>
      <point x="245" y="412"/>
      <point x="268" y="436"/>
      <point x="295" y="437" type="curve"/>
      <point x="364" y="437"/>
      <point x="385" y="365"/>
      <point x="385" y="285" type="curve" smooth="yes"/>
      <point x="385" y="157" type="line" smooth="yes"/>
      <point x="385" y="62"/>
      <point x="334" y="-11"/>
      <point x="239" y="-11" type="curve"/>
      <point x="239" y="46" type="line" smooth="yes"/>
      <point x="288" y="46"/>
      <point x="329" y="79"/>
      <point x="329" y="157" type="curve" smooth="yes"/>
      <point x="329" y="285" type="line" smooth="yes"/>
      <point x="329" y="340"/>
      <point x="321" y="395"/>
    </contour>
    <contour>
      <point x="802" y="540" type="line"/>
      <point x="859" y="534"/>
      <point x="938" y="456"/>
      <point x="938" y="303" type="curve" smooth="yes"/>
      <point x="938" y="162" type="line" smooth="yes"/>
      <point x="938" y="99"/>
      <point x="907" y="51"/>
      <point x="841" y="51" type="curve" smooth="yes"/>
      <point x="841" y="-5" type="line"/>
      <point x="942" y="-5"/>
      <point x="995" y="70"/>
      <point x="995" y="162" type="curve" smooth="yes"/>
      <point x="995" y="303" type="line" smooth="yes"/>
      <point x="995" y="483"/>
      <point x="898" y="590"/>
      <point x="802" y="596" type="curve"/>
    </contour>
  </outline>
</glyph>
<glyph name="tml_Three" format="1">
  <advance width="734"/>
  <unicode hex="0BE9"/>
  <outline>
    <contour>
      <point x="305" y="0" type="line"/>
      <point x="305" y="56" type="line"/>
      <point x="648" y="56" type="line"/>
      <point x="648" y="0" type="line"/>
    </contour>
    <contour>
      <point x="255" y="0" type="curve"/>
      <point x="255" y="56" type="line"/>
      <point x="262" y="56"/>
      <point x="411" y="56"/>
      <point x="424" y="56" type="curve" smooth="yes"/>
      <point x="485" y="56"/>
      <point x="537" y="61"/>
      <point x="537" y="125" type="curve" smooth="yes"/>
      <point x="537" y="226" type="line" smooth="yes"/>
      <point x="537" y="294"/>
      <point x="462" y="297"/>
      <point x="424" y="297" type="curve" smooth="yes"/>
      <point x="424" y="354" type="line"/>
      <point x="497" y="354"/>
      <point x="593" y="329"/>
      <point x="593" y="230" type="curve" smooth="yes"/>
      <point x="593" y="112" type="line" smooth="yes"/>
      <point x="593" y="33"/>
      <point x="522" y="0"/>
      <point x="428" y="0" type="curve" smooth="yes"/>
      <point x="412" y="0"/>
      <point x="271" y="0"/>
    </contour>
    <contour>
      <point x="313" y="177" type="line"/>
      <point x="369" y="177" type="line"/>
      <point x="369" y="589" type="line"/>
      <point x="313" y="589" type="line"/>
    </contour>
    <contour>
      <point x="73" y="0" type="line"/>
      <point x="130" y="0" type="line"/>
      <point x="130" y="591" type="line"/>
      <point x="73" y="591" type="line"/>
    </contour>
    <contour>
      <point x="73" y="595" type="line"/>
      <point x="74" y="539" type="line"/>
      <point x="478" y="539" type="line"/>
      <point x="478" y="595" type="line"/>
    </contour>
  </outline>
</glyph>
<glyph name="tml_Eight" format="1">
  <advance width="750"/>
  <unicode hex="0BEE"/>
  <outline>
    <contour>
      <point x="462" y="278" type="curve" smooth="yes"/>
      <point x="402" y="350"/>
      <point x="346" y="428"/>
      <point x="377" y="536" type="curve" smooth="yes"/>
      <point x="409" y="632"/>
      <point x="463" y="715"/>
      <point x="581" y="685" type="curve" smooth="yes"/>
      <point x="708" y="685"/>
      <point x="741" y="550"/>
      <point x="741" y="396" type="curve"/>
      <point x="716" y="232" type="line"/>
      <point x="684" y="276" type="line"/>
      <point x="684" y="292"/>
      <point x="677" y="468"/>
      <point x="661" y="468" type="curve" smooth="yes"/>
      <point x="645" y="618"/>
      <point x="603" y="668"/>
      <point x="511" y="653" type="curve" smooth="yes"/>
      <point x="426" y="632"/>
      <point x="421" y="544"/>
      <point x="433" y="434" type="curve" smooth="yes"/>
      <point x="433" y="323"/>
      <point x="522" y="262"/>
      <point x="567" y="226" type="curve" smooth="yes"/>
      <point x="555" y="234"/>
      <point x="462" y="248"/>
    </contour>
    <contour>
      <point x="384" y="184" type="curve"/>
      <point x="384" y="240" type="line"/>
      <point x="453" y="240"/>
      <point x="671" y="240"/>
      <point x="741" y="240" type="curve"/>
      <point x="742" y="67" type="line"/>
      <point x="742" y="-35"/>
      <point x="670" y="-127"/>
      <point x="545" y="-127" type="curve" smooth="yes"/>
      <point x="386" y="-127" type="line" smooth="yes"/>
      <point x="386" y="-71" type="line"/>
      <point x="543" y="-71" type="line" smooth="yes"/>
      <point x="625" y="-70"/>
      <point x="684" y="-17"/>
      <point x="684" y="69" type="curve"/>
      <point x="684" y="184" type="line"/>
      <point x="650" y="184"/>
      <point x="418" y="184"/>
    </contour>
    <contour>
      <point x="40" y="72" type="curve" smooth="yes"/>
      <point x="40" y="188"/>
      <point x="124" y="241"/>
      <point x="254" y="241" type="curve" smooth="yes"/>
      <point x="329" y="241" type="line"/>
      <point x="329" y="183" type="line"/>
      <point x="236" y="183" type="line" smooth="yes"/>
      <point x="212" y="183"/>
      <point x="96" y="182"/>
      <point x="96" y="72" type="curve" smooth="yes"/>
      <point x="96" y="-35"/>
      <point x="186" y="-71"/>
      <point x="243" y="-71" type="curve" smooth="yes"/>
      <point x="330" y="-71" type="line"/>
      <point x="330" y="-127" type="line"/>
      <point x="243" y="-127" type="line" smooth="yes"/>
      <point x="131" y="-127"/>
      <point x="40" y="-47"/>
    </contour>
    <contour>
      <point x="700" y="184" type="line"/>
      <point x="700" y="240" type="line"/>
      <point x="858" y="240" type="line"/>
      <point x="858" y="184" type="line"/>
    </contour>
    <contour>
      <point x="856" y="-107" type="line"/>
      <point x="856" y="578" type="line"/>
      <point x="913" y="578" type="line"/>
      <point x="913" y="-107" type="line"/>
    </contour>
  </outline>
</glyph>
<glyph name="tml_Hundred" format="1">
  <advance width="781"/>
  <unicode hex="0BF1"/>
  <outline>
    <contour>
      <point x="582" y="0" type="line"/>
      <point x="582" y="558" type="line"/>
      <point x="638" y="558" type="line" smooth="yes"/>
      <point x="638" y="0" type="line" smooth="yes"/>
    </contour>
    <contour>
      <point x="467" y="549" type="line"/>
      <point x="467" y="606" type="line"/>
      <point x="741" y="606" type="line"/>
      <point x="741" y="549" type="line"/>
    </contour>
    <contour>
      <point x="40" y="0" type="line"/>
      <point x="40" y="479" type="line" smooth="yes"/>
      <point x="40" y="547"/>
      <point x="78" y="606"/>
      <point x="159" y="606" type="curve"/>
      <point x="159" y="549" type="line"/>
      <point x="136" y="549"/>
      <point x="95" y="540"/>
      <point x="95" y="474" type="curve" smooth="yes"/>
      <point x="98" y="0" type="line"/>
    </contour>
    <contour>
      <point x="214" y="549" type="curve"/>
      <point x="214" y="606" type="line"/>
      <point x="260" y="606"/>
      <point x="285" y="597"/>
      <point x="314" y="568" type="curve"/>
      <point x="342" y="605"/>
      <point x="374" y="606"/>
      <point x="413" y="606" type="curve"/>
      <point x="413" y="550" type="line"/>
      <point x="372" y="550"/>
      <point x="341" y="540"/>
      <point x="341" y="478" type="curve" smooth="yes"/>
      <point x="343" y="0" type="line"/>
      <point x="287" y="0" type="line"/>
      <point x="284" y="477" type="line" smooth="yes"/>
      <point x="283" y="527"/>
      <point x="258" y="549"/>
    </contour>
  </outline>
</glyph>
<glyph name="tml_Day" format="1">
  <advance width="935"/>
  <unicode hex="0BF3"/>
  <outline>
    <contour>
      <point x="251" y="0" type="curve"/>
      <point x="251" y="56" type="line"/>
      <point x="293" y="57"/>
      <point x="335" y="99"/>
      <point x="335" y="182" type="curve" smooth="yes"/>
      <point x="335" y="269"/>
      <point x="291" y="303"/>
      <point x="251" y="303" type="curve"/>
      <point x="251" y="359" type="line" smooth="yes"/>
      <point x="329" y="359"/>
      <point x="393" y="289"/>
      <point x="393" y="202" type="curve" smooth="yes"/>
      <point x="393" y="169" type="line" smooth="yes"/>
      <point x="394" y="78"/>
      <point x="330" y="0"/>
    </contour>
    <contour>
      <point x="40" y="168" type="curve" smooth="yes"/>
      <point x="40" y="201" type="line" smooth="yes"/>
      <point x="40" y="305"/>
      <point x="125" y="359"/>
      <point x="196" y="359" type="curve"/>
      <point x="196" y="303" type="line" smooth="yes"/>
      <point x="160" y="303"/>
      <point x="96" y="280"/>
      <point x="96" y="181" type="curve" smooth="yes"/>
      <point x="96" y="102"/>
      <point x="149" y="56"/>
      <point x="196" y="56" type="curve"/>
      <point x="196" y="0" type="line" smooth="yes"/>
      <point x="105" y="0"/>
      <point x="40" y="89"/>
    </contour>
    <contour>
      <point x="40" y="208" type="line"/>
      <point x="40" y="303" type="line"/>
      <point x="40" y="462"/>
      <point x="118" y="605"/>
      <point x="270" y="605" type="curve"/>
      <point x="270" y="549" type="line"/>
      <point x="166" y="549"/>
      <point x="101" y="443"/>
      <point x="99" y="316" type="curve" smooth="yes"/>
    </contour>
    <contour>
      <point x="321" y="549" type="line"/>
      <point x="430" y="549"/>
      <point x="488" y="463"/>
      <point x="489" y="354" type="curve"/>
      <point x="489" y="90" type="line" smooth="yes"/>
      <point x="489" y="57"/>
      <point x="479" y="57"/>
      <point x="424" y="57" type="curve"/>
      <point x="424" y="0" type="line"/>
      <point x="896" y="0" type="line"/>
      <point x="896" y="57" type="line"/>
      <point x="546" y="57" type="line"/>
      <point x="546" y="355" type="line"/>
      <point x="545" y="466"/>
      <point x="485" y="605"/>
      <point x="321" y="605" type="curve"/>
    </contour>
  </outline>
</glyph>
